<?xml version="1.0" encoding="utf-8"?>
<!-- Generator: Adobe Illustrator 24.0.1, SVG Export Plug-In . SVG Version: 6.00 Build 0)  -->
<svg version="1.1" id="Layer_1" xmlns="http://www.w3.org/2000/svg" xmlns:xlink="http://www.w3.org/1999/xlink" x="0px" y="0px"
	 viewBox="0 0 1920 1080" style="enable-background:new 0 0 1920 1080;" xml:space="preserve">
<polygon style="opacity:0.31;fill:#17718C;enable-background:new    ;" points="1698.9,0 1575.7,0 1184.7,770.3 807.3,0 683.3,0 
	448.7,1080 658.4,1080 793.1,397.6 1127.8,1080 1236.3,1080 1580.8,398.3 1701.7,1080 1909.7,1080 "/>
<g style="opacity:0.53;">
	<path style="fill:none;stroke:#7F4285;stroke-miterlimit:10;" d="M349.4,1080c0,0-53.5-562.4,146.1-1080"/>
	<path style="fill:none;stroke:#7F4285;stroke-width:1.08;stroke-miterlimit:10;" d="M351.4,1080c0,0-41.9-580.5,201.1-1079.6"/>
	<path style="fill:none;stroke:#7F4285;stroke-width:1.16;stroke-miterlimit:10;" d="M353.4,1080c0,0-30.3-598.7,256.1-1079.2"/>
	<path style="fill:none;stroke:#7F4285;stroke-width:1.24;stroke-miterlimit:10;" d="M355.3,1080c0,0-18.7-616.8,311.1-1078.8"/>
	<path style="fill:none;stroke:#7F4285;stroke-width:1.32;stroke-miterlimit:10;" d="M357.3,1080c0,0-7-635,366.1-1078.4"/>
	<path style="fill:none;stroke:#7F4285;stroke-width:1.4;stroke-miterlimit:10;" d="M359.3,1080c0,0,4.6-653.1,421.2-1078"/>
	<path style="fill:none;stroke:#7F4285;stroke-width:1.48;stroke-miterlimit:10;" d="M361.2,1080c0,0,16.2-671.2,476.2-1077.6"/>
	<path style="fill:none;stroke:#7F4285;stroke-width:1.56;stroke-miterlimit:10;" d="M363.2,1080c0,0,27.8-689.4,531.2-1077.2"/>
	<path style="fill:none;stroke:#7F4285;stroke-width:1.64;stroke-miterlimit:10;" d="M365.2,1080c0,0,39.5-707.5,586.2-1076.8"/>
	<path style="fill:none;stroke:#7F4285;stroke-width:1.72;stroke-miterlimit:10;" d="M367.1,1080c0,0,51.1-725.7,641.2-1076.4"/>
	<path style="fill:none;stroke:#7F4285;stroke-width:1.8;stroke-miterlimit:10;" d="M369.1,1080c0,0,62.7-743.8,696.2-1076"/>
	<path style="fill:none;stroke:#7F4285;stroke-width:1.88;stroke-miterlimit:10;" d="M371,1080c0,0,74.3-761.9,751.2-1075.6"/>
	<path style="fill:none;stroke:#7F4285;stroke-width:1.96;stroke-miterlimit:10;" d="M373,1080c0,0,85.9-780.1,806.3-1075.2"/>
	<path style="fill:none;stroke:#7F4285;stroke-width:2.04;stroke-miterlimit:10;" d="M375,1080c0,0,97.6-798.2,861.3-1074.8"/>
	<path style="fill:none;stroke:#7F4285;stroke-width:2.12;stroke-miterlimit:10;" d="M376.9,1080c0,0,109.2-816.4,916.3-1074.4"/>
	<path style="fill:none;stroke:#7F4285;stroke-width:2.2;stroke-miterlimit:10;" d="M378.9,1080c0,0,120.8-834.5,971.3-1074"/>
	<path style="fill:none;stroke:#7F4285;stroke-width:2.28;stroke-miterlimit:10;" d="M380.9,1080c0,0,132.4-852.6,1026.3-1073.6"/>
	<path style="fill:none;stroke:#7F4285;stroke-width:2.36;stroke-miterlimit:10;" d="M382.8,1080c0,0,144-870.8,1081.3-1073.3"/>
	<path style="fill:none;stroke:#7F4285;stroke-width:2.44;stroke-miterlimit:10;" d="M384.8,1080c0,0,155.7-888.9,1136.3-1072.9"/>
	<path style="fill:none;stroke:#7F4285;stroke-width:2.52;stroke-miterlimit:10;" d="M386.8,1080c0,0,167.3-907.1,1191.3-1072.5"/>
	<path style="fill:none;stroke:#7F4285;stroke-width:2.6;stroke-miterlimit:10;" d="M388.7,1080c0,0,178.9-925.2,1246.4-1072.1"/>
	<path style="fill:none;stroke:#7F4285;stroke-width:2.68;stroke-miterlimit:10;" d="M390.7,1080c0,0,190.5-943.3,1301.4-1071.7"/>
	<path style="fill:none;stroke:#7F4285;stroke-width:2.76;stroke-miterlimit:10;" d="M392.7,1080c0,0,202.2-961.5,1356.4-1071.3"/>
	<path style="fill:none;stroke:#7F4285;stroke-width:2.84;stroke-miterlimit:10;" d="M394.6,1080c0,0,213.8-979.6,1411.4-1070.9"/>
	<path style="fill:none;stroke:#7F4285;stroke-width:2.92;stroke-miterlimit:10;" d="M396.6,1080C396.6,1080,622,82.2,1863,9.5"/>
	<path style="fill:none;stroke:#7F4285;stroke-width:3;stroke-miterlimit:10;" d="M398.6,1080c0,0,237-1015.9,1521.4-1070.1"/>
</g>
<path style="opacity:0.53;fill:#17718C;enable-background:new    ;" d="M292.3,412.8C191.6,460,224.6,322.1,84.8,310.6
	c-33-2.7-61.1,2.5-84.8,12v363.6c73.4,19,127.6-38.2,155.5,45.4c6.6,19.8,16.5,39.2,30,57l85.9-205.8l9.8-23.1c-0.1,0-0.1,0-0.2,0
	l68.4-163.8C329,398.7,309.8,404.6,292.3,412.8z"/>
<path style="opacity:0.53;fill:#17718C;enable-background:new    ;" d="M369.7,790.8H363l0,0l-178.5,1.8
	c-37.8,66.5-42.7,164.7,30.5,287.4h367.1c74.8-125.3,68.1-225.1,28-291.7L369.7,790.8z"/>
<path style="opacity:0.34;fill:#7F4285;enable-background:new    ;" d="M533.4,660.9c0,14.6-4.6,26-13.7,34.2
	c-9.2,8.2-19.9,12.3-32.2,12.3c-12.3,0-23.1-4.1-32.2-12.3c-9.2-8.2-13.7-19.6-13.7-34.2v-29.1h-33.1c-14.6,0-26-4.6-34.2-13.7
	c-8.2-9.2-12.3-19.9-12.3-32.2c0-12.7,4.1-23.6,12.3-32.8c8.2-9.2,19.6-13.7,34.2-13.7h33.1v-29.1c0-14.6,4.6-26,13.7-34.2
	c9.2-8.2,19.9-12.3,32.2-12.3c12.3,0,23.1,4.1,32.2,12.3c9.2,8.2,13.7,19.6,13.7,34.2v29.1h26.3c14.6,0,26,4.6,34.2,13.7
	c8.2,9.2,12.3,20.1,12.3,32.8c0,12.3-4.1,23.1-12.3,32.2c-8.2,9.2-19.6,13.7-34.2,13.7h-26.3V660.9z"/>
<path style="opacity:0.34;fill:#7F4285;enable-background:new    ;" d="M564.8,160.2c0,6.1-1.9,10.9-5.8,14.4
	c-3.9,3.5-8.4,5.2-13.6,5.2s-9.7-1.7-13.6-5.2c-3.9-3.5-5.8-8.3-5.8-14.4v-12.3h-13.9c-6.1,0-10.9-1.9-14.4-5.8
	c-3.5-3.9-5.2-8.4-5.2-13.6c0-5.4,1.7-10,5.2-13.8c3.5-3.9,8.3-5.8,14.4-5.8H526V96.7c0-6.1,1.9-10.9,5.8-14.4
	c3.9-3.5,8.4-5.2,13.6-5.2s9.7,1.7,13.6,5.2c3.9,3.5,5.8,8.3,5.8,14.4V109h11.1c6.1,0,10.9,1.9,14.4,5.8s5.2,8.5,5.2,13.8
	c0,5.2-1.7,9.7-5.2,13.6c-3.5,3.9-8.3,5.8-14.4,5.8h-11.1L564.8,160.2L564.8,160.2z"/>
<path style="opacity:0.34;fill:#7F4285;enable-background:new    ;" d="M1061.5,147c0,6.1-1.9,10.9-5.8,14.4s-8.4,5.2-13.6,5.2
	s-9.7-1.7-13.6-5.2s-5.8-8.3-5.8-14.4v-12.3h-13.9c-6.1,0-10.9-1.9-14.4-5.8c-3.5-3.9-5.2-8.4-5.2-13.6c0-5.4,1.7-10,5.2-13.8
	c3.5-3.9,8.3-5.8,14.4-5.8h13.9V83.4c0-6.1,1.9-10.9,5.8-14.4s8.4-5.2,13.6-5.2s9.7,1.7,13.6,5.2s5.8,8.3,5.8,14.4v12.3h11.1
	c6.1,0,10.9,1.9,14.4,5.8s5.2,8.5,5.2,13.8c0,5.2-1.7,9.7-5.2,13.6c-3.5,3.9-8.3,5.8-14.4,5.8h-11.1V147z"/>
</svg>
