<?xml version="1.0" encoding="utf-8"?>
<!-- Generator: Adobe Illustrator 24.0.1, SVG Export Plug-In . SVG Version: 6.00 Build 0)  -->
<svg version="1.1" id="Layer_1_copy_4" xmlns="http://www.w3.org/2000/svg" xmlns:xlink="http://www.w3.org/1999/xlink" x="0px"
	 y="0px" viewBox="0 0 504.1 230.8" style="enable-background:new 0 0 504.1 230.8;" xml:space="preserve">
<style type="text/css">
	.st0{opacity:0.5;}
	.st1{fill:#ED1C24;}
	.st2{fill:#FF616D;}
	.st3{fill:#FF858E;}
	.st4{fill:#FFFFFF;}
	.st5{fill:#560B11;}
</style>
<g class="st0">
	<g>
		<path class="st1" d="M442.6,231c-4-6.8-9-12.6-14.6-17.6c-32-28.5,21.9-37.6,4.7-89c-17.1-51.2-71.3-50-71.3-50s-54.3-1.2-71.4,50
			c-17.2,51.1,36.5,60.5,4.5,88.9c-6.1,5.3-11.4,11.8-15.6,19.4"/>
		<path class="st2" d="M334.5,147.4c0.8,4.1,2.1,8.3,3.4,12.5c2.8,8.3,6.4,16.7,9,25c1.3,4.1,2.3,8.3,3,12.6c0.6,4.1,1,8.3,0.8,12.6
			c-0.1,4.2-0.5,8.3-1.2,12.5c-0.5,2.9-0.9,6.6-1.9,9.4l26.9-0.1c-1-2.9-2.1-6.5-2.6-9.4c-0.8-4.1-1.3-8.3-1.3-12.5
			c-0.1-4.2,0.3-8.2,0.9-12.5c0.6-4.2,1.6-8.3,3-12.4c2.5-8.2,6.2-16.6,9-25c1.4-4.1,2.6-8.2,3.5-12.6c0.9-4.1,1.3-8.3,1.6-12.5
			c0.2-4.2-0.2-8.2-0.4-12.6c-0.3-4.1-0.6-8.3-1-12.5c-0.7-8.3-1.9-16.6-3.2-24.9c-0.4-2.5-0.9-4.9-1.3-7.6
			c-11.8-3.3-20.9-3.1-20.9-3.1s-9.9-0.3-22.4,3.6c-0.5,2.3-0.9,4.8-1.2,7c-1.3,8.3-2.4,16.6-3.3,25c-0.4,4.1-0.7,8.4-1,12.5
			c-0.2,4.2-0.6,8.3-0.5,12.5C333.1,139.1,333.6,143.3,334.5,147.4z"/>
		<g>
			<path class="st3" d="M377.8,162.1c-5.7,0.5-11.4,0.6-17.2,0.7c-10,0.1-19.9-0.8-29.6-2.2c-11.1-1.7-20.3-4.1-27.2-6.3
				c3.9,25.2,27.9,44.7,56.9,44.8c28.9,0.1,52.7-19.1,56.8-44.1C404.4,158.7,391.1,161.1,377.8,162.1z"/>
			<path class="st3" d="M331.7,157.2c14.9,2.3,30.4,2.7,45.8,1.5c13.5-1.1,27.1-3.6,40.6-7.5c0.2-1.3,0.1-2.7,0.2-4.1
				c0-20.7-13.3-38.6-32.7-47l0,0l0.1,0.2l0.3,0.9c0,0.3,0.1,0.7,0.1,0.9v0.4l0.1,0.2l0.1,0.2c0.1,0.7,0.2,1.3,0.2,1.9
				c0.1,1.2,0.1,2.4,0,3.8c0,0.7-0.2,1.3-0.3,1.8c-0.1,0.3,0,0.7-0.2,1l-0.2,1c-0.1,0.3-0.1,0.6-0.3,0.9c-0.1,0.3-0.1,0.6-0.3,0.9
				c-0.1,0.6-0.4,1.3-0.5,1.8c-0.4,1.3-0.9,2.4-1.5,3.5c-2.4,4.5-5.9,8.2-10.1,10.8l-0.8,0.5l-0.4,0.3l-0.4,0.3l-0.9,0.4l-0.9,0.4
				l-0.4,0.1l-0.4,0.1l-0.8,0.3c-0.3,0-0.5,0.1-0.8,0.3l-0.5,0.1c-0.1,0.1-0.3,0-0.5,0.1l-0.8,0.3c-0.3,0-0.6,0.2-0.8,0.3h-0.4
				c-0.1,0-0.1,0-0.2,0.1l-0.2,0.1c-0.3,0-0.7,0.1-0.9,0.1c-1.3,0.2-2.6,0.2-3.9,0.2c-1.3-0.2-2.6-0.2-3.8-0.4
				c-1.3-0.3-2.4-0.6-3.6-1.1s-2.2-1-3.3-1.7c-1-0.6-2.1-1.3-3-2.2c-1.8-1.7-3.4-3.5-4.5-5.6c-0.2-0.3-0.3-0.5-0.4-0.7
				c-0.2-0.3-0.2-0.5-0.4-0.7l-0.3-0.7c-0.1-0.2-0.2-0.5-0.3-0.7c-0.1-0.1-0.1-0.2-0.1-0.4l-0.1-0.4c-0.1-0.1,0-0.3-0.1-0.4v-0.4
				c-0.1-0.5-0.2-1-0.3-1.6v-0.9c0-0.1,0-0.1-0.1-0.2l-0.1-0.2v-0.4c-0.1-0.7-0.1-1.1-0.1-1.9c0-1.2,0.3-2.4,0.5-3.4
				c0.3-1.1,0.7-2.2,1.2-3.1c0.5-1,1.1-1.9,1.9-2.7c0.1-0.2,0.3-0.4,0.6-0.5l0.2-0.4c0.1-0.1,0.1-0.1,0.3-0.4l0.3-0.3l0.3-0.3
				c0.1-0.1,0.1-0.1,0.3-0.3l0.3-0.3c0.8-0.6,1.8-1.2,2.5-1.6c0.2-0.1,0.5-0.2,0.7-0.3c0.2-0.1,0.5-0.1,0.7-0.3s0.5-0.1,0.7-0.3
				s0.4,0,0.7-0.2l0.7-0.1l0.7-0.1c0.2-0.1,0.4,0,0.7,0h0.7v0.1c-1.5,1-2.9,2.2-3.7,3.4c-0.4,0.6-0.8,1.4-1.2,1.9
				c-0.3,0.7-0.5,1.4-0.7,2c-0.1,0.6-0.2,1.4-0.3,2c0,0.1,0,0.3,0,0.4v0.4v0.4c0,0.1,0,0.3,0,0.4c0.1,0.7,0.2,1.3,0.4,1.7
				c0,0.3,0.2,0.5,0.4,0.7l0.1,0.1l0.1,0.1c0,0,0,0.1,0.1,0.1l0.3,0.4c0.2,0.3,0.3,0.5,0.5,0.8l0.1,0.1c0.1,0.1,0.1,0.1,0.1,0.1
				l0.1,0.1c0.1,0.1,0.1,0.1,0.1,0.1l0.4,0.3l0.4,0.3c0.1,0.1,0.3,0.2,0.4,0.3c0.1,0.1,0.3,0.2,0.4,0.3l0.1,0.1
				c0.1,0.1,0.1,0.1,0.1,0.1l0.1,0.1c0.1,0.1,0.1,0.1,0.1,0.1c0.1,0.1,0.2,0.1,0.4,0.2l0.4,0.2c0.5,0.3,0.9,0.5,1.5,0.8
				c0.1,0.1,0.2,0,0.4,0.2c0.1,0.1,0.2,0,0.4,0.2l0.4,0.2c0.1,0,0.1,0.1,0.1,0.1l0.1,0.1c0.4,0.2,1,0.2,1.5,0.3
				c0.5,0.1,1,0.1,1.5,0.1c0.4,0,1,0,1.4-0.2c0.4,0,0.9-0.3,1.4-0.4c0.1-0.1,0.2-0.1,0.4-0.1h0.1c0,0,0.1,0,0.1-0.1l0.1-0.1
				c0.1-0.1,0.2-0.1,0.4-0.1l0.4-0.1c0.1,0,0.1-0.1,0.1-0.1l0.1-0.1l0.4-0.1l0.3-0.3l0.1-0.1l0.1-0.1c0.1-0.1,0.3-0.2,0.3-0.3
				l0.3-0.3l0.1-0.1l0.1-0.1c0.1-0.1,0.3-0.2,0.3-0.3l0.3-0.3l0.1-0.1l0.1-0.1c0.1-0.1,0.1-0.1,0.3-0.3l0.2-0.4l0.1-0.1l0.1-0.1
				l0.2-0.4c0.1-0.1,0.1-0.2,0.2-0.4l0.1-0.1l0.1-0.1l0.2-0.4c0.1-0.1,0.1-0.2,0.2-0.4c0.1-0.1,0.1-0.2,0.2-0.4
				c0.1-0.1,0.1-0.2,0.2-0.3c0-0.2,0.2-0.4,0.2-0.6c0.1-0.1,0-0.2,0.2-0.3c0.1-0.1,0-0.2,0.2-0.3c0.8-1.8,1.1-3.8,0.9-5.7
				c-0.1-0.2,0-0.4-0.1-0.7l-0.1,0.6v-0.1v-0.1c0-0.1-0.1-0.2,0-0.4c0-0.1-0.1-0.2,0-0.4c0-0.1,0-0.1-0.1-0.1l-0.1-0.2
				c-0.1-0.2-0.1-0.5-0.3-0.7c-0.3-1.1-0.8-2-1.3-3c-1.1-2-2.6-3.5-4.3-5c-0.1-0.1-0.1-0.1-0.2-0.1c-0.3,0-0.7,0-1-0.1
				c-31.7-0.1-57.6,23.1-57.6,51.9c0,1.2,0.1,2.3,0.2,3.5C310.8,152.9,320.4,155.5,331.7,157.2z"/>
		</g>
		<g>
			<g>
				<ellipse class="st4" cx="329.2" cy="159.3" rx="15.3" ry="22.6"/>
				<path class="st5" d="M334.4,164.7c-2.9,0-5.3-2.4-5.2-5.3l0,0c0-2.9,2.4-5.3,5.3-5.2h5.9c-1.5-6.9-5.8-12-11.1-12
					c-6.4,0-11.7,7.8-11.7,17.3c-0.1,9.6,5.2,17.3,11.6,17.3c5.2,0.1,9.6-5.1,11.1-12L334.4,164.7z"/>
			</g>
			<g>
				<ellipse class="st4" cx="392.3" cy="159.4" rx="15.3" ry="22.6"/>
				<path class="st5" d="M397.5,164.7c-2.9,0-5.3-2.4-5.2-5.3l0,0c0-2.9,2.4-5.3,5.3-5.2h5.9c-1.5-6.9-5.8-12-11.1-12
					c-6.4,0-11.7,7.8-11.7,17.3c-0.1,9.6,5.2,17.3,11.6,17.3c5.2,0.1,9.6-5.1,11.1-12L397.5,164.7z"/>
			</g>
		</g>
	</g>
</g>
</svg>
