<?xml version="1.0" encoding="utf-8"?>
<!-- Generator: Adobe Illustrator 23.0.1, SVG Export Plug-In . SVG Version: 6.00 Build 0)  -->
<svg version="1.1" id="Layer_1_copy" xmlns="http://www.w3.org/2000/svg" xmlns:xlink="http://www.w3.org/1999/xlink" x="0px"
	 y="0px" viewBox="0 0 2066.3 545.3" style="enable-background:new 0 0 2066.3 545.3;" xml:space="preserve">
<style type="text/css">
	.st0{fill:#FFFFFF;}
	.st1{fill:#4A7F91;}
	.st2{fill:#AAADB3;}
	.st3{fill:#632A6B;}
	.st4{fill:#1C1B1A;}
</style>
<g>
	<g>
		<path class="st0" d="M262,467.7c-117.8,0-213.7-95.9-213.7-213.7S144.1,40.3,262,40.3h5.4v61.2c23.6,0.8,46.7,7.1,67.3,18.3
			c8.6,4.7,16.8,10.2,24.3,16.4c7.5,6.2,14.5,13.2,20.7,20.7c4.7,5.7,9,11.7,12.8,17.9c2.5,4.2,4.9,8.6,7,13
			c2.2,4.5,4.1,9.1,5.8,13.7c4.3,11.9,7.2,24.3,8.5,36.9c0.5,5.2,0.8,10.4,0.8,15.6c0,82.3-65.5,149.6-147.2,152.5v61.2H262z"/>
	</g>
	<path class="st1" d="M262,462.3c-115,0-208.3-93.3-208.3-208.3S146.9,45.7,262,45.7"/>
	<circle class="st0" cx="262" cy="254" r="147.2"/>
	<path class="st2" d="M261.1,193v-43.1c-57.5,0-104.1,46.6-104.1,104.1s46.6,104.1,104.1,104.1V315c-26.9,0-49.6-17.4-57.8-41.5
		h57.8v-35.3h-58.9C209.2,212.2,232.8,193,261.1,193z"/>
	<path class="st3" d="M262,106.8V150c57.4,0,104,46.6,104,104s-46.6,104-104,104v43.2c81.3,0,147.2-65.9,147.2-147.2
		S343.3,106.8,262,106.8z"/>
</g>
<g>
	<g>
		<path class="st0" d="M508.2,196.8c7.3,0,14,1.2,20.3,3.5c6.3,2.3,11.7,5.8,16.2,10.4c4.6,4.6,8.1,10.4,10.7,17.4
			c2.6,6.9,3.9,15.1,3.9,24.5c0,8.2-1.1,15.8-3.2,22.7c-2.1,6.9-5.3,12.9-9.5,18c-4.3,5-9.6,9-15.9,11.9c-6.4,2.9-13.9,4.3-22.5,4.3
			h-48.6V196.8H508.2z M506.5,288.6c3.6,0,7-0.6,10.4-1.7c3.4-1.2,6.4-3.1,9-5.8c2.6-2.7,4.7-6.2,6.3-10.5c1.6-4.3,2.4-9.6,2.4-15.8
			c0-5.7-0.6-10.8-1.7-15.4c-1.1-4.6-2.9-8.5-5.4-11.8c-2.5-3.3-5.9-5.8-10-7.5c-4.2-1.7-9.3-2.6-15.4-2.6h-17.7v71H506.5z"/>
		<path class="st0" d="M612.6,230.6l29.5,78.8h-18l-6-17.6h-29.5l-6.2,17.6H565l29.8-78.8H612.6z M613.6,279l-9.9-28.9h-0.2
			L593.1,279H613.6z"/>
		<path class="st0" d="M632.6,245.2v-14.6h64.6v14.6h-23.6v64.3h-17.3v-64.3H632.6z"/>
		<path class="st0" d="M735.4,230.6l29.5,78.8h-18l-6-17.6h-29.5l-6.2,17.6h-17.4l29.8-78.8H735.4z M736.4,279l-9.9-28.9h-0.2
			L715.9,279H736.4z"/>
		<path class="st0" d="M867.4,196.8c7.3,0,14,1.2,20.3,3.5c6.3,2.3,11.7,5.8,16.2,10.4c4.6,4.6,8.1,10.4,10.7,17.4
			c2.6,6.9,3.9,15.1,3.9,24.5c0,8.2-1.1,15.8-3.2,22.7c-2.1,6.9-5.3,12.9-9.5,18c-4.3,5-9.6,9-15.9,11.9c-6.4,2.9-13.9,4.3-22.5,4.3
			h-48.6V196.8H867.4z M865.7,288.6c3.6,0,7-0.6,10.4-1.7c3.4-1.2,6.4-3.1,9-5.8c2.6-2.7,4.7-6.2,6.3-10.5c1.6-4.3,2.4-9.6,2.4-15.8
			c0-5.7-0.6-10.8-1.7-15.4c-1.1-4.6-2.9-8.5-5.4-11.8c-2.5-3.3-5.9-5.8-10-7.5c-4.2-1.7-9.3-2.6-15.4-2.6h-17.7v71H865.7z"/>
		<path class="st0" d="M949.8,230.6v78.8h-17.3v-78.8H949.8z"/>
		<path class="st0" d="M978.3,290c1,1.8,2.2,3.3,3.8,4.5c1.6,1.1,3.4,2,5.6,2.5c2.1,0.6,4.3,0.8,6.6,0.8c1.5,0,3.2-0.1,5-0.4
			c1.8-0.3,3.4-0.8,5-1.5c1.5-0.7,2.8-1.7,3.9-3c1-1.3,1.5-2.9,1.5-4.9c0-2.1-0.7-3.9-2-5.2c-1.4-1.3-3.1-2.4-5.4-3.3
			c-2.2-0.9-4.7-1.7-7.5-2.3c-2.8-0.7-5.6-1.4-8.5-2.2c-2.9-0.7-5.8-1.6-8.6-2.7c-2.8-1.1-5.3-2.4-7.5-4.1c-2.2-1.7-4-3.8-5.4-6.3
			c-1.4-2.5-2-5.6-2-9.2c0-4,0.9-7.6,2.6-10.5c1.7-3,4-5.5,6.8-7.5c2.8-2,6-3.5,9.5-4.4c3.5-1,7.1-1.4,10.6-1.4
			c4.1,0,8.1,0.5,11.9,1.4c3.8,0.9,7.2,2.4,10.1,4.5c2.9,2.1,5.3,4.7,7,7.9c1.7,3.2,2.6,7.1,2.6,11.7H1007c-0.1-2.4-0.6-4.3-1.5-5.9
			c-0.8-1.5-2-2.8-3.4-3.6c-1.4-0.9-3-1.5-4.8-1.9c-1.8-0.4-3.8-0.6-5.9-0.6c-1.4,0-2.8,0.1-4.2,0.4c-1.4,0.3-2.7,0.8-3.8,1.5
			c-1.1,0.7-2.1,1.7-2.8,2.8c-0.7,1.1-1.1,2.5-1.1,4.2c0,1.5,0.3,2.8,0.9,3.8c0.6,1,1.7,1.8,3.5,2.7c1.7,0.8,4.1,1.6,7.2,2.4
			c3.1,0.8,7,1.8,12,3.1c1.5,0.3,3.5,0.8,6.1,1.6c2.6,0.8,5.2,2,7.8,3.7c2.6,1.7,4.8,4,6.7,6.8c1.9,2.8,2.8,6.5,2.8,10.9
			c0,3.6-0.7,7-2.1,10c-1.4,3.1-3.5,5.8-6.2,8c-2.8,2.2-6.2,4-10.3,5.2c-4.1,1.3-8.8,1.9-14.2,1.9c-4.3,0-8.6-0.5-12.6-1.6
			c-4.1-1.1-7.7-2.7-10.8-5c-3.1-2.3-5.6-5.2-7.5-8.7c-1.8-3.5-2.7-7.7-2.7-12.6h16.8C976.9,285.9,977.3,288.2,978.3,290z"/>
		<path class="st0" d="M1087.3,251.6c-1-1.7-2.3-3.1-3.9-4.4c-1.5-1.3-3.3-2.2-5.2-2.9c-2-0.7-4-1-6.1-1c-3.9,0-7.2,0.8-9.9,2.3
			c-2.7,1.5-4.9,3.5-6.6,6.1c-1.7,2.5-2.9,5.4-3.7,8.7c-0.8,3.2-1.2,6.6-1.2,10c0,3.3,0.4,6.5,1.2,9.7c0.8,3.1,2,5.9,3.7,8.4
			c1.7,2.5,3.9,4.5,6.6,6c2.7,1.5,6,2.3,9.9,2.3c5.3,0,9.4-1.6,12.4-4.9c3-3.2,4.8-7.5,5.5-12.8h16.8c-0.4,4.9-1.6,9.4-3.4,13.4
			c-1.8,4-4.3,7.4-7.3,10.2c-3,2.8-6.6,4.9-10.6,6.4c-4,1.5-8.5,2.2-13.4,2.2c-6,0-11.5-1-16.3-3.1c-4.8-2.1-8.9-5-12.2-8.7
			c-3.3-3.7-5.9-8-7.6-13c-1.8-5-2.7-10.3-2.7-16.1c0-5.9,0.9-11.4,2.7-16.4c1.8-5,4.3-9.4,7.6-13.2c3.3-3.8,7.4-6.7,12.2-8.8
			c4.8-2.1,10.3-3.2,16.3-3.2c4.3,0,8.4,0.6,12.3,1.9c3.9,1.3,7.3,3.1,10.4,5.5c3.1,2.4,5.6,5.4,7.6,8.9c2,3.5,3.2,7.6,3.8,12.1
			h-16.8C1089,255.1,1088.3,253.3,1087.3,251.6z"/>
		<path class="st0" d="M1117.8,253.9c1.8-5,4.3-9.4,7.6-13.2c3.3-3.8,7.4-6.7,12.2-8.8c4.8-2.1,10.3-3.2,16.3-3.2
			c6.1,0,11.6,1.1,16.3,3.2c4.8,2.1,8.8,5.1,12.1,8.8c3.3,3.8,5.9,8.2,7.6,13.2c1.8,5,2.7,10.5,2.7,16.4c0,5.7-0.9,11.1-2.7,16.1
			c-1.8,5-4.3,9.3-7.6,13c-3.3,3.7-7.4,6.6-12.1,8.7c-4.8,2.1-10.2,3.1-16.3,3.1c-6,0-11.5-1-16.3-3.1c-4.8-2.1-8.9-5-12.2-8.7
			c-3.3-3.7-5.9-8-7.6-13c-1.8-5-2.7-10.3-2.7-16.1C1115.1,264.5,1116,259,1117.8,253.9z M1133.6,280c0.8,3.1,2,5.9,3.7,8.4
			c1.7,2.5,3.9,4.5,6.6,6c2.7,1.5,6,2.3,9.9,2.3c3.9,0,7.2-0.8,9.9-2.3c2.7-1.5,4.9-3.5,6.6-6c1.7-2.5,2.9-5.3,3.7-8.4
			c0.8-3.1,1.2-6.3,1.2-9.7c0-3.5-0.4-6.8-1.2-10c-0.8-3.2-2-6.1-3.7-8.7c-1.7-2.5-3.9-4.6-6.6-6.1c-2.7-1.5-6-2.3-9.9-2.3
			c-3.9,0-7.2,0.8-9.9,2.3c-2.7,1.5-4.9,3.5-6.6,6.1c-1.7,2.5-2.9,5.4-3.7,8.7c-0.8,3.2-1.2,6.6-1.2,10
			C1132.5,273.7,1132.9,276.9,1133.6,280z"/>
		<path class="st0" d="M1221.6,309.4l-25.5-78.8h17.8l17.6,55.4h0.2l17.8-55.4h17.9l-26.2,78.8H1221.6z"/>
		<path class="st0" d="M1333,230.6v14.6h-41.6v16.9h38.2v13.5h-38.2v19.3h42.5v14.6H1274v-78.8H1333z"/>
		<path class="st0" d="M1388.1,230.6c3.5,0,6.7,0.6,9.6,1.7c2.8,1.1,5.3,2.7,7.3,4.7c2,2,3.6,4.3,4.6,6.9c1.1,2.6,1.6,5.4,1.6,8.4
			c0,4.6-1,8.7-2.9,12c-2,3.4-5.1,6-9.6,7.7v0.2c2.1,0.6,3.9,1.5,5.3,2.7c1.4,1.2,2.5,2.7,3.4,4.3c0.9,1.7,1.5,3.5,1.9,5.5
			c0.4,2,0.7,4,0.8,6c0.1,1.3,0.1,2.7,0.2,4.4c0.1,1.7,0.2,3.4,0.4,5.2c0.2,1.8,0.5,3.4,0.9,5c0.4,1.6,1,2.9,1.8,4h-17.3
			c-1-2.5-1.5-5.5-1.8-8.9c-0.2-3.5-0.6-6.8-1-9.9c-0.6-4.1-1.8-7.1-3.8-9.1c-1.9-1.9-5-2.9-9.4-2.9h-17.3v30.8h-17.3v-78.8H1388.1z
			 M1381.9,266.3c4,0,7-0.9,8.9-2.7c2-1.8,3-4.6,3-8.6c0-3.8-1-6.6-3-8.3c-2-1.7-5-2.6-8.9-2.6h-19v22.2H1381.9z"/>
		<path class="st0" d="M1412.7,230.6h19.4l18.4,31.1l18.3-31.1h19.3l-29.3,48.6v30.3h-17.3v-30.7L1412.7,230.6z"/>
		<path class="st0" d="M1626.3,196.8v20.8h-59.5v24.1h54.6V261h-54.6v27.6h60.7v20.8H1542V196.8H1626.3z"/>
		<path class="st0" d="M1658.2,230.6l32.9,52.9h0.2v-52.9h16.2v78.8h-17.3l-32.8-52.8h-0.2v52.8H1641v-78.8H1658.2z"/>
		<path class="st0" d="M1769.5,308.8c-3.8,1.6-7.5,2.4-11.4,2.4c-6,0-11.5-1-16.3-3.1c-4.8-2.1-8.9-5-12.2-8.7
			c-3.3-3.7-5.9-8-7.6-13c-1.8-5-2.7-10.3-2.7-16.1c0-5.9,0.9-11.4,2.7-16.4c1.8-5,4.3-9.4,7.6-13.2c3.3-3.8,7.4-6.7,12.2-8.8
			c4.8-2.1,10.3-3.2,16.3-3.2c4,0,8,0.6,11.8,1.8c3.8,1.2,7.2,3,10.3,5.4c3.1,2.4,5.6,5.3,7.6,8.7c2,3.5,3.2,7.4,3.6,11.9h-16.6
			c-1-4.4-3-7.7-6-9.9c-2.9-2.2-6.5-3.3-10.7-3.3c-3.9,0-7.2,0.8-9.9,2.3c-2.7,1.5-4.9,3.5-6.6,6.1c-1.7,2.5-2.9,5.4-3.7,8.7
			c-0.8,3.2-1.2,6.6-1.2,10c0,3.3,0.4,6.5,1.2,9.7c0.8,3.1,2,5.9,3.7,8.4c1.7,2.5,3.9,4.5,6.6,6c2.7,1.5,6,2.3,9.9,2.3
			c5.7,0,10.2-1.5,13.3-4.4c3.1-2.9,5-7.1,5.5-12.6h-17.4v-12.9h33.1v42.6h-11l-1.8-8.9C1776.7,304.5,1773.3,307.2,1769.5,308.8z"/>
		<path class="st0" d="M1824,230.6v78.8h-17.3v-78.8H1824z"/>
		<path class="st0" d="M1856.4,230.6l32.9,52.9h0.2v-52.9h16.2v78.8h-17.3l-32.8-52.8h-0.2v52.8h-16.2v-78.8H1856.4z"/>
		<path class="st0" d="M1980,230.6v14.6h-41.6v16.9h38.2v13.5h-38.2v19.3h42.5v14.6H1921v-78.8H1980z"/>
	</g>
	<g>
		<path class="st4" d="M508.2,196.8c7.3,0,14,1.2,20.3,3.5c6.3,2.3,11.7,5.8,16.2,10.4c4.6,4.6,8.1,10.4,10.7,17.4
			c2.6,6.9,3.9,15.1,3.9,24.5c0,8.2-1.1,15.8-3.2,22.7c-2.1,6.9-5.3,12.9-9.5,18c-4.3,5-9.6,9-15.9,11.9c-6.4,2.9-13.9,4.3-22.5,4.3
			h-48.6V196.8H508.2z M506.5,288.6c3.6,0,7-0.6,10.4-1.7c3.4-1.2,6.4-3.1,9-5.8c2.6-2.7,4.7-6.2,6.3-10.5c1.6-4.3,2.4-9.6,2.4-15.8
			c0-5.7-0.6-10.8-1.7-15.4c-1.1-4.6-2.9-8.5-5.4-11.8c-2.5-3.3-5.9-5.8-10-7.5c-4.2-1.7-9.3-2.6-15.4-2.6h-17.7v71H506.5z"/>
		<path class="st4" d="M612.6,230.6l29.5,78.8h-18l-6-17.6h-29.5l-6.2,17.6H565l29.8-78.8H612.6z M613.6,279l-9.9-28.9h-0.2
			L593.1,279H613.6z"/>
		<path class="st4" d="M632.6,245.2v-14.6h64.6v14.6h-23.6v64.3h-17.3v-64.3H632.6z"/>
		<path class="st4" d="M735.4,230.6l29.5,78.8h-18l-6-17.6h-29.5l-6.2,17.6h-17.4l29.8-78.8H735.4z M736.4,279l-9.9-28.9h-0.2
			L715.9,279H736.4z"/>
		<path class="st4" d="M867.4,196.8c7.3,0,14,1.2,20.3,3.5c6.3,2.3,11.7,5.8,16.2,10.4c4.6,4.6,8.1,10.4,10.7,17.4
			c2.6,6.9,3.9,15.1,3.9,24.5c0,8.2-1.1,15.8-3.2,22.7c-2.1,6.9-5.3,12.9-9.5,18c-4.3,5-9.6,9-15.9,11.9c-6.4,2.9-13.9,4.3-22.5,4.3
			h-48.6V196.8H867.4z M865.7,288.6c3.6,0,7-0.6,10.4-1.7c3.4-1.2,6.4-3.1,9-5.8c2.6-2.7,4.7-6.2,6.3-10.5c1.6-4.3,2.4-9.6,2.4-15.8
			c0-5.7-0.6-10.8-1.7-15.4c-1.1-4.6-2.9-8.5-5.4-11.8c-2.5-3.3-5.9-5.8-10-7.5c-4.2-1.7-9.3-2.6-15.4-2.6h-17.7v71H865.7z"/>
		<path class="st4" d="M949.8,230.6v78.8h-17.3v-78.8H949.8z"/>
		<path class="st4" d="M978.3,290c1,1.8,2.2,3.3,3.8,4.5c1.6,1.1,3.4,2,5.6,2.5c2.1,0.6,4.3,0.8,6.6,0.8c1.5,0,3.2-0.1,5-0.4
			c1.8-0.3,3.4-0.8,5-1.5c1.5-0.7,2.8-1.7,3.9-3c1-1.3,1.5-2.9,1.5-4.9c0-2.1-0.7-3.9-2-5.2c-1.4-1.3-3.1-2.4-5.4-3.3
			c-2.2-0.9-4.7-1.7-7.5-2.3c-2.8-0.7-5.6-1.4-8.5-2.2c-2.9-0.7-5.8-1.6-8.6-2.7c-2.8-1.1-5.3-2.4-7.5-4.1c-2.2-1.7-4-3.8-5.4-6.3
			c-1.4-2.5-2-5.6-2-9.2c0-4,0.9-7.6,2.6-10.5c1.7-3,4-5.5,6.8-7.5c2.8-2,6-3.5,9.5-4.4c3.5-1,7.1-1.4,10.6-1.4
			c4.1,0,8.1,0.5,11.9,1.4c3.8,0.9,7.2,2.4,10.1,4.5c2.9,2.1,5.3,4.7,7,7.9c1.7,3.2,2.6,7.1,2.6,11.7H1007c-0.1-2.4-0.6-4.3-1.5-5.9
			c-0.8-1.5-2-2.8-3.4-3.6c-1.4-0.9-3-1.5-4.8-1.9c-1.8-0.4-3.8-0.6-5.9-0.6c-1.4,0-2.8,0.1-4.2,0.4c-1.4,0.3-2.7,0.8-3.8,1.5
			c-1.1,0.7-2.1,1.7-2.8,2.8c-0.7,1.1-1.1,2.5-1.1,4.2c0,1.5,0.3,2.8,0.9,3.8c0.6,1,1.7,1.8,3.5,2.7c1.7,0.8,4.1,1.6,7.2,2.4
			c3.1,0.8,7,1.8,12,3.1c1.5,0.3,3.5,0.8,6.1,1.6c2.6,0.8,5.2,2,7.8,3.7c2.6,1.7,4.8,4,6.7,6.8c1.9,2.8,2.8,6.5,2.8,10.9
			c0,3.6-0.7,7-2.1,10c-1.4,3.1-3.5,5.8-6.2,8c-2.8,2.2-6.2,4-10.3,5.2c-4.1,1.3-8.8,1.9-14.2,1.9c-4.3,0-8.6-0.5-12.6-1.6
			c-4.1-1.1-7.7-2.7-10.8-5c-3.1-2.3-5.6-5.2-7.5-8.7c-1.8-3.5-2.7-7.7-2.7-12.6h16.8C976.9,285.9,977.3,288.2,978.3,290z"/>
		<path class="st4" d="M1087.3,251.6c-1-1.7-2.3-3.1-3.9-4.4c-1.5-1.3-3.3-2.2-5.2-2.9c-2-0.7-4-1-6.1-1c-3.9,0-7.2,0.8-9.9,2.3
			c-2.7,1.5-4.9,3.5-6.6,6.1c-1.7,2.5-2.9,5.4-3.7,8.7c-0.8,3.2-1.2,6.6-1.2,10c0,3.3,0.4,6.5,1.2,9.7c0.8,3.1,2,5.9,3.7,8.4
			c1.7,2.5,3.9,4.5,6.6,6c2.7,1.5,6,2.3,9.9,2.3c5.3,0,9.4-1.6,12.4-4.9c3-3.2,4.8-7.5,5.5-12.8h16.8c-0.4,4.9-1.6,9.4-3.4,13.4
			c-1.8,4-4.3,7.4-7.3,10.2c-3,2.8-6.6,4.9-10.6,6.4c-4,1.5-8.5,2.2-13.4,2.2c-6,0-11.5-1-16.3-3.1c-4.8-2.1-8.9-5-12.2-8.7
			c-3.3-3.7-5.9-8-7.6-13c-1.8-5-2.7-10.3-2.7-16.1c0-5.9,0.9-11.4,2.7-16.4c1.8-5,4.3-9.4,7.6-13.2c3.3-3.8,7.4-6.7,12.2-8.8
			c4.8-2.1,10.3-3.2,16.3-3.2c4.3,0,8.4,0.6,12.3,1.9c3.9,1.3,7.3,3.1,10.4,5.5c3.1,2.4,5.6,5.4,7.6,8.9c2,3.5,3.2,7.6,3.8,12.1
			h-16.8C1089,255.1,1088.3,253.3,1087.3,251.6z"/>
		<path class="st4" d="M1117.8,253.9c1.8-5,4.3-9.4,7.6-13.2c3.3-3.8,7.4-6.7,12.2-8.8c4.8-2.1,10.3-3.2,16.3-3.2
			c6.1,0,11.6,1.1,16.3,3.2c4.8,2.1,8.8,5.1,12.1,8.8c3.3,3.8,5.9,8.2,7.6,13.2c1.8,5,2.7,10.5,2.7,16.4c0,5.7-0.9,11.1-2.7,16.1
			c-1.8,5-4.3,9.3-7.6,13c-3.3,3.7-7.4,6.6-12.1,8.7c-4.8,2.1-10.2,3.1-16.3,3.1c-6,0-11.5-1-16.3-3.1c-4.8-2.1-8.9-5-12.2-8.7
			c-3.3-3.7-5.9-8-7.6-13c-1.8-5-2.7-10.3-2.7-16.1C1115.1,264.5,1116,259,1117.8,253.9z M1133.6,280c0.8,3.1,2,5.9,3.7,8.4
			c1.7,2.5,3.9,4.5,6.6,6c2.7,1.5,6,2.3,9.9,2.3c3.9,0,7.2-0.8,9.9-2.3c2.7-1.5,4.9-3.5,6.6-6c1.7-2.5,2.9-5.3,3.7-8.4
			c0.8-3.1,1.2-6.3,1.2-9.7c0-3.5-0.4-6.8-1.2-10c-0.8-3.2-2-6.1-3.7-8.7c-1.7-2.5-3.9-4.6-6.6-6.1c-2.7-1.5-6-2.3-9.9-2.3
			c-3.9,0-7.2,0.8-9.9,2.3c-2.7,1.5-4.9,3.5-6.6,6.1c-1.7,2.5-2.9,5.4-3.7,8.7c-0.8,3.2-1.2,6.6-1.2,10
			C1132.5,273.7,1132.9,276.9,1133.6,280z"/>
		<path class="st4" d="M1221.6,309.4l-25.5-78.8h17.8l17.6,55.4h0.2l17.8-55.4h17.9l-26.2,78.8H1221.6z"/>
		<path class="st4" d="M1333,230.6v14.6h-41.6v16.9h38.2v13.5h-38.2v19.3h42.5v14.6H1274v-78.8H1333z"/>
		<path class="st4" d="M1388.1,230.6c3.5,0,6.7,0.6,9.6,1.7c2.8,1.1,5.3,2.7,7.3,4.7c2,2,3.6,4.3,4.6,6.9c1.1,2.6,1.6,5.4,1.6,8.4
			c0,4.6-1,8.7-2.9,12c-2,3.4-5.1,6-9.6,7.7v0.2c2.1,0.6,3.9,1.5,5.3,2.7c1.4,1.2,2.5,2.7,3.4,4.3c0.9,1.7,1.5,3.5,1.9,5.5
			c0.4,2,0.7,4,0.8,6c0.1,1.3,0.1,2.7,0.2,4.4c0.1,1.7,0.2,3.4,0.4,5.2c0.2,1.8,0.5,3.4,0.9,5c0.4,1.6,1,2.9,1.8,4h-17.3
			c-1-2.5-1.5-5.5-1.8-8.9c-0.2-3.5-0.6-6.8-1-9.9c-0.6-4.1-1.8-7.1-3.8-9.1c-1.9-1.9-5-2.9-9.4-2.9h-17.3v30.8h-17.3v-78.8H1388.1z
			 M1381.9,266.3c4,0,7-0.9,8.9-2.7c2-1.8,3-4.6,3-8.6c0-3.8-1-6.6-3-8.3c-2-1.7-5-2.6-8.9-2.6h-19v22.2H1381.9z"/>
		<path class="st4" d="M1412.7,230.6h19.4l18.4,31.1l18.3-31.1h19.3l-29.3,48.6v30.3h-17.3v-30.7L1412.7,230.6z"/>
		<path class="st4" d="M1626.3,196.8v20.8h-59.5v24.1h54.6V261h-54.6v27.6h60.7v20.8H1542V196.8H1626.3z"/>
		<path class="st4" d="M1658.2,230.6l32.9,52.9h0.2v-52.9h16.2v78.8h-17.3l-32.8-52.8h-0.2v52.8H1641v-78.8H1658.2z"/>
		<path class="st4" d="M1769.5,308.8c-3.8,1.6-7.5,2.4-11.4,2.4c-6,0-11.5-1-16.3-3.1c-4.8-2.1-8.9-5-12.2-8.7
			c-3.3-3.7-5.9-8-7.6-13c-1.8-5-2.7-10.3-2.7-16.1c0-5.9,0.9-11.4,2.7-16.4c1.8-5,4.3-9.4,7.6-13.2c3.3-3.8,7.4-6.7,12.2-8.8
			c4.8-2.1,10.3-3.2,16.3-3.2c4,0,8,0.6,11.8,1.8c3.8,1.2,7.2,3,10.3,5.4c3.1,2.4,5.6,5.3,7.6,8.7c2,3.5,3.2,7.4,3.6,11.9h-16.6
			c-1-4.4-3-7.7-6-9.9c-2.9-2.2-6.5-3.3-10.7-3.3c-3.9,0-7.2,0.8-9.9,2.3c-2.7,1.5-4.9,3.5-6.6,6.1c-1.7,2.5-2.9,5.4-3.7,8.7
			c-0.8,3.2-1.2,6.6-1.2,10c0,3.3,0.4,6.5,1.2,9.7c0.8,3.1,2,5.9,3.7,8.4c1.7,2.5,3.9,4.5,6.6,6c2.7,1.5,6,2.3,9.9,2.3
			c5.7,0,10.2-1.5,13.3-4.4c3.1-2.9,5-7.1,5.5-12.6h-17.4v-12.9h33.1v42.6h-11l-1.8-8.9C1776.7,304.5,1773.3,307.2,1769.5,308.8z"/>
		<path class="st4" d="M1824,230.6v78.8h-17.3v-78.8H1824z"/>
		<path class="st4" d="M1856.4,230.6l32.9,52.9h0.2v-52.9h16.2v78.8h-17.3l-32.8-52.8h-0.2v52.8h-16.2v-78.8H1856.4z"/>
		<path class="st4" d="M1980,230.6v14.6h-41.6v16.9h38.2v13.5h-38.2v19.3h42.5v14.6H1921v-78.8H1980z"/>
	</g>
	<g>
		<path class="st0" d="M508.2,196.8c7.3,0,14,1.2,20.3,3.5c6.3,2.3,11.7,5.8,16.2,10.4c4.6,4.6,8.1,10.4,10.7,17.4
			c2.6,6.9,3.9,15.1,3.9,24.5c0,8.2-1.1,15.8-3.2,22.7c-2.1,6.9-5.3,12.9-9.5,18c-4.3,5-9.6,9-15.9,11.9c-6.4,2.9-13.9,4.3-22.5,4.3
			h-48.6V196.8H508.2z M506.5,288.6c3.6,0,7-0.6,10.4-1.7c3.4-1.2,6.4-3.1,9-5.8c2.6-2.7,4.7-6.2,6.3-10.5c1.6-4.3,2.4-9.6,2.4-15.8
			c0-5.7-0.6-10.8-1.7-15.4c-1.1-4.6-2.9-8.5-5.4-11.8c-2.5-3.3-5.9-5.8-10-7.5c-4.2-1.7-9.3-2.6-15.4-2.6h-17.7v71H506.5z"/>
		<path class="st0" d="M612.6,230.6l29.5,78.8h-18l-6-17.6h-29.5l-6.2,17.6H565l29.8-78.8H612.6z M613.6,279l-9.9-28.9h-0.2
			L593.1,279H613.6z"/>
		<path class="st0" d="M632.6,245.2v-14.6h64.6v14.6h-23.6v64.3h-17.3v-64.3H632.6z"/>
		<path class="st0" d="M735.4,230.6l29.5,78.8h-18l-6-17.6h-29.5l-6.2,17.6h-17.4l29.8-78.8H735.4z M736.4,279l-9.9-28.9h-0.2
			L715.9,279H736.4z"/>
		<path class="st0" d="M867.4,196.8c7.3,0,14,1.2,20.3,3.5c6.3,2.3,11.7,5.8,16.2,10.4c4.6,4.6,8.1,10.4,10.7,17.4
			c2.6,6.9,3.9,15.1,3.9,24.5c0,8.2-1.1,15.8-3.2,22.7c-2.1,6.9-5.3,12.9-9.5,18c-4.3,5-9.6,9-15.9,11.9c-6.4,2.9-13.9,4.3-22.5,4.3
			h-48.6V196.8H867.4z M865.7,288.6c3.6,0,7-0.6,10.4-1.7c3.4-1.2,6.4-3.1,9-5.8c2.6-2.7,4.7-6.2,6.3-10.5c1.6-4.3,2.4-9.6,2.4-15.8
			c0-5.7-0.6-10.8-1.7-15.4c-1.1-4.6-2.9-8.5-5.4-11.8c-2.5-3.3-5.9-5.8-10-7.5c-4.2-1.7-9.3-2.6-15.4-2.6h-17.7v71H865.7z"/>
		<path class="st0" d="M949.8,230.6v78.8h-17.3v-78.8H949.8z"/>
		<path class="st0" d="M978.3,290c1,1.8,2.2,3.3,3.8,4.5c1.6,1.1,3.4,2,5.6,2.5c2.1,0.6,4.3,0.8,6.6,0.8c1.5,0,3.2-0.1,5-0.4
			c1.8-0.3,3.4-0.8,5-1.5c1.5-0.7,2.8-1.7,3.9-3c1-1.3,1.5-2.9,1.5-4.9c0-2.1-0.7-3.9-2-5.2c-1.4-1.3-3.1-2.4-5.4-3.3
			c-2.2-0.9-4.7-1.7-7.5-2.3c-2.8-0.7-5.6-1.4-8.5-2.2c-2.9-0.7-5.8-1.6-8.6-2.7c-2.8-1.1-5.3-2.4-7.5-4.1c-2.2-1.7-4-3.8-5.4-6.3
			c-1.4-2.5-2-5.6-2-9.2c0-4,0.9-7.6,2.6-10.5c1.7-3,4-5.5,6.8-7.5c2.8-2,6-3.5,9.5-4.4c3.5-1,7.1-1.4,10.6-1.4
			c4.1,0,8.1,0.5,11.9,1.4c3.8,0.9,7.2,2.4,10.1,4.5c2.9,2.1,5.3,4.7,7,7.9c1.7,3.2,2.6,7.1,2.6,11.7H1007c-0.1-2.4-0.6-4.3-1.5-5.9
			c-0.8-1.5-2-2.8-3.4-3.6c-1.4-0.9-3-1.5-4.8-1.9c-1.8-0.4-3.8-0.6-5.9-0.6c-1.4,0-2.8,0.1-4.2,0.4c-1.4,0.3-2.7,0.8-3.8,1.5
			c-1.1,0.7-2.1,1.7-2.8,2.8c-0.7,1.1-1.1,2.5-1.1,4.2c0,1.5,0.3,2.8,0.9,3.8c0.6,1,1.7,1.8,3.5,2.7c1.7,0.8,4.1,1.6,7.2,2.4
			c3.1,0.8,7,1.8,12,3.1c1.5,0.3,3.5,0.8,6.1,1.6c2.6,0.8,5.2,2,7.8,3.7c2.6,1.7,4.8,4,6.7,6.8c1.9,2.8,2.8,6.5,2.8,10.9
			c0,3.6-0.7,7-2.1,10c-1.4,3.1-3.5,5.8-6.2,8c-2.8,2.2-6.2,4-10.3,5.2c-4.1,1.3-8.8,1.9-14.2,1.9c-4.3,0-8.6-0.5-12.6-1.6
			c-4.1-1.1-7.7-2.7-10.8-5c-3.1-2.3-5.6-5.2-7.5-8.7c-1.8-3.5-2.7-7.7-2.7-12.6h16.8C976.9,285.9,977.3,288.2,978.3,290z"/>
		<path class="st0" d="M1087.3,251.6c-1-1.7-2.3-3.1-3.9-4.4c-1.5-1.3-3.3-2.2-5.2-2.9c-2-0.7-4-1-6.1-1c-3.9,0-7.2,0.8-9.9,2.3
			c-2.7,1.5-4.9,3.5-6.6,6.1c-1.7,2.5-2.9,5.4-3.7,8.7c-0.8,3.2-1.2,6.6-1.2,10c0,3.3,0.4,6.5,1.2,9.7c0.8,3.1,2,5.9,3.7,8.4
			c1.7,2.5,3.9,4.5,6.6,6c2.7,1.5,6,2.3,9.9,2.3c5.3,0,9.4-1.6,12.4-4.9c3-3.2,4.8-7.5,5.5-12.8h16.8c-0.4,4.9-1.6,9.4-3.4,13.4
			c-1.8,4-4.3,7.4-7.3,10.2c-3,2.8-6.6,4.9-10.6,6.4c-4,1.5-8.5,2.2-13.4,2.2c-6,0-11.5-1-16.3-3.1c-4.8-2.1-8.9-5-12.2-8.7
			c-3.3-3.7-5.9-8-7.6-13c-1.8-5-2.7-10.3-2.7-16.1c0-5.9,0.9-11.4,2.7-16.4c1.8-5,4.3-9.4,7.6-13.2c3.3-3.8,7.4-6.7,12.2-8.8
			c4.8-2.1,10.3-3.2,16.3-3.2c4.3,0,8.4,0.6,12.3,1.9c3.9,1.3,7.3,3.1,10.4,5.5c3.1,2.4,5.6,5.4,7.6,8.9c2,3.5,3.2,7.6,3.8,12.1
			h-16.8C1089,255.1,1088.3,253.3,1087.3,251.6z"/>
		<path class="st0" d="M1117.8,253.9c1.8-5,4.3-9.4,7.6-13.2c3.3-3.8,7.4-6.7,12.2-8.8c4.8-2.1,10.3-3.2,16.3-3.2
			c6.1,0,11.6,1.1,16.3,3.2c4.8,2.1,8.8,5.1,12.1,8.8c3.3,3.8,5.9,8.2,7.6,13.2c1.8,5,2.7,10.5,2.7,16.4c0,5.7-0.9,11.1-2.7,16.1
			c-1.8,5-4.3,9.3-7.6,13c-3.3,3.7-7.4,6.6-12.1,8.7c-4.8,2.1-10.2,3.1-16.3,3.1c-6,0-11.5-1-16.3-3.1c-4.8-2.1-8.9-5-12.2-8.7
			c-3.3-3.7-5.9-8-7.6-13c-1.8-5-2.7-10.3-2.7-16.1C1115.1,264.5,1116,259,1117.8,253.9z M1133.6,280c0.8,3.1,2,5.9,3.7,8.4
			c1.7,2.5,3.9,4.5,6.6,6c2.7,1.5,6,2.3,9.9,2.3c3.9,0,7.2-0.8,9.9-2.3c2.7-1.5,4.9-3.5,6.6-6c1.7-2.5,2.9-5.3,3.7-8.4
			c0.8-3.1,1.2-6.3,1.2-9.7c0-3.5-0.4-6.8-1.2-10c-0.8-3.2-2-6.1-3.7-8.7c-1.7-2.5-3.9-4.6-6.6-6.1c-2.7-1.5-6-2.3-9.9-2.3
			c-3.9,0-7.2,0.8-9.9,2.3c-2.7,1.5-4.9,3.5-6.6,6.1c-1.7,2.5-2.9,5.4-3.7,8.7c-0.8,3.2-1.2,6.6-1.2,10
			C1132.5,273.7,1132.9,276.9,1133.6,280z"/>
		<path class="st0" d="M1221.6,309.4l-25.5-78.8h17.8l17.6,55.4h0.2l17.8-55.4h17.9l-26.2,78.8H1221.6z"/>
		<path class="st0" d="M1333,230.6v14.6h-41.6v16.9h38.2v13.5h-38.2v19.3h42.5v14.6H1274v-78.8H1333z"/>
		<path class="st0" d="M1388.1,230.6c3.5,0,6.7,0.6,9.6,1.7c2.8,1.1,5.3,2.7,7.3,4.7c2,2,3.6,4.3,4.6,6.9c1.1,2.6,1.6,5.4,1.6,8.4
			c0,4.6-1,8.7-2.9,12c-2,3.4-5.1,6-9.6,7.7v0.2c2.1,0.6,3.9,1.5,5.3,2.7c1.4,1.2,2.5,2.7,3.4,4.3c0.9,1.7,1.5,3.5,1.9,5.5
			c0.4,2,0.7,4,0.8,6c0.1,1.3,0.1,2.7,0.2,4.4c0.1,1.7,0.2,3.4,0.4,5.2c0.2,1.8,0.5,3.4,0.9,5c0.4,1.6,1,2.9,1.8,4h-17.3
			c-1-2.5-1.5-5.5-1.8-8.9c-0.2-3.5-0.6-6.8-1-9.9c-0.6-4.1-1.8-7.1-3.8-9.1c-1.9-1.9-5-2.9-9.4-2.9h-17.3v30.8h-17.3v-78.8H1388.1z
			 M1381.9,266.3c4,0,7-0.9,8.9-2.7c2-1.8,3-4.6,3-8.6c0-3.8-1-6.6-3-8.3c-2-1.7-5-2.6-8.9-2.6h-19v22.2H1381.9z"/>
		<path class="st0" d="M1412.7,230.6h19.4l18.4,31.1l18.3-31.1h19.3l-29.3,48.6v30.3h-17.3v-30.7L1412.7,230.6z"/>
		<path class="st0" d="M1626.3,196.8v20.8h-59.5v24.1h54.6V261h-54.6v27.6h60.7v20.8H1542V196.8H1626.3z"/>
		<path class="st0" d="M1658.2,230.6l32.9,52.9h0.2v-52.9h16.2v78.8h-17.3l-32.8-52.8h-0.2v52.8H1641v-78.8H1658.2z"/>
		<path class="st0" d="M1769.5,308.8c-3.8,1.6-7.5,2.4-11.4,2.4c-6,0-11.5-1-16.3-3.1c-4.8-2.1-8.9-5-12.2-8.7
			c-3.3-3.7-5.9-8-7.6-13c-1.8-5-2.7-10.3-2.7-16.1c0-5.9,0.9-11.4,2.7-16.4c1.8-5,4.3-9.4,7.6-13.2c3.3-3.8,7.4-6.7,12.2-8.8
			c4.8-2.1,10.3-3.2,16.3-3.2c4,0,8,0.6,11.8,1.8c3.8,1.2,7.2,3,10.3,5.4c3.1,2.4,5.6,5.3,7.6,8.7c2,3.5,3.2,7.4,3.6,11.9h-16.6
			c-1-4.4-3-7.7-6-9.9c-2.9-2.2-6.5-3.3-10.7-3.3c-3.9,0-7.2,0.8-9.9,2.3c-2.7,1.5-4.9,3.5-6.6,6.1c-1.7,2.5-2.9,5.4-3.7,8.7
			c-0.8,3.2-1.2,6.6-1.2,10c0,3.3,0.4,6.5,1.2,9.7c0.8,3.1,2,5.9,3.7,8.4c1.7,2.5,3.9,4.5,6.6,6c2.7,1.5,6,2.3,9.9,2.3
			c5.7,0,10.2-1.5,13.3-4.4c3.1-2.9,5-7.1,5.5-12.6h-17.4v-12.9h33.1v42.6h-11l-1.8-8.9C1776.7,304.5,1773.3,307.2,1769.5,308.8z"/>
		<path class="st0" d="M1824,230.6v78.8h-17.3v-78.8H1824z"/>
		<path class="st0" d="M1856.4,230.6l32.9,52.9h0.2v-52.9h16.2v78.8h-17.3l-32.8-52.8h-0.2v52.8h-16.2v-78.8H1856.4z"/>
		<path class="st0" d="M1980,230.6v14.6h-41.6v16.9h38.2v13.5h-38.2v19.3h42.5v14.6H1921v-78.8H1980z"/>
	</g>
</g>
</svg>
