<?xml version="1.0" encoding="utf-8"?>
<!-- Generator: Adobe Illustrator 23.0.1, SVG Export Plug-In . SVG Version: 6.00 Build 0)  -->
<svg version="1.1" id="Layer_1_copy" xmlns="http://www.w3.org/2000/svg" xmlns:xlink="http://www.w3.org/1999/xlink" x="0px"
	 y="0px" viewBox="0 0 2034.5 844" style="enable-background:new 0 0 2034.5 844;" xml:space="preserve">
<style type="text/css">
	.st0{fill:#073372;}
	.st1{fill:#E8E8E8;}
	.st2{fill:#BACFE8;}
	.st3{fill:#2466C6;}
	.st4{fill:#F7A9B8;}
	.st5{fill:#E85275;}
	.st6{fill:#73E573;}
</style>
<path class="st0" d="M107.5,472.7c1.5-0.5,2.9-1.3,4.1-2.3c1.3-1,2.4-2.2,3.4-3.4c1-1.3,1.9-2.6,2.7-4c1.6-2.8,2.9-5.8,3.9-8.8
	c1-3,1.7-6.1,2.3-9.2c0.6-3.3,1.1-6.7,1.4-10c0.7,1.7,1.5,3.4,2.5,5c1.3,2.3,3.1,4.6,5.3,6.7c1.1,1.1,2.4,2.1,3.8,3.1
	c1.4,1,3,1.9,4.7,2.6c1.7,0.8,3.6,1.4,5.7,1.8c2,0.4,4.1,0.5,6.2,0.3c0.7-0.1,1.3-0.3,1.9-0.6c1.7-1,2-2.9,0.6-4.1l-0.6-0.5
	c-0.9-0.8-1.6-1.5-2.2-2.3c-0.6-0.7-1.1-1.5-1.6-2.2c-1-1.5-1.9-3.1-2.8-4.8c-0.5-0.8-0.9-1.7-1.3-2.6l-0.7-1.3
	c-0.2-0.5-0.5-0.9-0.7-1.3c-0.9-1.8-1.9-3.7-2.8-5.6c-0.3-0.6-0.6-1.3-0.9-1.9c2.2-1.1,4.2-2.4,6.1-3.9c1.3,2.2,2.8,4.2,4.6,6.3
	c2.1,2.4,4.6,4.7,7.5,6.8c0.4,0.3,0.7,0.5,1.1,0.8c0.4,0.3,0.7,0.5,1.1,0.8c0.4,0.2,0.8,0.5,1.2,0.7l1.2,0.7l1.2,0.7
	c0.4,0.2,0.8,0.4,1.3,0.7c0.4,0.2,0.9,0.4,1.3,0.6c0.4,0.2,0.9,0.4,1.3,0.6c1.8,0.8,3.7,1.5,5.6,2.1c1.9,0.6,3.9,1.1,6,1.5
	c2,0.4,4.1,0.7,6.2,0.8c2.1,0.2,4.1,0.2,6.2,0.1c1,0,2-0.1,3-0.2c1-0.1,2-0.2,3-0.4c2-0.3,3.8-0.8,5.6-1.3c1.1-0.3,2-1.1,2.3-2
	c0.5-1.5-0.8-3-2.9-3.4l-0.2,0c-3.4-0.6-6.5-1.1-9.4-1.9c-2.9-0.7-5.6-1.6-8.1-2.6c-5-2.1-9.3-4.7-13.4-7.8c-3.1-2.4-6-5.2-8.9-8
	c0.6,0.1,1.2,0.1,1.8,0.1c8.3,0,15.1-8.6,15.1-19.3s-6.7-19.3-15.1-19.3c-0.6,0-1.2,0-1.8,0.1c2.9-2.9,5.8-5.6,8.9-8
	c4-3.2,8.4-5.8,13.4-7.8c2.5-1,5.2-1.9,8.1-2.6c2.9-0.8,6-1.3,9.4-1.9l0.2,0c2.1-0.4,3.4-1.9,2.9-3.4c-0.3-0.9-1.2-1.6-2.3-2
	c-1.8-0.6-3.7-1-5.6-1.3c-1-0.2-2-0.3-3-0.4c-1-0.1-2-0.2-3-0.2c-2-0.1-4.1,0-6.2,0.1c-2.1,0.1-4.1,0.4-6.2,0.8c-2,0.4-4,0.9-6,1.5
	c-1.9,0.6-3.8,1.3-5.6,2.1c-0.5,0.2-0.9,0.4-1.3,0.6c-0.4,0.2-0.9,0.4-1.3,0.6c-0.4,0.2-0.9,0.4-1.3,0.7l-1.2,0.7l-1.2,0.7
	c-0.4,0.2-0.8,0.5-1.2,0.7c-0.4,0.2-0.8,0.5-1.1,0.8c-0.4,0.3-0.7,0.5-1.1,0.8c-2.9,2.1-5.4,4.4-7.5,6.8c-1.8,2-3.3,4.1-4.6,6.3
	c-1.9-1.5-3.9-2.8-6.1-3.9c0.3-0.6,0.6-1.3,0.9-1.9c0.9-1.9,1.8-3.8,2.8-5.6c0.2-0.5,0.5-0.9,0.7-1.3l0.7-1.3
	c0.4-0.9,0.9-1.7,1.3-2.6c0.9-1.7,1.8-3.3,2.8-4.8c0.5-0.8,1-1.5,1.6-2.2c0.6-0.8,1.3-1.5,2.2-2.3l0.6-0.5c1.4-1.3,1.1-3.1-0.6-4.1
	c-0.6-0.3-1.2-0.5-1.9-0.6c-2-0.2-4.1-0.1-6.2,0.3c-2,0.4-3.9,1-5.7,1.8c-1.7,0.8-3.3,1.7-4.7,2.6c-1.4,1-2.7,2-3.8,3.1
	c-2.2,2.1-4,4.4-5.3,6.7c-1.1,1.9-2,3.7-2.7,5.6c-0.3-2.6-0.7-5.2-1.2-7.8c-0.6-3.1-1.3-6.1-2.3-9.2c-1-3-2.2-6-3.9-8.8
	c-0.8-1.4-1.7-2.7-2.7-4c-1-1.3-2.2-2.4-3.4-3.4c-1.3-1-2.6-1.8-4.1-2.3c-1.5-0.5-3-0.7-4.5-0.4c-0.5,0.1-1,0.4-1.4,0.8
	c-1.3,1.3-1.4,3.8-0.4,5.4l0.4,0.6c0.7,1.1,1.2,2,1.6,3c0.4,1,0.8,1.9,1.2,2.9c0.7,2,1.4,4.1,2,6.3c0.3,1.1,0.7,2.2,1,3.4l0.5,1.7
	c0.2,0.6,0.3,1.2,0.5,1.8c0.7,2.4,1.4,4.8,2,7.4c0.7,2.7,1.4,5.5,2.1,8.3c-1.7,0.7-3.4,1.5-4.9,2.4c-0.1-0.4-0.3-0.9-0.4-1.3
	c-1-3.4-2.3-6.7-3.9-9.9c-1.6-3.2-3.4-6.2-5.5-8.9c-0.3-0.3-0.5-0.7-0.8-1c-0.3-0.3-0.5-0.7-0.8-1c-0.3-0.3-0.6-0.7-0.8-1l-0.9-0.9
	l-0.9-0.9c-0.3-0.3-0.6-0.6-0.9-0.9c-0.3-0.3-0.6-0.6-0.9-0.8c-0.3-0.3-0.6-0.5-1-0.8c-1.3-1.1-2.7-2-4.1-2.8
	c-1.4-0.8-2.9-1.5-4.3-2c-1.5-0.5-3-0.9-4.5-1.1c-1.5-0.2-3-0.3-4.5-0.1c-0.7,0-1.5,0.2-2.2,0.3c-0.7,0.2-1.4,0.3-2.2,0.5
	c-1.4,0.4-2.8,1-4.1,1.7c-0.8,0.5-1.4,1.4-1.6,2.6c-0.4,2,0.6,4,2.1,4.5l0.2,0c2.4,0.7,4.7,1.4,6.8,2.4c2.1,1,4,2.1,5.9,3.5
	c3.6,2.7,6.8,6.2,9.7,10.3c2.9,4.2,5.6,8.9,8.3,13.9c0.4,0.8,0.9,1.7,1.4,2.5c-3.8,5.1-6,11.2-6,17.9c0,7.2,2.6,13.8,6.9,19
	c-0.8,1.4-1.5,2.9-2.3,4.2c-2.7,5-5.4,9.7-8.3,13.9c-2.9,4.2-6.1,7.6-9.7,10.3c-1.8,1.3-3.8,2.5-5.9,3.5c-2.1,1-4.4,1.7-6.8,2.4
	l-0.2,0c-1.5,0.5-2.5,2.5-2.1,4.5c0.2,1.2,0.9,2.1,1.6,2.6c1.3,0.7,2.7,1.3,4.1,1.7c0.7,0.2,1.4,0.4,2.2,0.5
	c0.7,0.1,1.5,0.2,2.2,0.3c1.5,0.1,3,0.1,4.5-0.1c1.5-0.2,3-0.6,4.5-1.1c1.5-0.5,2.9-1.2,4.3-2c1.4-0.8,2.8-1.7,4.1-2.8
	c0.3-0.3,0.6-0.5,1-0.8c0.3-0.3,0.6-0.5,0.9-0.8c0.3-0.3,0.6-0.6,0.9-0.9l0.9-0.9l0.9-0.9c0.3-0.3,0.6-0.6,0.8-1
	c0.3-0.3,0.6-0.7,0.8-1c0.3-0.3,0.5-0.7,0.8-1c2.1-2.8,3.9-5.8,5.5-8.9c1.5-3.2,2.8-6.5,3.9-9.9c0.4-1.3,0.7-2.5,1-3.8
	c1.6,0.9,3.2,1.6,4.9,2.2c-0.9,3.7-1.8,7.4-2.7,10.9c-0.6,2.5-1.3,5-2,7.4c-0.2,0.6-0.3,1.2-0.5,1.8l-0.5,1.7
	c-0.3,1.1-0.7,2.3-1,3.4c-0.7,2.2-1.3,4.3-2,6.3c-0.4,1-0.7,2-1.2,2.9c-0.4,1-1,1.9-1.6,3l-0.4,0.6c-1,1.6-0.8,4.1,0.4,5.4
	c0.4,0.4,0.9,0.7,1.4,0.8C104.6,473.4,106.1,473.2,107.5,472.7z"/>
<g>
	<rect x="619" y="62.2" class="st1" width="277.4" height="203.5"/>
	<rect x="622.9" y="80" class="st2" width="269.5" height="181.8"/>
	<circle class="st3" cx="627.2" cy="71.1" r="4.5"/>
	<circle class="st3" cx="641.9" cy="71.1" r="4.5"/>
	<circle class="st3" cx="657" cy="71.1" r="4.5"/>
	<path class="st3" d="M774.9,133.1H640.6c-1.8,0-3.2-1.5-3.2-3.2l0,0c0-1.8,1.5-3.2,3.2-3.2h134.2c1.8,0,3.2,1.5,3.2,3.2l0,0
		C778.1,131.6,776.6,133.1,774.9,133.1z"/>
	<path class="st3" d="M774.9,156.9H640.6c-1.8,0-3.2-1.5-3.2-3.2v0c0-1.8,1.5-3.2,3.2-3.2h134.2c1.8,0,3.2,1.5,3.2,3.2v0
		C778.1,155.5,776.6,156.9,774.9,156.9z"/>
	<path class="st3" d="M774.9,180.7H640.6c-1.8,0-3.2-1.5-3.2-3.2l0,0c0-1.8,1.5-3.2,3.2-3.2h134.2c1.8,0,3.2,1.5,3.2,3.2l0,0
		C778.1,179.3,776.6,180.7,774.9,180.7z"/>
	<path class="st3" d="M774.9,204.6H640.6c-1.8,0-3.2-1.5-3.2-3.2v0c0-1.8,1.5-3.2,3.2-3.2h134.2c1.8,0,3.2,1.5,3.2,3.2v0
		C778.1,203.1,776.6,204.6,774.9,204.6z"/>
</g>
<g>
	<rect x="619" y="286.1" class="st1" width="277.4" height="203.5"/>
	<rect x="622.9" y="303.9" class="st2" width="269.5" height="181.8"/>
	<circle class="st3" cx="627.2" cy="294.9" r="4.5"/>
	<circle class="st3" cx="641.9" cy="294.9" r="4.5"/>
	<circle class="st3" cx="657" cy="294.9" r="4.5"/>
	<path class="st3" d="M774.9,356.9H640.6c-1.8,0-3.2-1.5-3.2-3.2l0,0c0-1.8,1.5-3.2,3.2-3.2h134.2c1.8,0,3.2,1.5,3.2,3.2l0,0
		C778.1,355.5,776.6,356.9,774.9,356.9z"/>
	<path class="st3" d="M774.9,380.8H640.6c-1.8,0-3.2-1.5-3.2-3.2l0,0c0-1.8,1.5-3.2,3.2-3.2h134.2c1.8,0,3.2,1.5,3.2,3.2l0,0
		C778.1,379.3,776.6,380.8,774.9,380.8z"/>
	<path class="st3" d="M774.9,404.6H640.6c-1.8,0-3.2-1.5-3.2-3.2l0,0c0-1.8,1.5-3.2,3.2-3.2h134.2c1.8,0,3.2,1.5,3.2,3.2l0,0
		C778.1,403.1,776.6,404.6,774.9,404.6z"/>
	<path class="st3" d="M774.9,428.4H640.6c-1.8,0-3.2-1.5-3.2-3.2v0c0-1.8,1.5-3.2,3.2-3.2h134.2c1.8,0,3.2,1.5,3.2,3.2v0
		C778.1,427,776.6,428.4,774.9,428.4z"/>
</g>
<g>
	<rect x="981.9" y="507.1" class="st1" width="277.4" height="203.5"/>
	<rect x="985.9" y="524.9" class="st2" width="269.5" height="181.8"/>
	<circle class="st3" cx="990.2" cy="515.9" r="4.5"/>
	<circle class="st3" cx="1004.9" cy="515.9" r="4.5"/>
	<circle class="st3" cx="1019.9" cy="515.9" r="4.5"/>
	<path class="st3" d="M1137.8,578h-134.2c-1.8,0-3.2-1.5-3.2-3.2l0,0c0-1.8,1.5-3.2,3.2-3.2h134.2c1.8,0,3.2,1.5,3.2,3.2l0,0
		C1141.1,576.5,1139.6,578,1137.8,578z"/>
	<path class="st3" d="M1137.8,601.8h-134.2c-1.8,0-3.2-1.5-3.2-3.2l0,0c0-1.8,1.5-3.2,3.2-3.2h134.2c1.8,0,3.2,1.5,3.2,3.2l0,0
		C1141.1,600.4,1139.6,601.8,1137.8,601.8z"/>
	<path class="st3" d="M1137.8,625.6h-134.2c-1.8,0-3.2-1.5-3.2-3.2l0,0c0-1.8,1.5-3.2,3.2-3.2h134.2c1.8,0,3.2,1.5,3.2,3.2l0,0
		C1141.1,624.2,1139.6,625.6,1137.8,625.6z"/>
	<path class="st3" d="M1137.8,649.4h-134.2c-1.8,0-3.2-1.5-3.2-3.2v0c0-1.8,1.5-3.2,3.2-3.2h134.2c1.8,0,3.2,1.5,3.2,3.2v0
		C1141.1,648,1139.6,649.4,1137.8,649.4z"/>
</g>
<g>
	<g>
		<rect x="620.9" y="509.9" class="st1" width="272.8" height="200.1"/>
		<rect x="624.8" y="527.4" class="st4" width="265" height="178.7"/>
		<circle class="st3" cx="629" cy="518.6" r="4.4"/>
		<circle class="st3" cx="643.4" cy="518.6" r="4.4"/>
		<circle class="st3" cx="658.3" cy="518.6" r="4.4"/>
		<path class="st5" d="M775,579.6H641.4c-1.3,0-2.3-1.1-2.3-2.3v-1.7c0-1.3,1.1-2.3,2.3-2.3H775c1.3,0,2.3,1.1,2.3,2.3v1.7
			C777.4,578.5,776.3,579.6,775,579.6z"/>
		<path class="st5" d="M775,603H641.4c-1.3,0-2.3-1.1-2.3-2.3V599c0-1.3,1.1-2.3,2.3-2.3H775c1.3,0,2.3,1.1,2.3,2.3v1.7
			C777.4,602,776.3,603,775,603z"/>
		<path class="st5" d="M775,626.4H641.4c-1.3,0-2.3-1.1-2.3-2.3v-1.7c0-1.3,1.1-2.3,2.3-2.3H775c1.3,0,2.3,1.1,2.3,2.3v1.7
			C777.4,625.4,776.3,626.4,775,626.4z"/>
		<path class="st5" d="M775,649.9H641.4c-1.3,0-2.3-1.1-2.3-2.3v-1.7c0-1.3,1.1-2.3,2.3-2.3H775c1.3,0,2.3,1.1,2.3,2.3v1.7
			C777.4,648.8,776.3,649.9,775,649.9z"/>
	</g>
</g>
<g>
	<path class="st3" d="M907.9,759.3v-6.1c1.9,0,3.2-0.6,4.2-1.6c0.9-1.1,1.4-3.5,1.4-7.3c0-2.9,0.1-5,0.3-6.4
		c0.2-1.4,0.7-2.5,1.5-3.5c0.8-0.9,1.9-1.6,3.2-2c1.3-0.4,3.1-0.6,5.5-0.6h1.4v6.1c-2.5,0-3.9,0.3-4.4,0.8c-0.5,0.5-0.7,1.5-0.8,3
		c-0.1,4.1-0.2,6.7-0.4,8c-0.2,1.2-0.5,2.4-1.1,3.5c-0.6,1.1-1.7,2.2-3.3,3.2c1.5,0.9,2.6,2,3.3,3.3c0.7,1.3,1.1,3.1,1.2,5.5
		l0.4,7.4c0.2,0.7,0.5,1.3,1.1,1.6c0.6,0.4,1.9,0.5,4,0.5v6.1H924c-2.7,0-4.8-0.3-6.3-0.9c-1.5-0.6-2.5-1.6-3.2-3
		c-0.7-1.4-1-3.7-1-6.8c0-3.5-0.1-5.7-0.4-6.7c-0.2-1-0.7-1.9-1.4-2.7C911.1,759.9,909.8,759.4,907.9,759.3z"/>
	<path class="st3" d="M935,764.6v8.4h-7.8v-8.4H935z"/>
	<path class="st3" d="M944.6,764.6v8.4h-7.8v-8.4H944.6z"/>
	<path class="st3" d="M954.2,764.6v8.4h-7.8v-8.4H954.2z"/>
	<path class="st3" d="M973.5,759.3c-1.9,0-3.2,0.6-4.2,1.7c-0.9,1.1-1.4,3.5-1.4,7.2c0,2.9-0.1,5-0.3,6.4c-0.2,1.4-0.7,2.5-1.5,3.5
		c-0.8,0.9-1.9,1.6-3.2,2c-1.3,0.4-3.1,0.6-5.5,0.6h-1.4v-6.1c2.4,0,3.8-0.2,4.3-0.7c0.5-0.5,0.8-1.5,0.9-3c0.1-4.3,0.3-7.1,0.5-8.4
		c0.2-1.2,0.6-2.4,1.3-3.5c0.6-1.1,1.6-2,3-2.8c-1.5-1-2.5-1.9-3.1-2.8c-0.6-0.9-1-1.9-1.2-3c-0.2-1.1-0.4-3.1-0.5-6
		c-0.1-2.9-0.2-4.6-0.4-5c-0.1-0.4-0.5-0.8-1-1.1s-1.8-0.5-4-0.5v-6.1h1.4c2.7,0,4.8,0.3,6.3,0.9c1.5,0.6,2.5,1.6,3.2,3
		c0.7,1.4,1,3.7,1,6.8c0,3.6,0.1,5.9,0.4,6.8c0.3,0.9,0.7,1.8,1.4,2.6c0.7,0.8,1.9,1.2,3.8,1.3V759.3z"/>
</g>
<polygon class="st3" points="985,761 1006.2,781.8 1063.5,723.4 1059.8,721.6 1008.5,766.9 986.9,745.5 "/>
<g>
	<g>
		<path class="st3" d="M448.2,189v-6.1c1.9,0,3.2-0.6,4.2-1.6c0.9-1.1,1.4-3.5,1.4-7.3c0-2.9,0.1-5,0.3-6.4c0.2-1.4,0.7-2.5,1.5-3.5
			c0.8-0.9,1.9-1.6,3.2-2c1.3-0.4,3.1-0.6,5.5-0.6h1.4v6.1c-2.5,0-3.9,0.3-4.4,0.8c-0.5,0.5-0.7,1.5-0.8,3c-0.1,4.1-0.2,6.7-0.4,8
			c-0.2,1.2-0.5,2.4-1.1,3.5c-0.6,1.1-1.7,2.2-3.3,3.2c1.5,0.9,2.6,2,3.3,3.3s1.1,3.1,1.2,5.5l0.4,7.4c0.2,0.7,0.5,1.3,1.1,1.6
			c0.6,0.4,1.9,0.5,4,0.5v6.1h-1.3c-2.7,0-4.8-0.3-6.3-0.9c-1.5-0.6-2.5-1.6-3.2-3c-0.7-1.4-1-3.7-1-6.8c0-3.5-0.1-5.7-0.4-6.7
			s-0.7-1.9-1.4-2.7C451.4,189.5,450.1,189.1,448.2,189z"/>
		<path class="st3" d="M475.3,194.3v8.4h-7.8v-8.4H475.3z"/>
		<path class="st3" d="M485,194.3v8.4h-7.8v-8.4H485z"/>
		<path class="st3" d="M494.6,194.3v8.4h-7.8v-8.4H494.6z"/>
		<path class="st3" d="M513.9,189c-1.9,0-3.2,0.6-4.2,1.7c-0.9,1.1-1.4,3.5-1.4,7.2c0,2.9-0.1,5-0.3,6.4c-0.2,1.4-0.7,2.5-1.5,3.5
			c-0.8,0.9-1.9,1.6-3.2,2c-1.3,0.4-3.1,0.6-5.5,0.6h-1.4v-6.1c2.4,0,3.8-0.2,4.3-0.7c0.5-0.5,0.8-1.5,0.9-3
			c0.1-4.3,0.3-7.1,0.5-8.4c0.2-1.2,0.6-2.4,1.3-3.5c0.6-1.1,1.6-2,3-2.8c-1.5-1-2.5-1.9-3.1-2.8c-0.6-0.9-1-1.9-1.2-3
			c-0.2-1.1-0.4-3.1-0.5-6s-0.2-4.6-0.4-5c-0.1-0.4-0.5-0.8-1-1.1c-0.5-0.3-1.8-0.5-4-0.5v-6.1h1.4c2.7,0,4.8,0.3,6.3,0.9
			c1.5,0.6,2.5,1.6,3.2,3c0.7,1.4,1,3.7,1,6.8c0,3.6,0.1,5.9,0.4,6.8c0.3,0.9,0.7,1.8,1.4,2.6c0.7,0.8,1.9,1.2,3.8,1.3V189z"/>
	</g>
	<polygon class="st3" points="525.3,190.7 546.6,211.5 603.9,153.1 600.1,151.2 548.9,196.6 527.2,175.2 	"/>
</g>
<g>
	<g>
		<path class="st3" d="M447.5,405.8v-6.1c1.9,0,3.2-0.6,4.2-1.6c0.9-1.1,1.4-3.5,1.4-7.3c0-2.9,0.1-5,0.3-6.4
			c0.2-1.4,0.7-2.5,1.5-3.5c0.8-0.9,1.9-1.6,3.2-2c1.3-0.4,3.1-0.6,5.5-0.6h1.4v6.1c-2.5,0-3.9,0.3-4.4,0.8c-0.5,0.5-0.7,1.5-0.8,3
			c-0.1,4.1-0.2,6.7-0.4,8s-0.5,2.4-1.1,3.5c-0.6,1.1-1.7,2.2-3.3,3.2c1.5,0.9,2.6,2,3.3,3.3c0.7,1.3,1.1,3.1,1.2,5.5l0.4,7.4
			c0.2,0.7,0.5,1.3,1.1,1.6c0.6,0.4,1.9,0.5,4,0.5v6.1h-1.3c-2.7,0-4.8-0.3-6.3-0.9c-1.5-0.6-2.5-1.6-3.2-3c-0.7-1.4-1-3.7-1-6.8
			c0-3.5-0.1-5.7-0.4-6.7c-0.2-1-0.7-1.9-1.4-2.7C450.7,406.3,449.4,405.9,447.5,405.8z"/>
		<path class="st3" d="M474.6,411.1v8.4h-7.8v-8.4H474.6z"/>
		<path class="st3" d="M484.2,411.1v8.4h-7.8v-8.4H484.2z"/>
		<path class="st3" d="M493.9,411.1v8.4h-7.8v-8.4H493.9z"/>
		<path class="st3" d="M513.1,405.8c-1.9,0-3.2,0.6-4.2,1.7c-0.9,1.1-1.4,3.5-1.4,7.2c0,2.9-0.1,5-0.3,6.4c-0.2,1.4-0.7,2.5-1.5,3.5
			c-0.8,0.9-1.9,1.6-3.2,2c-1.3,0.4-3.1,0.6-5.5,0.6h-1.4v-6.1c2.4,0,3.8-0.2,4.3-0.7c0.5-0.5,0.8-1.5,0.9-3
			c0.1-4.4,0.3-7.1,0.5-8.4c0.2-1.2,0.6-2.4,1.3-3.5c0.6-1.1,1.6-2,3-2.8c-1.5-1-2.5-1.9-3.1-2.8c-0.6-0.9-1-1.9-1.2-3
			c-0.2-1.1-0.4-3.1-0.5-6c-0.1-2.9-0.2-4.6-0.4-5c-0.1-0.4-0.5-0.8-1-1.1c-0.5-0.3-1.8-0.5-4-0.5v-6.1h1.4c2.7,0,4.8,0.3,6.3,0.9
			c1.5,0.6,2.5,1.6,3.2,3c0.7,1.4,1,3.7,1,6.8c0,3.6,0.1,5.9,0.4,6.8c0.3,0.9,0.7,1.8,1.4,2.6c0.7,0.8,1.9,1.2,3.8,1.3V405.8z"/>
	</g>
	<polygon class="st3" points="524.6,407.4 545.9,428.2 603.2,369.9 599.4,368 548.1,413.4 526.5,392 	"/>
</g>
<g>
	<g>
		<path class="st5" d="M447.8,607.9v-6.1c1.9,0,3.2-0.6,4.2-1.6c0.9-1.1,1.4-3.5,1.4-7.3c0-2.9,0.1-5,0.3-6.4
			c0.2-1.4,0.7-2.5,1.5-3.5c0.8-0.9,1.9-1.6,3.2-2c1.3-0.4,3.1-0.6,5.5-0.6h1.4v6.1c-2.5,0-3.9,0.3-4.4,0.8c-0.5,0.5-0.7,1.5-0.8,3
			c-0.1,4.1-0.2,6.7-0.4,8s-0.5,2.4-1.1,3.5c-0.6,1.1-1.7,2.2-3.3,3.2c1.5,0.9,2.6,2,3.3,3.3c0.7,1.3,1.1,3.1,1.2,5.5l0.4,7.4
			c0.2,0.7,0.5,1.3,1.1,1.6c0.6,0.4,1.9,0.5,4,0.5v6.1h-1.3c-2.7,0-4.8-0.3-6.3-0.9c-1.5-0.6-2.5-1.6-3.2-3c-0.7-1.4-1-3.7-1-6.8
			c0-3.5-0.1-5.7-0.4-6.7c-0.2-1-0.7-1.9-1.4-2.7C451,608.5,449.7,608,447.8,607.9z"/>
		<path class="st5" d="M474.9,613.3v8.4h-7.8v-8.4H474.9z"/>
		<path class="st5" d="M484.5,613.3v8.4h-7.8v-8.4H484.5z"/>
		<path class="st5" d="M494.2,613.3v8.4h-7.8v-8.4H494.2z"/>
		<path class="st5" d="M513.5,607.9c-1.9,0-3.2,0.6-4.2,1.7c-0.9,1.1-1.4,3.5-1.4,7.2c0,2.9-0.1,5-0.3,6.4c-0.2,1.4-0.7,2.5-1.5,3.5
			c-0.8,0.9-1.9,1.6-3.2,2c-1.3,0.4-3.1,0.6-5.5,0.6h-1.4v-6.1c2.4,0,3.8-0.2,4.3-0.7c0.5-0.5,0.8-1.5,0.9-3
			c0.1-4.3,0.3-7.1,0.5-8.4c0.2-1.2,0.6-2.4,1.3-3.5c0.6-1.1,1.6-2,3-2.8c-1.5-1-2.5-1.9-3.1-2.8c-0.6-0.9-1-1.9-1.2-3
			c-0.2-1.1-0.4-3.1-0.5-6c-0.1-2.9-0.2-4.6-0.4-5c-0.1-0.4-0.5-0.8-1-1.1c-0.5-0.3-1.8-0.5-4-0.5v-6.1h1.4c2.7,0,4.8,0.3,6.3,0.9
			c1.5,0.6,2.5,1.6,3.2,3c0.7,1.4,1,3.7,1,6.8c0,3.6,0.1,5.9,0.4,6.8c0.3,0.9,0.7,1.8,1.4,2.6c0.7,0.8,1.9,1.2,3.8,1.3V607.9z"/>
	</g>
	<g>
		<path class="st5" d="M536.3,574.6l8.6,13c2.3,3.4,4.1,6.5,6.1,9.9h0.4c2-3.6,4-6.8,6-10l8.5-12.9h11.9l-20.6,29.3l21.3,31.3H566
			l-8.9-13.6c-2.4-3.5-4.4-6.9-6.5-10.5h-0.3c-2,3.6-4.1,6.9-6.4,10.5l-8.8,13.6H523l21.5-30.9L524,574.6H536.3z"/>
	</g>
</g>
<path class="st0" d="M390.5,557.7c-27-46.7-36.2-85.7-27.2-115.9c4-13.3,10.8-22.1,15.9-27.1c3-3,5.8-5.1,7.7-6.3l43.6,0.7l0.1-9
	l-45.5-0.7c-11.9-8.8-19.4-20.5-22.4-34.6c-7.4-35.6,15.7-78.1,24.4-92.5l63.3-47.5l-5.4-7.2L205.5,397.4l2.7,3.6l-3,3.3L429,608.2
	l6.1-6.7L388.3,559L390.5,557.7z M358.6,440.3c-9,30.1-1,68.3,24,113.5L304.9,483c-11.1-16.1-15.6-31.2-13.3-45.1
	c3-18,16.7-28.5,19.9-30.7l67.4,1.1C372.3,413.9,363.5,424.1,358.6,440.3z M288.1,372.5c0.6,9.3,4.4,17.8,11.4,25.4l-78.2-1.3
	l78.4-58.8C293.8,346.3,287.3,358.8,288.1,372.5z M303.6,407c-5.9,5.3-14.5,15.3-16.9,30c-1.8,11,0.1,22.6,5.9,34.7l-72.5-66
	L303.6,407z M368.6,297.7c-13.8,32.4-13.4,54.9-10.7,68.1c2.8,13.3,9.2,24.5,19.2,33.5l-70.3-1.1c-8.5-7.7-13.1-16.4-13.7-25.8
	c-1.4-22,19.2-41.5,19.4-41.7l-1.2-1.3l65.9-49.4C374.4,284.8,371.4,290.9,368.6,297.7z"/>
<g>
	<g id="kFOI9T.tif">
		<g>
			<path class="st3" d="M1740.7,463.4c2.9-3.3,5.5-7,8.7-9.9c7.8-7,15.7-13.9,23.9-20.4c2.5-2,6.2-3.5,9.4-3.5
				c46.9-0.2,93.9-0.2,140.8,0c3.2,0,6.9,1.5,9.4,3.5c8.7,6.9,17,14.4,25.5,21.6c10.8,9.2,9.3,20-3.8,25.8c-67.7,0-135.3,0-203,0
				c-5.3-1.6-8.6-5.3-11-10C1740.7,468.1,1740.7,465.7,1740.7,463.4z M1852.6,464.4c27,0,53.9,0,80.9,0c1.3,0,3,0.5,3.9-0.2
				c1.7-1.2,3.7-3,3.9-4.8c0.2-1.2-2.3-3-3.9-4.1c-0.8-0.6-2.3-0.2-3.4-0.2c-53.8,0-107.5,0-161.3,0c-1.3,0-3-0.4-3.9,0.3
				c-1.6,1.1-3.7,2.9-3.7,4.3c0,1.5,2.1,3.4,3.7,4.4c1.1,0.7,2.9,0.2,4.4,0.2C1799.6,464.4,1826.1,464.4,1852.6,464.4z
				 M1820.7,445.9C1820.7,445.9,1820.7,445.9,1820.7,445.9c2,0,4.2,0.6,5.9-0.2c1.8-0.8,4.3-3.2,4.1-4.4c-0.3-1.8-2.6-4.2-4.4-4.6
				c-3.5-0.7-7.3-0.7-10.9,0c-1.8,0.3-4.5,2.9-4.3,4.1c0.3,1.8,2.4,3.9,4.2,4.9C1816.7,446.5,1818.9,445.9,1820.7,445.9z
				 M1853.6,436.5c-1.8,0-4-0.6-5.4,0.1c-2,1.1-3.6,3.1-5.3,4.8c1.7,1.5,3.2,3.8,5.1,4.4c2.8,0.8,5.9,0.2,8.9,0.2
				c3.3,0,6.4-1,6.4-4.7c0-4-3.1-5.1-6.7-4.8C1855.6,436.5,1854.6,436.5,1853.6,436.5z M1885.4,445.9
				C1885.4,445.9,1885.4,445.9,1885.4,445.9c2,0,4.3,0.6,5.9-0.2c1.8-0.8,4.3-3.2,4.1-4.4c-0.4-1.8-2.7-4.2-4.5-4.6
				c-3.5-0.7-7.3-0.7-10.9,0c-1.7,0.3-4.4,2.9-4.3,4.2c0.3,1.8,2.4,3.8,4.3,4.9C1881.4,446.5,1883.5,445.9,1885.4,445.9z
				 M1788.4,446.1c2.1-0.1,4.7,0.3,6.7-0.6c1.6-0.7,3.4-3,3.4-4.5c-0.1-1.5-2.2-4-3.7-4.2c-4-0.6-8.3-0.6-12.3,0
				c-1.5,0.2-3.5,2.8-3.6,4.3c0,1.5,1.9,3.6,3.5,4.5C1783.9,446.4,1786.2,446,1788.4,446.1z M1918,436.5
				C1918,436.5,1918,436.5,1918,436.5c-2,0-4.2-0.6-5.9,0.2c-1.8,0.8-4.1,2.8-4.1,4.4c-0.1,1.6,2.2,4.3,3.8,4.6
				c3.8,0.7,8,0.7,11.8,0c1.6-0.3,4.1-3.2,3.9-4.5c-0.4-1.8-2.7-3.5-4.6-4.5C1921.7,435.9,1919.7,436.5,1918,436.5z"/>
			<path class="st3" d="M1914.7,255.4c0.7,0.3,1.4,0.8,2.2,1c11.9,3.4,19.8,13.4,19.8,25.7c0.1,27.8,0.2,55.6,0,83.5
				c-0.1,14.4-11.7,25.8-26.2,26c-10.2,0.1-20.3,0.1-30.5,0.1c-0.3,0-0.6,0.2-1.4,0.6c0,5-0.3,10.3,0.2,15.6
				c0.1,1.3,2.9,3.1,4.5,3.2c5.5,0.4,11,0.2,16.5,0.2c7.2,0,7.5,0.3,7.2,7.7c0,0.8-0.2,1.6-0.3,2.8c-35.6,0-71.2,0-107.1,0
				c-0.1-1.7-0.1-3.3-0.3-4.9c-0.4-4,1.1-5.8,5.4-5.6c5.8,0.3,11.7-0.1,17.5,0.1c4,0.1,5.9-1.3,5.7-5.5c-0.2-4.5,0-9,0-14.2
				c-2,0-3.6,0-5.1,0c-9,0-18,0.1-27,0c-14.5-0.2-26-11.6-26.1-26.1c-0.1-28-0.1-56,0-84c0-11.4,7.8-21.4,18.9-24.9
				c1.1-0.3,2.1-0.8,3.1-1.2C1832.7,255.4,1873.7,255.4,1914.7,255.4z M1852.9,382.6c18.7,0,37.3,0.1,56,0
				c11.5,0,18.8-7.3,18.8-18.6c0-26.8,0-53.7,0-80.5c0-11.6-7.5-18.9-19.2-18.9c-36.8,0-73.7,0-110.5,0c-12,0-19.2,7.3-19.3,19.3
				c0,26.3,0,52.7,0,79c0,12.8,6.8,19.7,19.7,19.7C1816.6,382.6,1834.7,382.6,1852.9,382.6z"/>
			<path class="st3" d="M1740.7,470.4c2.4,4.7,5.7,8.4,11,10c-3.7,0-7.3,0-11,0C1740.7,477.1,1740.7,473.7,1740.7,470.4z"/>
			<path class="st2" d="M1853.3,373.4c-18.2,0-36.3,0-54.5,0c-7.9,0-10.8-2.9-10.8-10.9c0-26,0-52,0-77.9c0-7.7,2.8-10.7,10.4-10.7
				c36.5-0.1,72.9-0.1,109.4,0c7.6,0,10.6,3,10.6,10.6c0.1,26.1,0.1,52.3,0,78.4c0,7.6-3,10.5-10.7,10.5
				C1889.6,373.4,1871.4,373.4,1853.3,373.4z"/>
		</g>
	</g>
	<ellipse class="st3" cx="1820.9" cy="322.3" rx="9.8" ry="20"/>
	<g>
		<path class="st3" d="M1892.1,332.1c-6-9.6-11.6-14-16.6-13.1c-7,1.2-11,12.4-11.1,12.5l-3.8-2.4c0.2-0.6,5-14.1,14.3-15.7
			c6.6-1.2,13.4,3.9,20.4,15.1L1892.1,332.1z"/>
	</g>
</g>
<g>
	<path class="st3" d="M1868.8,180.1c0,5-1.5,9-4.6,11.8c-3.1,2.8-6.8,4.3-11.2,4.3c-4.3,0-8-1.4-11.1-4.3c-3.2-2.8-4.7-6.8-4.7-11.8
		v-51c0-5.2,1.6-9.1,4.7-11.8c3.2-2.7,6.9-4.1,11.1-4.1c4.4,0,8.1,1.4,11.2,4.1c3.1,2.7,4.6,6.6,4.6,11.8V180.1z M1869.2,212.6
		c0,4.4-1.5,8.2-4.6,11.3c-3.1,3.2-6.8,4.7-11.2,4.7c-4.4,0-8.2-1.6-11.3-4.7c-3.2-3.2-4.7-6.9-4.7-11.3c0-4.4,1.6-8.1,4.7-11.3
		c3.2-3.2,6.9-4.7,11.3-4.7c4.4,0,8.1,1.6,11.2,4.7C1867.6,204.4,1869.2,208.2,1869.2,212.6z"/>
</g>
<g>
	<path class="st6" d="M1740.7,320.2c-0.4,0-0.8,0-1.1-0.1l-35.5-5.8c-3.8-0.6-6.4-4.2-5.8-8c0.6-3.8,4.2-6.4,8-5.8l35.5,5.8
		c3.8,0.6,6.4,4.2,5.8,8C1747.1,317.8,1744.1,320.2,1740.7,320.2z M1674.6,309.4c-0.4,0-0.8,0-1.1-0.1l-35.5-5.8
		c-3.8-0.6-6.4-4.2-5.8-8c0.6-3.8,4.2-6.4,8-5.8l35.5,5.8c3.8,0.6,6.4,4.2,5.8,8C1680.9,307,1678,309.4,1674.6,309.4z M1608.5,298.7
		c-0.4,0-0.8,0-1.1-0.1l-35.5-5.8c-3.8-0.6-6.4-4.2-5.8-8c0.6-3.8,4.2-6.4,8-5.8l35.5,5.8c3.8,0.6,6.4,4.2,5.8,8
		C1614.8,296.2,1611.8,298.7,1608.5,298.7z M1542.3,287.9c-0.4,0-0.8,0-1.1-0.1l-35.5-5.8c-3.8-0.6-6.4-4.2-5.8-8
		c0.6-3.8,4.2-6.4,8-5.8l35.5,5.8c3.8,0.6,6.4,4.2,5.8,8C1548.7,285.5,1545.7,287.9,1542.3,287.9z M1476.2,277.2
		c-0.4,0-0.8,0-1.1-0.1l-35.5-5.8c-3.8-0.6-6.4-4.2-5.8-8c0.6-3.8,4.2-6.4,8-5.8l35.5,5.8c3.8,0.6,6.4,4.2,5.8,8
		C1482.5,274.7,1479.6,277.2,1476.2,277.2z M1410.1,266.4c-0.4,0-0.8,0-1.1-0.1l-35.5-5.8c-3.8-0.6-6.4-4.2-5.8-8
		c0.6-3.8,4.2-6.4,8-5.8l35.5,5.8c3.8,0.6,6.4,4.2,5.8,8C1416.4,264,1413.4,266.4,1410.1,266.4z M1343.9,255.6c-0.4,0-0.8,0-1.1-0.1
		l-35.5-5.8c-3.8-0.6-6.4-4.2-5.8-8c0.6-3.8,4.2-6.4,8-5.8l35.5,5.8c3.8,0.6,6.4,4.2,5.8,8C1350.3,253.2,1347.3,255.6,1343.9,255.6z
		 M1277.8,244.9c-0.4,0-0.8,0-1.1-0.1l-35.5-5.8c-3.8-0.6-6.4-4.2-5.8-8c0.6-3.8,4.2-6.4,8-5.8l35.5,5.8c3.8,0.6,6.4,4.2,5.8,8
		C1284.1,242.4,1281.2,244.9,1277.8,244.9z M1211.7,234.1c-0.4,0-0.8,0-1.1-0.1l-35.5-5.8c-3.8-0.6-6.4-4.2-5.8-8
		c0.6-3.8,4.2-6.4,8-5.8l35.5,5.8c3.8,0.6,6.4,4.2,5.8,8C1218,231.7,1215,234.1,1211.7,234.1z M1145.5,223.3c-0.4,0-0.8,0-1.1-0.1
		l-35.5-5.8c-3.8-0.6-6.4-4.2-5.8-8c0.6-3.8,4.2-6.4,8-5.8l35.5,5.8c3.8,0.6,6.4,4.2,5.8,8C1151.9,220.9,1148.9,223.3,1145.5,223.3z
		 M1079.4,212.6c-0.4,0-0.8,0-1.1-0.1l-35.5-5.8c-3.8-0.6-6.4-4.2-5.8-8s4.2-6.4,8-5.8l35.5,5.8c3.8,0.6,6.4,4.2,5.8,8
		C1085.8,210.1,1082.8,212.6,1079.4,212.6z M1013.3,201.8c-0.4,0-0.8,0-1.1-0.1l-35.5-5.8c-3.8-0.6-6.4-4.2-5.8-8
		c0.6-3.8,4.2-6.4,8-5.8l35.5,5.8c3.8,0.6,6.4,4.2,5.8,8C1019.6,199.4,1016.7,201.8,1013.3,201.8z M947.2,191.1
		c-0.4,0-0.8,0-1.1-0.1l-20.4-3.3c-3.8-0.6-6.4-4.2-5.8-8c0.6-3.8,4.2-6.4,8-5.8l20.4,3.3c3.8,0.6,6.4,4.2,5.8,8
		C953.5,188.6,950.5,191.1,947.2,191.1z"/>
</g>
<g>
	<path class="st6" d="M928.2,385.2c-3.7,0-6.8-2.9-7-6.7c-0.2-3.9,2.8-7.1,6.7-7.3l9.3-0.4c3.9-0.2,7.1,2.8,7.3,6.7
		c0.2,3.9-2.8,7.1-6.7,7.3l-9.3,0.4C928.4,385.2,928.3,385.2,928.2,385.2z M968.5,383.5c-3.7,0-6.8-2.9-7-6.7
		c-0.2-3.9,2.8-7.1,6.7-7.3l36-1.6c3.9-0.2,7.1,2.8,7.3,6.7c0.2,3.9-2.8,7.1-6.7,7.3l-36,1.6C968.7,383.5,968.6,383.5,968.5,383.5z
		 M1035.4,380.5c-3.7,0-6.8-2.9-7-6.7c-0.2-3.9,2.8-7.1,6.7-7.3l36-1.6c3.9-0.2,7.1,2.8,7.3,6.7c0.2,3.9-2.8,7.1-6.7,7.3l-36,1.6
		C1035.6,380.5,1035.5,380.5,1035.4,380.5z M1102.3,377.5c-3.7,0-6.8-2.9-7-6.7c-0.2-3.9,2.8-7.1,6.7-7.3l36-1.6
		c3.9-0.2,7.1,2.8,7.3,6.7s-2.8,7.1-6.7,7.3l-36,1.6C1102.5,377.5,1102.4,377.5,1102.3,377.5z M1169.3,374.6c-3.7,0-6.8-2.9-7-6.7
		c-0.2-3.9,2.8-7.1,6.7-7.3l36-1.6c3.9-0.2,7.1,2.8,7.3,6.7c0.2,3.9-2.8,7.1-6.7,7.3l-36,1.6
		C1169.5,374.6,1169.4,374.6,1169.3,374.6z M1236.2,371.6c-3.7,0-6.8-2.9-7-6.7c-0.2-3.9,2.8-7.1,6.7-7.3l36-1.6
		c3.9-0.2,7.1,2.8,7.3,6.7c0.2,3.9-2.8,7.1-6.7,7.3l-36,1.6C1236.4,371.6,1236.3,371.6,1236.2,371.6z M1303.1,368.7
		c-3.7,0-6.8-2.9-7-6.7c-0.2-3.9,2.8-7.1,6.7-7.3l36-1.6c3.9-0.2,7.1,2.8,7.3,6.7c0.2,3.9-2.8,7.1-6.7,7.3l-36,1.6
		C1303.3,368.6,1303.2,368.7,1303.1,368.7z M1370.1,365.7c-3.7,0-6.8-2.9-7-6.7c-0.2-3.9,2.8-7.1,6.7-7.3l36-1.6
		c3.9-0.2,7.1,2.8,7.3,6.7c0.2,3.9-2.8,7.1-6.7,7.3l-36,1.6C1370.3,365.7,1370.2,365.7,1370.1,365.7z M1437,362.7
		c-3.7,0-6.8-2.9-7-6.7c-0.2-3.9,2.8-7.1,6.7-7.3l36-1.6c3.9-0.2,7.1,2.8,7.3,6.7c0.2,3.9-2.8,7.1-6.7,7.3l-36,1.6
		C1437.2,362.7,1437.1,362.7,1437,362.7z M1503.9,359.8c-3.7,0-6.8-2.9-7-6.7c-0.2-3.9,2.8-7.1,6.7-7.3l36-1.6
		c3.9-0.2,7.1,2.8,7.3,6.7s-2.8,7.1-6.7,7.3l-36,1.6C1504.1,359.8,1504,359.8,1503.9,359.8z M1570.9,356.8c-3.7,0-6.8-2.9-7-6.7
		c-0.2-3.9,2.8-7.1,6.7-7.3l36-1.6c3.9-0.2,7.1,2.8,7.3,6.7c0.2,3.9-2.8,7.1-6.7,7.3l-36,1.6C1571.1,356.8,1571,356.8,1570.9,356.8z
		 M1637.8,353.8c-3.7,0-6.8-2.9-7-6.7c-0.2-3.9,2.8-7.1,6.7-7.3l36-1.6c3.8-0.2,7.1,2.8,7.3,6.7s-2.8,7.1-6.7,7.3l-36,1.6
		C1638,353.8,1637.9,353.8,1637.8,353.8z M1704.7,350.9c-3.7,0-6.8-2.9-7-6.7c-0.2-3.9,2.8-7.1,6.7-7.3l36-1.6
		c3.9-0.2,7.1,2.8,7.3,6.7c0.2,3.9-2.8,7.1-6.7,7.3l-36,1.6C1704.9,350.9,1704.8,350.9,1704.7,350.9z"/>
</g>
<g>
	<path class="st6" d="M1294,610.5c-2.5,0-4.9-1.4-6.2-3.7c-1.8-3.4-0.5-7.7,2.9-9.5l31.8-16.8c3.4-1.8,7.7-0.5,9.5,2.9
		s0.5,7.7-2.9,9.5l-31.8,16.8C1296.2,610.3,1295.1,610.5,1294,610.5z M1353.3,579.3c-2.5,0-4.9-1.4-6.2-3.7
		c-1.8-3.4-0.5-7.7,2.9-9.5l31.8-16.8c3.4-1.8,7.7-0.5,9.5,2.9c1.8,3.4,0.5,7.7-2.9,9.5l-31.8,16.8
		C1355.5,579,1354.4,579.3,1353.3,579.3z M1412.5,548c-2.5,0-4.9-1.4-6.2-3.7c-1.8-3.4-0.5-7.7,2.9-9.5l31.8-16.8
		c3.4-1.8,7.7-0.5,9.5,2.9s0.5,7.7-2.9,9.5l-31.8,16.8C1414.7,547.8,1413.6,548,1412.5,548z M1471.8,516.8c-2.5,0-4.9-1.4-6.2-3.7
		c-1.8-3.4-0.5-7.7,2.9-9.5l31.8-16.8c3.4-1.8,7.7-0.5,9.5,2.9c1.8,3.4,0.5,7.7-2.9,9.5L1475,516
		C1474,516.5,1472.9,516.8,1471.8,516.8z M1531.1,485.5c-2.5,0-4.9-1.4-6.2-3.7c-1.8-3.4-0.5-7.7,2.9-9.5l31.8-16.8
		c3.4-1.8,7.7-0.5,9.5,2.9c1.8,3.4,0.5,7.7-2.9,9.5l-31.8,16.8C1533.3,485.3,1532.2,485.5,1531.1,485.5z M1590.3,454.3
		c-2.5,0-4.9-1.4-6.2-3.7c-1.8-3.4-0.5-7.7,2.9-9.5l31.8-16.8c3.4-1.8,7.7-0.5,9.5,2.9c1.8,3.4,0.5,7.7-2.9,9.5l-31.8,16.8
		C1592.5,454,1591.4,454.3,1590.3,454.3z M1649.6,423.1c-2.5,0-4.9-1.4-6.2-3.7c-1.8-3.4-0.5-7.7,2.9-9.5l31.8-16.8
		c3.4-1.8,7.7-0.5,9.5,2.9c1.8,3.4,0.5,7.7-2.9,9.5l-31.8,16.8C1651.8,422.8,1650.7,423.1,1649.6,423.1z M1708.9,391.8
		c-2.5,0-4.9-1.4-6.2-3.7c-1.8-3.4-0.5-7.7,2.9-9.5l31.8-16.8c3.4-1.8,7.7-0.5,9.5,2.9c1.8,3.4,0.5,7.7-2.9,9.5l-31.8,16.8
		C1711.1,391.5,1710,391.8,1708.9,391.8z"/>
</g>
<g id="CKGTMd.tif">
	<g>
		<path class="st3" d="M891.5,535.5c7.3,4.3,7.9,9.6,1.8,15.7c-1.9,1.9-3.8,3.6-5.4,5.1c7.8,7.8,15.2,15.2,22.9,22.9
			c0,0,0.8-0.7,1.5-1.4c6-5.9,11.9-11.9,17.9-17.8c4.1-4,10.1-3.9,13.9,0.1c3.6,3.7,3.7,9.4-0.2,13.3c-2,2-2,3.2,0,5.2
			c16.3,16.1,32.5,32.3,48.6,48.6c7.7,7.7,12.9,16.8,11.5,28c-0.7,5.4-3.3,10.5-5.2,16.3c4.5,4.6,9.8,10,15.1,15.4
			c0,0.7,0,1.4,0,2.1c-1.9,2.7-3.7,2.5-5.9,0.2c-4.6-4.8-9.3-9.5-14.2-14.4c-4.9,3.6-10,6.2-15.9,6.6c-11.3,0.7-20.3-4.2-28-11.8
			c-16-15.9-32-31.9-47.9-47.9c-1-1-1.5-2.3-2.4-3.8c-1.8,1.7-2.7,2.4-3.5,3.2c-4.1,3.7-9.6,3.7-13.4,0c-3.8-3.7-4-9.6-0.1-13.7
			c5.7-5.9,11.5-11.6,17.3-17.4c0.9-0.9,1.7-1.8,2.4-2.5c-7.6-7.6-15.1-15.1-23.3-23.3c-1.6,1.9-3.4,4.3-5.4,6.3
			c-5.9,6-11.2,5.2-15.5-2c0-1.4,0-2.8,0-4.1c1.4-1.9,2.7-4,4.4-5.6c6.2-6.3,12.5-12.6,18.8-18.8c1.8-1.7,3.9-3.1,5.9-4.6
			C888.8,535.5,890.2,535.5,891.5,535.5z M987.2,630.5c-3.5-3.6-6.4-6.6-10-10.2c-0.8,1.1-1.4,2.2-2.3,3.1
			c-4.1,4.2-8.2,8.4-12.5,12.4c-0.8,0.8-2.8,0.3-4.2,0.4c0.1-1.4-0.3-3.1,0.4-4.2c1-1.6,2.7-2.8,4.1-4.2c3.7-3.7,7.4-7.4,10.6-10.6
			c-3.3-3.4-6.2-6.5-9.5-10c-2.5,2.7-5.1,5.5-7.7,8.3c-1.4,1.5-3,2.5-4.7,0.7c-1.7-1.8-0.7-3.4,0.8-4.7c2.8-2.6,5.5-5.2,8.2-7.7
			c-3.4-3.4-6.4-6.4-9.5-9.5c-0.7,0.6-1.6,1.4-2.4,2.2c-3.8,3.7-7.5,7.5-11.3,11.2c-1.5,1.5-3.1,4.3-5.6,1.8
			c-2.4-2.4-0.1-4.1,1.5-5.7c1.8-1.8,3.6-3.6,5.4-5.4c2.8-2.8,5.6-5.6,8.8-8.8c-1.5-1.3-2.9-2.1-3.8-3.3c-2.1-2.7-3.7-2.3-6,0.1
			c-9.6,9.8-19.3,19.5-29.1,29.1c-1.7,1.7-2,2.8-0.1,4.7c15.2,15.1,30.2,30.4,45.5,45.4c3.6,3.5,8.1,6.5,12.7,8.6
			c10.9,4.9,22.6,0.6,28.9-9.8c5.5-9.1,3.4-22.8-4.9-29.9c-2.6,2.7-5.2,5.5-7.8,8.2c-1.3,1.4-2.9,2.1-4.5,0.6
			c-1.6-1.5-1-3.1,0.4-4.5C981.5,635.8,984.4,633.2,987.2,630.5z"/>
		<path class="st2" d="M987.2,630.5c-2.9,2.7-5.7,5.4-8.5,8.1c-1.4,1.4-2,2.9-0.4,4.5c1.6,1.5,3.2,0.8,4.5-0.6
			c2.6-2.7,5.2-5.5,7.8-8.2c8.3,7,10.4,20.7,4.9,29.9c-6.3,10.4-18,14.7-28.9,9.8c-4.6-2.1-9.1-5.1-12.7-8.6
			c-15.4-15-30.3-30.3-45.5-45.4c-1.9-1.9-1.6-3,0.1-4.7c9.8-9.6,19.5-19.3,29.1-29.1c2.3-2.3,3.9-2.8,6-0.1c0.9,1.2,2.2,2,3.8,3.3
			c-3.2,3.2-6,6-8.8,8.8c-1.8,1.8-3.6,3.6-5.4,5.4c-1.6,1.6-4,3.3-1.5,5.7c2.5,2.5,4.1-0.3,5.6-1.8c3.8-3.7,7.5-7.5,11.3-11.2
			c0.8-0.8,1.7-1.5,2.4-2.2c3.1,3.1,6.1,6.1,9.5,9.5c-2.7,2.5-5.4,5.1-8.2,7.7c-1.5,1.4-2.5,2.9-0.8,4.7c1.7,1.8,3.3,0.8,4.7-0.7
			c2.6-2.8,5.2-5.5,7.7-8.3c3.3,3.5,6.2,6.5,9.5,10c-3.2,3.2-6.9,6.9-10.6,10.6c-1.4,1.4-3.1,2.6-4.1,4.2c-0.6,1.1-0.3,2.8-0.4,4.2
			c1.4-0.1,3.4,0.4,4.2-0.4c4.3-4,8.4-8.2,12.5-12.4c0.9-0.9,1.5-2,2.3-3.1C980.8,623.9,983.7,626.9,987.2,630.5z"/>
	</g>
</g>
</svg>
