<?xml version="1.0" encoding="utf-8"?>
<!-- Generator: Adobe Illustrator 23.0.1, SVG Export Plug-In . SVG Version: 6.00 Build 0)  -->
<svg version="1.1" id="Layer_1_copy" xmlns="http://www.w3.org/2000/svg" xmlns:xlink="http://www.w3.org/1999/xlink" x="0px"
	 y="0px" viewBox="0 0 920 545.3" style="enable-background:new 0 0 920 545.3;" xml:space="preserve">
<style type="text/css">
	.st0{fill:#FFFFFF;}
	.st1{fill:#012A5B;}
</style>
<g>
	<g>
		<g>
			<path class="st0" d="M149,209.7c-7.6,0-13.9-5.6-14.9-13.1c-0.1-1-0.3-2.1-0.5-3.3c-0.2,1.2-0.4,2.2-0.5,3.1
				c-0.8,7.6-7.3,13.3-14.9,13.3H93.8c-7.3,0-13.5-5.3-14.8-12.5c-0.5-2.9-1-5.1-2.8-12l-19.6-73.4c-1.6-5.9-3.2-11.1-4.2-13.9
				c-1.7-4.6-1-9.7,1.8-13.8c2.8-4,7.4-6.4,12.3-6.4h28c6.5,0,12,4.1,14.1,9.9c2.1-5.8,7.7-9.9,14.1-9.9h21.8
				c6.5,0,12.2,4.2,14.2,10.2c2-6,7.6-10.2,14.2-10.2h27.8c4.9,0,9.5,2.4,12.3,6.4c2.8,4,3.5,9.2,1.8,13.8c-1,2.8-2.6,8.2-4.1,13.8
				c0,0-19.7,73.6-19.7,73.7c-2,7.4-2.5,10.3-2.6,11.2c-0.9,7.5-7.3,13.1-14.9,13.1H149z"/>
		</g>
		<g>
			<path class="st0" d="M244.6,212.6c-16.1,0-29.2-5-39-14.8c0,0-0.1-0.1-0.1-0.1c-10-10.1-15.5-24.5-15.5-40.4
				c0-32.6,22.2-55.3,54-55.3c26.2,0,45.4,15,51.4,40.2c1.1,4.6,1.8,10,2.2,18.8c0,0.3,0,0.5,0,0.8c0,0.3,0,0.5,0,1
				c0.3,2.8-0.2,5.7-1.5,8.2c0.8,3.2,0.6,6.7-0.8,9.8c-3.5,8-6.4,12.3-11.2,17.2c0,0-0.1,0.1-0.1,0.1
				C274.2,207.5,260.6,212.6,244.6,212.6z"/>
		</g>
		<g>
			<path class="st0" d="M340.6,211.9c-7.2,0-13.3-0.9-18.9-3.1c-1.6,0.6-3.3,0.9-5.1,0.9h-24c-4.3,0-8.4-1.8-11.2-5.1
				c-2.8-3.2-4.2-7.5-3.6-11.8c0.6-5.1,0.9-9.7,0.9-17.4v-63.5c0-8.1-0.2-12-0.9-17.4c-0.5-4.3,0.8-8.6,3.6-11.8
				c2.8-3.2,6.9-5.1,11.2-5.1h24.9c4.2,0,8.3,1.8,11.1,5s4.2,7.4,3.8,11.6c-0.3,3.1-0.5,5.7-0.7,9.3c3.2-0.5,6.5-0.8,10-0.8
				c30.6,0,50.3,21,50.3,53.5c0,16.8-5.2,31.1-15,41.5c-0.1,0.1-0.2,0.2-0.3,0.3C367.4,207.2,355.3,211.9,340.6,211.9z M335.9,151.3
				c-2.7,0-4.1,1.8-4.1,5.5c0,3.6,1.6,6.3,3.6,6.3c0.9,0,1.1-0.2,1.3-0.5c0.7-0.9,1.5-3,1.5-6.2c0-3.2-0.7-4.7-1-5c0,0,0,0,0,0
				C337.2,151.4,336.8,151.3,335.9,151.3z"/>
		</g>
		<g>
			<path class="st0" d="M428.1,212c-13.2,0-25.9-2.9-34.7-8c-9.2-5.2-16-13.2-19.8-23.3c-1.8-4.4-2.6-8.4-3.6-14.6
				c-0.6-4.1,0.5-8.2,3-11.5c2.4-3,5.8-5,9.6-5.6c-6.4-7.6-9.8-17.3-9.8-28.1c0-27.4,21.8-45.8,54.4-45.8
				c26.1,0,39.5,10.9,46.1,20.1c4.9,6.5,6.9,12.6,8.7,20.3c1,4.2,0.1,8.6-2.4,12c-1.8,2.6-4.4,4.5-7.4,5.5
				c7.7,8,11.8,18.5,11.8,30.9c0,13.4-4.5,24.9-13.1,33.3C460.7,207.1,446.4,212,428.1,212z M426.4,123.5L426.4,123.5z"/>
		</g>
		<g>
			<path class="st0" d="M480.5,481.6c-4.3,0-8.4-1.8-11.2-5c-2.7-3.1-4.1-7.1-3.7-11.2c0.1-2.1,0.3-15.1,0.5-75.9
				c-5.6-35.2-24.3-52.3-56.9-52.3c-8.8,0-16.3,1.4-20.4,2.3l-56.8,56.8c-2.8,2.8-6.6,4.4-10.6,4.4l0,0c-4,0-7.8-1.6-10.6-4.4
				l-17.8-17.8c-5.9-5.9-5.9-15.4,0-21.2l173.6-173.6v-44.6c0-7.5-0.2-11.9-0.9-17.5c-0.5-4.3,0.8-8.5,3.7-11.7
				c2.8-3.2,6.9-5,11.2-5h24.2c1.9,0,3.8,0.4,5.5,1c5.9-2.2,12.4-3.2,19.5-3.2c14.7,0,27.3,4.7,36.5,13.7c0,0,0.1,0.1,0.1,0.1
				c6.5,6.5,14.2,18.5,14.2,39.2c0,16.5-5.2,30.4-15.1,40.3c-6,6-13.5,10.2-21.9,12.3l149,149c2.8,2.8,4.4,6.6,4.4,10.6
				s-1.6,7.8-4.4,10.6l-17.8,17.8c-2.9,2.9-6.8,4.4-10.6,4.4s-7.7-1.5-10.6-4.4l-56.8-56.8c-4.1-0.9-11.6-2.3-20.4-2.3
				c-31.5,0-49.9,15.9-56.3,48.6c0.2,63.4,0.4,77.1,0.6,79.5c0.4,4.1-0.9,8.1-3.6,11.2c-2.8,3.3-7,5.2-11.3,5.2H480.5z M523.4,151.2
				c-1.7,0-3.5,2.1-3.5,5.1c0,1.2,0.3,5.2,4.2,5.2c0.9,0,1.3-0.2,1.5-0.4c0.2-0.3,0.9-1.9,0.9-5.2c0-2.8-0.6-4.2-0.8-4.4
				c0,0,0,0,0,0C525.7,151.5,525.1,151.2,523.4,151.2z"/>
		</g>
		<g>
			<path class="st0" d="M575.2,209.7c-4.3,0-8.4-1.8-11.2-5.1c-2.8-3.2-4.2-7.5-3.7-11.8c0.7-5.4,0.9-9.4,0.9-16.7v-37.8
				c0-7.5-0.2-11.8-0.8-16.5c-0.6-4.3,0.7-8.6,3.6-11.9c2.8-3.3,7-5.1,11.3-5.1h25.6c4.4,0,8.5,1.9,11.3,5.2c2.8,3.3,4.1,7.7,3.5,12
				c-0.6,4.2-0.8,8.4-0.8,16.3v37.8c0,5.9,0.3,12,0.9,16.8c0.5,4.3-0.9,8.5-3.7,11.7c-2.8,3.2-6.9,5-11.2,5H575.2z"/>
		</g>
		<g>
			<path class="st0" d="M575.6,126c-8.3,0-15-6.7-15-15V92.7c0-8.3,6.7-15,15-15h24.9c8.3,0,15,6.7,15,15V111c0,8.3-6.7,15-15,15
				H575.6z"/>
		</g>
		<g>
			<path class="st0" d="M646.5,211.9c-15.3,0-28.2-5.4-37.4-15.5c-8.8-9.7-13.4-23.3-13.4-39.2c0-16.6,5.1-30.5,14.8-40.4
				c0,0,0.1-0.1,0.1-0.1c9.1-9.1,21.4-14,35.5-14c3.5,0,6.8,0.2,9.9,0.8c-0.1-3.4-0.4-6.1-0.7-8.8c-0.6-4.3,0.7-8.6,3.6-11.9
				s7-5.1,11.3-5.1h25.1c4.3,0,8.5,1.9,11.3,5.2c2.8,3.3,4.1,7.6,3.5,12c-0.6,4.1-0.8,9.2-0.8,17.1v63.5c0,7.7,0.2,12.1,0.9,17.4
				c0.5,4.3-0.8,8.5-3.7,11.8c-2.8,3.2-6.9,5.1-11.2,5.1h-24.2c-1.9,0-3.7-0.4-5.4-1C659.9,210.9,653.8,211.9,646.5,211.9z
				 M650.6,162.8c0.2,0.1,0.7,0.3,1.3,0.3c3.8,0,3.9-6,3.9-6.2c0-3.6-1.3-5.5-4-5.5c-0.8,0-1.1,0.2-1.1,0.2
				c-0.2,0.2-1.3,1.8-1.3,5.7c0,3.4,0.8,5.1,1.1,5.4C650.6,162.7,650.6,162.7,650.6,162.8z"/>
		</g>
		<g>
			<path class="st0" d="M744.5,212.6c-16.1,0-29.2-5-39-14.8c0,0-0.1-0.1-0.1-0.1c-10-10.1-15.5-24.5-15.5-40.4
				c0-32.6,22.2-55.3,54-55.3c26.2,0,45.4,15,51.4,40.2c1.1,4.6,1.8,10,2.2,18.8c0,0.3,0,0.5,0,0.8c0,0.3,0,0.5,0,1
				c0.3,2.8-0.2,5.7-1.5,8.2c0.8,3.2,0.6,6.7-0.8,9.8c-3.5,8-6.4,12.3-11.2,17.2c0,0-0.1,0.1-0.1,0.1
				C774.2,207.5,760.5,212.6,744.5,212.6z"/>
		</g>
		<g>
			<path class="st0" d="M792.5,209.7c-4.3,0-8.4-1.8-11.2-5c-2.8-3.2-4.2-7.5-3.7-11.7c0.7-5.6,0.9-9.5,0.9-16.7v-37.8
				c0-8.9-0.3-12.3-0.8-16.4c-0.6-4.3,0.7-8.6,3.5-11.9s7-5.2,11.3-5.2h24.4c2.3,0,4.6,0.5,6.5,1.5c5.3-2,11.2-3,18-3
				c5.2,0,8.8,0.4,15.3,1.8c4,0.9,7.5,3.3,9.7,6.8c2.1,3.5,2.8,7.7,1.7,11.7l-5.9,22.1c-1,3.9-3.6,7.3-7.2,9.2
				c-2.2,1.3-4.8,1.9-7.3,1.9c-1.5,0-2.9-0.2-4.4-0.6c-5.1-1.6-6.6-1.7-8.1-1.7c-2,0-2.4,0.4-2.9,1c0,0-0.1,0.1-0.1,0.1
				c-0.1,0.2-0.2,0.9-0.3,2.2v18.4c0,7.3,0.2,11.3,0.9,16.5c0.5,4.3-0.8,8.6-3.6,11.8c-2.8,3.2-6.9,5.1-11.2,5.1H792.5z"/>
		</g>
	</g>
	<g>
		<path class="st1" d="M498.2,184.3l-5.6,5.6l-5.6-5.6L303.5,367.9l17.8,17.8L381,326v0c0,0,86.6-26.8,100.1,62.4l3.5-52.6
			c0,0-14.3-43.2-79.1-34.3l27.4-27.4c20.8,0.8,47,9.4,57.7,44.6l1,14.6c0.3-2.2,0.7-4.3,1.1-6.3c0.4,2,0.8,4.1,1.1,6.3l1-14.6
			c10.6-35.2,36.9-43.7,57.7-44.6l27.4,27.4c-64.8-8.8-79.1,34.3-79.1,34.3l3.5,52.6c13.4-89.2,100.1-62.4,100.1-62.4v0l59.7,59.7
			l17.8-17.8L498.2,184.3z M492.7,278.1c-5.6-8.2-17.5-20.2-40.7-23.1l40.7-40.7l40.7,40.7C510.2,257.9,498.3,269.8,492.7,278.1z"/>
		<g>
			<path d="M149,194.7c-0.5-3.9-1.3-8.2-2.6-13.1l-9.3-36c-1.2-4.8-2.2-10.4-3.4-18.5c-0.7,5-2.2,12.7-3.7,18.5l-9.1,36.2
				c-1.6,6.1-2.3,9.7-2.7,13H93.8c-0.6-3.6-1.2-6.1-3.1-13.2l-19.6-73.6c-1.7-6.3-3.4-11.9-4.7-15.2h28c0.1,4.4,0.7,8.3,1.7,13.5
				l7.8,37.3c0.4,1.8,1.2,7.6,2.7,17.3c1.8-10.3,2.7-14.7,3.4-17.3l9.8-38c1.5-5.5,2.2-9.3,2.7-12.7h21.8c0.5,3.2,1.2,6.6,2.8,12.4
				l9.9,37.8c1,3.9,1.8,8,3.4,17.9c0.2-2.3,0.2-2.3,1-7.5c0.4-2.7,1.2-8.6,1.7-10.5l7.7-36.5c1.2-5.6,1.7-9.2,1.8-13.5h27.8
				c-1.2,3.3-2.9,9.1-4.5,15.2l-19.6,73.4c-1.6,5.8-2.7,10.4-3.1,13.4H149z"/>
			<path d="M227.6,164.1c1.2,9.9,7,15.2,16.7,15.2c4.9,0,9.2-1.6,12.4-4.5c1.8-1.7,2.7-3.1,3.7-6.3l21.3,6
				c-2.8,6.4-4.7,9.2-8.1,12.6c-7,6.9-16.8,10.4-28.9,10.4c-12,0-21.5-3.4-28.4-10.4c-7.2-7.4-11.2-17.8-11.2-29.9
				c0-24.3,15.6-40.3,39-40.3c19.1,0,32.5,10.4,36.8,28.7c1,3.9,1.5,9.1,1.8,16.1c0,0.5,0,1.2,0.1,2.5H227.6z M259.4,147.2
				c-1.7-7.8-7-12-15.4-12c-8.7,0-14,3.9-16.1,12H259.4z"/>
			<path d="M292.5,194.7c0.7-5.9,1-11,1-19.2v-63.5c0-8.9-0.2-13.4-1-19.2h24.9c-0.6,5.9-0.9,10.3-0.9,19.2v10.3
				c0,1.8,0,2.9-0.1,4.7c7.2-6.4,15.1-9.2,25.3-9.2c22.3,0,35.3,14.2,35.3,38.5c0,13.1-3.8,23.7-10.9,31.1
				c-6.4,6.4-14.7,9.6-25.5,9.6c-10.2,0-16.2-2.1-24.2-8.7c0,0.4,0.1,2,0.1,2.6v3.9H292.5z M335.9,136.3c-11.2,0-19.1,8.6-19.1,20.5
				c0,12.1,8.1,21.3,18.6,21.3c10.7,0,17.8-8.7,17.8-21.7C353.2,143.9,346.7,136.3,335.9,136.3z"/>
			<path d="M410.4,161.4c0.5,4.4,1.3,6.6,3.2,9.1c2.9,3.7,8.1,5.8,14.3,5.8c9.4,0,15.1-4.2,15.1-11c0-3.8-2-7.1-5.1-8.6
				c-2.6-1.2-5.6-2.1-18.4-5c-11.3-2.5-15.2-3.9-19.7-7.1c-7.7-5.4-11.9-13.6-11.9-23.5c0-18.9,15.2-30.8,39.4-30.8
				c15.6,0,27.5,4.8,34.1,14c3.1,4,4.5,7.7,6.1,14.7l-26,2.8c-1.5-8-5.9-11.3-15.2-11.3c-7.5,0-13,4-13,9.7c0,3.4,1.8,6,5.8,7.8
				c2.5,1.1,2.5,1.1,16.9,4c9.3,2,15.2,4,19.9,7c8.8,5.5,13.2,13.7,13.2,25c0,9.2-2.9,17-8.6,22.6c-7.1,6.9-17.9,10.4-32.2,10.4
				c-10.4,0-20.7-2.2-27.3-6c-6.1-3.4-10.7-8.7-13.2-15.7c-1.2-2.9-1.8-5.8-2.7-11.4L410.4,161.4z"/>
			<path d="M480.5,466.6c0.6-5.3,1-261.2,1-267.7v-59.8c0-8-0.2-13-1-19.2h24.2v4.2c0,0.7-0.1,1.7-0.1,2.3c7.4-6.1,15-8.7,25.1-8.7
				c10.8,0,19.6,3.2,26,9.4c6.5,6.5,9.8,16.2,9.8,28.6c0,12.5-3.7,22.7-10.7,29.7c-6.3,6.3-15.2,9.7-25.3,9.7
				c-5.8,0-12-1.2-16.6-3.2c-3.2-1.3-5-2.7-8.5-5.6c0,1.1,0,2.7,0.1,4.4v8.5c0,6.9,0.2,262.3,1,267.6H480.5z M536.1,171.9
				c3.4-3.3,5.4-8.9,5.4-15.9c0-12.5-6.6-19.7-18.1-19.7c-10.2,0-18.5,8.9-18.5,20.1c0,11.5,8.2,20.2,19.2,20.2
				C528.8,176.5,532.9,174.9,536.1,171.9z"/>
			<path d="M600.9,119.9c-0.7,5-1,9.9-1,18.5v37.8c0,6.6,0.4,13.2,1,18.5h-25.6c0.7-6,1-10.7,1-18.5v-37.8c0-8-0.2-13-1-18.5H600.9z
				 M600.5,92.7V111h-24.9V92.7H600.5z"/>
			<path d="M671.1,190.7c0-0.7,0-1.6,0.1-2.7c-8.2,6.6-14.5,8.8-24.8,8.8c-22.3,0-35.8-15-35.8-39.7c0-12.7,3.7-22.9,10.5-29.9
				c6.3-6.3,14.8-9.6,24.9-9.6c9.9,0,17,2.6,25.1,9.1c-0.1-1.8-0.1-2.9-0.1-4.7v-10.2c0-8.6-0.2-13.9-1-19.2h25.1
				c-0.7,5.1-1,11-1,19.2v63.5c0,8.2,0.2,13.2,1,19.2h-24.2V190.7z M634.5,157.3c0,7,2,12.6,5.6,16.2c2.9,2.9,7.4,4.7,11.9,4.7
				c10.9,0,18.9-9.1,18.9-21.2c0-11.9-7.8-20.5-19-20.5C641.2,136.4,634.5,144.4,634.5,157.3z"/>
			<path d="M727.5,164.1c1.2,9.9,7,15.2,16.7,15.2c4.9,0,9.2-1.6,12.4-4.5c1.8-1.7,2.7-3.1,3.7-6.3l21.3,6
				c-2.8,6.4-4.7,9.2-8.1,12.6c-7,6.9-16.8,10.4-28.9,10.4c-12,0-21.5-3.4-28.4-10.4c-7.2-7.4-11.2-17.8-11.2-29.9
				c0-24.3,15.6-40.3,39-40.3c19.1,0,32.5,10.4,36.8,28.7c1,3.9,1.5,9.1,1.8,16.1c0,0.5,0,1.2,0.1,2.5H727.5z M759.4,147.2
				c-1.7-7.8-7-12-15.4-12c-8.7,0-14,3.9-16.1,12H759.4z"/>
			<path d="M847.6,141.9c-5.6-1.7-8.7-2.3-12.5-2.3c-6.3,0-11,2.2-14.6,6.6c-2.3,2.9-3.2,5.5-3.7,10.9v19.1c0,7.8,0.2,12.5,1,18.4
				h-25.4c0.7-6.1,1-10.5,1-18.5v-37.8c0-8.9-0.2-13.2-1-18.5h24.4v9.7c6-7.8,13.4-11.2,24.5-11.2c3.9,0,6.4,0.2,12.1,1.5
				L847.6,141.9z"/>
		</g>
	</g>
</g>
</svg>
