<?xml version="1.0" standalone="no"?>
<!DOCTYPE svg PUBLIC "-//W3C//DTD SVG 20010904//EN"
 "http://www.w3.org/TR/2001/REC-SVG-20010904/DTD/svg10.dtd">
<svg version="1.0" xmlns="http://www.w3.org/2000/svg"
 width="930.000000pt" height="930.000000pt" viewBox="0 0 930.000000 930.000000"
 preserveAspectRatio="xMidYMid meet">
<metadata>
Created by potrace 1.11, written by Peter Selinger 2001-2013
</metadata>
<g transform="translate(0.000000,930.000000) scale(0.100000,-0.100000)"
fill="#000000" stroke="none">
<path d="M2587 9054 c-1 -1 -36 -4 -77 -8 -41 -3 -86 -8 -100 -10 -14 -3 -38
-7 -55 -9 -69 -11 -229 -52 -285 -74 -8 -4 -17 -7 -20 -8 -28 -9 -135 -57
-180 -80 -89 -46 -130 -70 -212 -128 -51 -36 -109 -78 -128 -94 -56 -45 -232
-223 -286 -288 -74 -90 -114 -143 -114 -150 0 -4 -13 -24 -28 -44 -72 -92
-184 -317 -221 -441 -13 -41 -25 -82 -28 -90 -3 -8 -7 -19 -8 -25 -1 -5 -3
-12 -4 -15 -3 -7 -8 -27 -16 -70 -3 -19 -10 -52 -16 -74 -6 -21 -8 -40 -5 -43
2 -3 1 -15 -4 -27 -23 -62 -35 -488 -16 -596 5 -25 10 -58 12 -75 4 -39 10
-66 30 -145 9 -36 17 -69 19 -75 1 -5 4 -17 7 -25 3 -8 16 -44 29 -80 52 -150
203 -409 311 -533 231 -266 501 -456 758 -535 148 -45 215 -55 400 -56 117 -1
345 15 345 24 0 3 94 12 142 13 24 1 43 5 43 8 0 3 53 7 118 7 185 1 276 -32
377 -134 33 -34 65 -68 70 -76 29 -40 78 -146 115 -248 43 -120 57 -152 122
-285 38 -78 104 -189 142 -240 10 -13 25 -33 32 -42 8 -11 13 -13 14 -5 0 7 9
31 19 55 11 23 36 82 56 130 20 48 41 100 47 115 6 15 11 30 10 35 -1 4 3 7
10 7 6 0 9 3 6 6 -4 3 7 35 24 72 30 65 50 112 53 122 1 3 9 22 18 44 9 21 17
40 17 43 0 4 24 59 57 132 8 18 16 39 17 45 1 6 12 34 25 61 13 28 38 86 56
130 89 217 216 518 223 532 6 11 11 12 16 4 4 -6 5 -11 2 -11 -3 0 1 -21 9
-47 8 -25 12 -50 9 -55 -3 -4 -2 -8 3 -8 7 0 27 -49 38 -94 2 -10 9 -24 15
-32 7 -7 27 -44 45 -81 19 -37 48 -90 65 -118 17 -27 33 -57 37 -65 4 -8 9
-17 13 -20 13 -11 70 -129 89 -188 58 -170 6 -306 -183 -482 -33 -30 -77 -73
-98 -95 -47 -48 -178 -219 -178 -233 0 -12 -27 -35 -49 -40 -15 -3 -255 -10
-417 -11 -70 -1 -72 -2 -84 -31 -7 -17 -16 -30 -21 -30 -5 0 -9 -7 -9 -16 0
-9 -10 -33 -22 -53 -13 -20 -22 -38 -21 -41 0 -3 -8 -23 -18 -45 -55 -121
-127 -388 -144 -535 -26 -226 -22 -527 9 -697 8 -43 17 -93 21 -118 10 -57 18
-90 30 -138 7 -28 11 -55 9 -59 -3 -5 0 -8 5 -8 6 0 10 -3 9 -7 -8 -25 98
-339 172 -513 50 -118 225 -467 240 -480 4 -3 9 -13 13 -23 10 -28 197 -322
277 -437 150 -214 390 -520 510 -651 l25 -27 1072 0 1071 0 39 46 c21 25 45
53 53 62 8 9 33 38 54 65 22 28 46 57 53 65 56 62 214 270 316 415 23 34 47
68 52 76 6 9 32 49 60 90 27 41 54 83 60 94 7 11 27 45 46 75 49 79 52 85 113
193 31 54 56 102 56 107 0 6 5 10 10 10 6 0 10 5 10 11 0 15 32 83 43 90 5 3
8 9 8 13 -1 3 15 41 35 84 64 137 179 432 168 432 -4 0 -2 6 4 12 6 7 18 40
27 73 30 108 66 249 71 280 7 39 12 64 19 95 3 14 7 43 10 65 2 22 7 56 10 75
17 119 24 403 12 525 -8 77 -17 146 -23 185 -4 19 -8 42 -9 50 -2 8 -8 33 -14
55 -6 22 -12 51 -15 65 -2 14 -5 25 -6 25 -1 0 -3 7 -5 15 -13 65 -88 258
-142 368 l-66 133 -241 -2 -240 -2 -15 24 c-57 87 -151 197 -264 312 -137 138
-142 143 -181 217 -31 60 -54 184 -35 195 4 3 6 12 3 19 -3 8 0 17 5 21 6 3 9
11 6 16 -9 13 63 162 139 289 36 60 66 112 66 115 0 3 11 23 25 45 14 22 22
40 18 40 -4 0 -2 5 5 12 7 7 12 20 12 30 0 10 4 18 9 18 5 0 12 17 16 38 4 20
10 42 15 47 11 13 40 156 34 166 -2 4 0 10 4 13 9 5 7 228 -2 276 -2 14 -7 41
-11 60 -5 29 -16 72 -31 125 -2 6 -5 17 -7 25 -2 8 -9 28 -15 43 -7 16 -12 33
-12 38 0 5 -4 17 -9 27 -5 9 -29 58 -52 107 -44 91 -88 167 -101 173 -5 2 -8
8 -8 13 0 6 -4 15 -10 22 -5 7 -26 32 -45 57 -45 58 -49 62 -71 80 -11 9 -28
27 -39 41 -49 61 -252 204 -365 256 -94 44 -139 63 -150 63 -5 0 -18 4 -28 9
-37 20 -95 37 -229 66 -166 36 -389 40 -563 10 -113 -20 -298 -77 -409 -127
-74 -33 -221 -115 -236 -132 -12 -14 -62 -46 -71 -46 -3 0 -2 6 3 13 6 6 26
53 46 102 19 50 43 108 53 130 10 22 18 42 19 45 3 8 17 43 35 85 10 22 30 69
44 105 15 36 31 74 36 85 40 88 53 122 53 133 0 6 4 12 9 12 4 0 7 3 6 8 -1 7
4 21 30 82 8 19 16 37 16 40 1 3 9 21 18 40 13 28 54 128 95 229 5 10 -3 12
-33 8 -59 -8 -157 -27 -174 -34 -8 -3 -26 -8 -40 -10 -23 -4 -166 -52 -215
-73 -40 -17 -60 -23 -67 -22 -5 1 -8 -2 -8 -8 0 -5 -5 -10 -11 -10 -5 0 -29
-8 -52 -19 -41 -18 -80 -33 -84 -32 -2 0 -18 -6 -38 -14 -19 -9 -38 -14 -42
-13 -5 1 -17 -2 -28 -8 -22 -12 -222 -17 -239 -6 -6 3 -17 7 -24 8 -44 7 -198
104 -185 117 3 4 -1 7 -10 7 -9 0 -17 3 -17 8 0 4 -17 25 -38 47 -20 22 -57
67 -81 100 -25 33 -47 62 -50 65 -3 3 -22 28 -41 55 -19 28 -40 56 -47 63 -7
7 -13 17 -13 20 0 4 -10 18 -22 32 -13 14 -45 52 -73 85 -130 156 -262 263
-421 343 -138 70 -209 95 -339 122 -119 24 -145 28 -225 36 -60 6 -288 12
-293 8z"/>
</g>
</svg>
