<?xml version="1.0" encoding="utf-8"?>
<!-- Generator: Adobe Illustrator 24.0.1, SVG Export Plug-In . SVG Version: 6.00 Build 0)  -->
<svg version="1.1" id="Layer_1_copy_4" xmlns="http://www.w3.org/2000/svg" xmlns:xlink="http://www.w3.org/1999/xlink" x="0px"
	 y="0px" viewBox="0 0 2199 930" style="enable-background:new 0 0 2199 930;" xml:space="preserve">
<path style="opacity:0.76;fill:#FFFFFF;enable-background:new    ;" d="M815.4,511.1c0,14.6-4.6,26-13.7,34.2
	c-9.2,8.2-19.9,12.3-32.2,12.3s-23.1-4.1-32.2-12.3c-9.2-8.2-13.7-19.6-13.7-34.2V482h-33.1c-14.6,0-26-4.6-34.2-13.7
	c-8.2-9.2-12.3-19.9-12.3-32.2c0-12.7,4.1-23.6,12.3-32.8s19.6-13.7,34.2-13.7h33.1v-29.1c0-14.6,4.6-26,13.7-34.2
	c9.2-8.2,19.9-12.3,32.2-12.3s23.1,4.1,32.2,12.3c9.2,8.2,13.7,19.6,13.7,34.2v29.1h26.3c14.6,0,26,4.6,34.2,13.7
	c8.2,9.2,12.3,20.1,12.3,32.8c0,12.3-4.1,23.1-12.3,32.2c-8.2,9.2-19.6,13.7-34.2,13.7h-26.3V511.1z"/>
<path style="opacity:0.76;fill:#FFFFFF;enable-background:new    ;" d="M1814.4,579.4c0,22.2-7,39.5-20.8,52
	c-14,12.5-30.2,18.7-48.9,18.7c-18.7,0-35.1-6.2-48.9-18.7c-14-12.5-20.8-29.8-20.8-52v-44.2h-50.3c-22.2,0-39.5-7-52-20.8
	c-12.5-14-18.7-30.2-18.7-48.9c0-19.3,6.2-35.9,18.7-49.8c12.5-14,29.8-20.8,52-20.8h50.3v-44.2c0-22.2,7-39.5,20.8-52
	c14-12.5,30.2-18.7,48.9-18.7c18.7,0,35.1,6.2,48.9,18.7c14,12.5,20.8,29.8,20.8,52v44.2h40c22.2,0,39.5,7,52,20.8
	c12.5,14,18.7,30.5,18.7,49.8c0,18.7-6.2,35.1-18.7,48.9c-12.5,14-29.8,20.8-52,20.8h-40V579.4z"/>
<path style="opacity:0.76;fill:#FFFFFF;enable-background:new    ;" d="M337.4,342.4c0,22.2-7,39.5-20.8,52
	c-14,12.5-30.2,18.7-48.9,18.7s-35.1-6.2-48.9-18.7c-14-12.5-20.8-29.8-20.8-52v-44.2h-50.3c-22.2,0-39.5-7-52-20.8
	c-12.5-14-18.7-30.2-18.7-48.9c0-19.3,6.2-35.9,18.7-49.8s29.8-20.8,52-20.8H198v-44.2c0-22.2,7-39.5,20.8-52
	C232.7,49.2,249,43,267.7,43s35.1,6.2,48.9,18.7c14,12.5,20.8,29.8,20.8,52v44.2h40c22.2,0,39.5,7,52,20.8
	c12.5,14,18.7,30.5,18.7,49.8c0,18.7-6.2,35.1-18.7,48.9c-12.5,14-29.8,20.8-52,20.8h-40V342.4z"/>
<path style="opacity:0.35;fill:#FFFFFF;enable-background:new    ;" d="M960.5,147.4c0,6.1-1.9,10.9-5.8,14.4s-8.4,5.2-13.6,5.2
	s-9.7-1.7-13.6-5.2s-5.8-8.3-5.8-14.4v-12.3h-13.9c-6.1,0-10.9-1.9-14.4-5.8s-5.2-8.4-5.2-13.6c0-5.4,1.7-10,5.2-13.8
	c3.5-3.9,8.3-5.8,14.4-5.8h13.9V83.9c0-6.1,1.9-10.9,5.8-14.4s8.4-5.2,13.6-5.2s9.7,1.7,13.6,5.2s5.8,8.3,5.8,14.4v12.3h11.1
	c6.1,0,10.9,1.9,14.4,5.8s5.2,8.5,5.2,13.8c0,5.2-1.7,9.7-5.2,13.6c-3.5,3.9-8.3,5.8-14.4,5.8h-11.1V147.4z"/>
<path style="opacity:0.35;fill:#FFFFFF;enable-background:new    ;" d="M2046.5,762.4c0,6.1-1.9,10.9-5.8,14.4s-8.4,5.2-13.6,5.2
	s-9.7-1.7-13.6-5.2s-5.8-8.3-5.8-14.4v-12.3h-13.9c-6.1,0-10.9-1.9-14.4-5.8c-3.5-3.9-5.2-8.4-5.2-13.6c0-5.4,1.7-10,5.2-13.8
	c3.5-3.9,8.3-5.8,14.4-5.8h13.9v-12.2c0-6.1,1.9-10.9,5.8-14.4s8.4-5.2,13.6-5.2s9.7,1.7,13.6,5.2s5.8,8.3,5.8,14.4v12.3h11.1
	c6.1,0,10.9,1.9,14.4,5.8s5.2,8.5,5.2,13.8c0,5.2-1.7,9.7-5.2,13.6c-3.5,3.9-8.3,5.8-14.4,5.8h-11.1L2046.5,762.4L2046.5,762.4z"/>
<path style="opacity:0.35;fill:#FFFFFF;enable-background:new    ;" d="M1335.5,386.4c0,6.1-1.9,10.9-5.8,14.4s-8.4,5.2-13.6,5.2
	s-9.7-1.7-13.6-5.2s-5.8-8.3-5.8-14.4v-12.3h-13.9c-6.1,0-10.9-1.9-14.4-5.8s-5.2-8.4-5.2-13.6c0-5.4,1.7-10,5.2-13.8
	c3.5-3.9,8.3-5.8,14.4-5.8h13.9v-12.2c0-6.1,1.9-10.9,5.8-14.4s8.4-5.2,13.6-5.2s9.7,1.7,13.6,5.2s5.8,8.3,5.8,14.4v12.3h11.1
	c6.1,0,10.9,1.9,14.4,5.8s5.2,8.5,5.2,13.8c0,5.2-1.7,9.7-5.2,13.6s-8.3,5.8-14.4,5.8h-11.1V386.4z"/>
<path style="opacity:0.35;fill:#FFFFFF;enable-background:new    ;" d="M263.5,797.4c0,6.1-1.9,10.9-5.8,14.4s-8.4,5.2-13.6,5.2
	s-9.7-1.7-13.6-5.2s-5.8-8.3-5.8-14.4v-12.3h-13.9c-6.1,0-10.9-1.9-14.4-5.8c-3.5-3.9-5.2-8.4-5.2-13.6c0-5.4,1.7-10,5.2-13.8
	c3.5-3.9,8.3-5.8,14.4-5.8h13.9v-12.2c0-6.1,1.9-10.9,5.8-14.4s8.4-5.2,13.6-5.2s9.7,1.7,13.6,5.2c3.9,3.5,5.8,8.3,5.8,14.4v12.3
	h11.1c6.1,0,10.9,1.9,14.4,5.8s5.2,8.5,5.2,13.8c0,5.2-1.7,9.7-5.2,13.6c-3.5,3.9-8.3,5.8-14.4,5.8h-11.1V797.4z"/>
<path style="opacity:0.35;fill:#FFFFFF;enable-background:new    ;" d="M1349.5,748.7c0,10.2-3.2,18.3-9.7,24.2s-14.1,8.7-22.8,8.7
	c-8.7,0-16.3-2.9-22.8-8.7c-6.5-5.9-9.7-13.9-9.7-24.2v-20.6h-23.3c-10.2,0-18.3-3.2-24.2-9.7s-8.7-14.1-8.7-22.8
	c0-9.1,2.9-16.8,8.7-23.2c5.9-6.5,13.9-9.7,24.2-9.7h23.3v-20.5c0-10.2,3.2-18.3,9.7-24.2s14.1-8.7,22.8-8.7
	c8.7,0,16.3,2.9,22.8,8.7c6.5,5.9,9.7,13.9,9.7,24.2v20.6h18.6c10.2,0,18.3,3.2,24.2,9.7c5.9,6.5,8.7,14.3,8.7,23.2
	c0,8.7-2.9,16.3-8.7,22.8c-5.9,6.5-13.9,9.7-24.2,9.7h-18.6V748.7z"/>
<path style="opacity:0.35;fill:#FFFFFF;enable-background:new    ;" d="M437.5,574.7c0,10.2-3.2,18.3-9.7,24.2s-14.1,8.7-22.8,8.7
	c-8.7,0-16.3-2.9-22.8-8.7c-6.5-5.9-9.7-13.9-9.7-24.2v-20.6h-23.3c-10.2,0-18.3-3.2-24.2-9.7s-8.7-14.1-8.7-22.8
	c0-9.1,2.9-16.8,8.7-23.2c5.9-6.5,13.9-9.7,24.2-9.7h23.3v-20.5c0-10.2,3.2-18.3,9.7-24.2c6.5-5.9,14.1-8.7,22.8-8.7
	c8.7,0,16.3,2.9,22.8,8.7c6.5,5.9,9.7,13.9,9.7,24.2v20.6h18.6c10.2,0,18.3,3.2,24.2,9.7c5.9,6.5,8.7,14.3,8.7,23.2
	c0,8.7-2.9,16.3-8.7,22.8c-5.9,6.5-13.9,9.7-24.2,9.7h-18.6V574.7z"/>
<path style="opacity:0.35;fill:#FFFFFF;enable-background:new    ;" d="M1974.5,220.7c0,10.2-3.2,18.3-9.7,24.2s-14.1,8.7-22.8,8.7
	c-8.7,0-16.3-2.9-22.8-8.7c-6.5-5.9-9.7-13.9-9.7-24.2v-20.6h-23.3c-10.2,0-18.3-3.2-24.2-9.7s-8.7-14.1-8.7-22.8
	c0-9.1,2.9-16.8,8.7-23.2c5.9-6.5,13.9-9.7,24.2-9.7h23.3v-20.5c0-10.2,3.2-18.3,9.7-24.2c6.5-5.9,14.1-8.7,22.8-8.7
	c8.7,0,16.3,2.9,22.8,8.7c6.5,5.9,9.7,13.9,9.7,24.2v20.6h18.6c10.2,0,18.3,3.2,24.2,9.7c5.9,6.5,8.7,14.3,8.7,23.2
	c0,8.7-2.9,16.3-8.7,22.8c-5.9,6.5-13.9,9.7-24.2,9.7h-18.6V220.7z"/>
<g>
	<path style="fill:#7F4285;" d="M1160.6,425.2c-7.8-6.4-16.4-11.3-25.2-14.8c-50.8-20.4,9.9-54.8-33-109
		c-42.8-54.1-107.6-29.3-107.6-29.3s-65.8,22.1-64.2,91.2c1.6,69,70.2,56.9,44.1,105c-4.9,9-8.5,19.1-10.4,30"/>
	<path style="fill:#7F4285;" d="M994.2,371.6c2.8,4.6,6,9.1,9.6,13.6c7,8.8,14.9,17.3,21.6,26.1c3.4,4.4,6.3,9,9,13.8
		c2.5,4.7,4.7,9.6,6.5,14.7c1.7,5,3,10.2,3.9,15.6c0.6,3.7,1.7,8.3,1.7,12.2l32.3-11.8c-2.3-3-5.4-6.9-7.3-10.1
		c-2.8-4.6-5.1-9.4-6.9-14.5c-1.9-5-3.3-10.1-4.4-15.4c-1-5.3-1.6-10.7-1.8-16.3c-0.6-11.1,0.2-22.7,0-33.9
		c-0.1-5.6-0.5-11.1-1.3-16.5c-0.8-5.4-2-10.5-3.6-15.7c-1.6-5.1-3.8-9.9-5.9-14.9c-2.1-4.9-4.3-9.7-6.6-14.6
		c-4.5-9.6-9.5-19.2-14.7-28.6c-1.6-2.8-3.2-5.6-4.9-8.5c-15.7,1.2-26.5,5.4-26.5,5.4s-12,4-25.5,14c0.5,3,1,6.1,1.6,9.1
		c2,10.5,4.3,21.1,7,31.4c1.3,5.2,2.7,10.3,4.2,15.5c1.5,5.1,2.9,10.2,5,15.2C989,362.2,991.4,367,994.2,371.6z"/>
	<g>
		<path style="fill:#E6B2ED;" d="M1052.7,370.6c-6.7,3-13.4,5.8-20.3,8.3c-12,4.3-24.2,7.8-36.6,10.2c-14.1,2.7-26.2,3.9-35.5,4.3
			c15.7,28.7,52.9,41.6,87.8,29c34.7-12.5,55.1-45.9,49.3-77.7C1083.2,354.8,1068.2,363.5,1052.7,370.6z"/>
		<path style="fill:#E6B2ED;" d="M995.2,384.7c19-3.7,37.8-9.9,55.7-18.2c15.8-7.3,31-16.2,45.6-26.6c-0.5-1.6-1-3.4-1.6-5
			c-8.9-24.8-32.8-40.6-59.8-42.2l0,0l0.2,0.2l0.7,1c0.2,0.3,0.4,0.7,0.6,1.1l0.3,0.5l0.1,0.3l0.1,0.3c0.4,0.7,0.7,1.4,1,2.2
			c0.6,1.5,1.2,3,1.6,4.5c0.2,0.8,0.4,1.5,0.5,2.4c0,0.4,0.2,0.8,0.2,1.2l0.2,1.2c0,0.4,0.1,0.8,0.1,1.2s0.1,0.8,0.1,1.2
			c0.1,0.8,0,1.6,0.1,2.4c0,1.6-0.1,3.2-0.3,4.8c-0.9,6.4-3.5,12.4-7.5,17.4l-0.7,0.9l-0.4,0.5l-0.4,0.5l-0.9,0.8l-0.9,0.8l-0.4,0.4
			l-0.4,0.4l-0.9,0.7c-0.3,0.2-0.6,0.4-0.9,0.7l-0.5,0.4c-0.2,0.2-0.3,0.2-0.5,0.4l-0.9,0.7c-0.3,0.2-0.7,0.5-0.9,0.7l-0.5,0.3
			c-0.1,0-0.2,0.1-0.2,0.2l-0.2,0.2c-0.3,0.2-0.7,0.4-1.1,0.6c-1.4,0.7-3,1.4-4.5,1.8c-1.5,0.4-3.2,0.8-4.7,1.1
			c-1.6,0.3-3.2,0.3-4.8,0.2s-3.2-0.2-4.8-0.5c-1.5-0.3-3-0.7-4.5-1.3c-2.9-1.2-5.6-2.8-7.9-4.7c-0.3-0.2-0.6-0.5-0.8-0.8
			c-0.3-0.2-0.5-0.6-0.8-0.8l-0.7-0.8c-0.2-0.2-0.5-0.6-0.7-0.8c-0.2-0.2-0.2-0.2-0.4-0.4l-0.4-0.4c-0.2-0.2-0.2-0.3-0.4-0.4
			l-0.3-0.4c-0.4-0.6-0.8-1.2-1.1-1.8l-0.5-1c0-0.1-0.1-0.2-0.1-0.3l-0.1-0.3l-0.3-0.5c-0.4-0.7-0.6-1.4-0.8-2.2
			c-0.5-1.4-0.7-2.9-0.9-4.3c-0.1-1.5-0.1-2.9,0.1-4.3c0.2-1.5,0.5-2.7,1-4.1c0.1-0.4,0.2-0.6,0.4-1l0.1-0.5
			c0.1-0.1,0.1-0.3,0.2-0.5l0.3-0.4l0.3-0.4c0.1-0.1,0.1-0.3,0.3-0.4l0.3-0.4c0.8-1.1,1.6-2.2,2.4-3c0.2-0.2,0.5-0.5,0.7-0.7
			c0.2-0.2,0.5-0.4,0.7-0.6c0.2-0.2,0.5-0.4,0.7-0.6c0.2-0.2,0.5-0.3,0.8-0.5l0.8-0.4l0.8-0.4c0.3-0.1,0.6-0.2,0.8-0.3l0.8-0.3
			l0,0.1c-1.5,1.8-2.5,3.8-3.1,5.7c-0.3,1-0.5,2-0.6,2.9c-0.1,1,0,1.9,0,2.8c0.1,0.9,0.3,1.8,0.5,2.6c0.1,0.2,0.1,0.4,0.2,0.6
			l0.2,0.6l0.3,0.5c0.1,0.2,0.1,0.4,0.3,0.5c0.4,0.7,0.8,1.4,1.3,2c0.2,0.3,0.5,0.6,0.8,0.8l0.2,0.2l0.1,0.1c0,0,0,0.1,0.1,0.1
			l0.5,0.4c0.3,0.2,0.6,0.5,0.9,0.7l0.3,0.1c0.1,0.1,0.2,0.2,0.3,0.1l0.3,0.1c0.1,0.1,0.2,0.2,0.3,0.1l0.5,0.2l0.5,0.2
			c0.1,0.1,0.4,0.2,0.5,0.2s0.4,0.2,0.5,0.2l0.3,0.1c0.1,0.1,0.1,0.1,0.3,0.1l0.3,0.1c0.1,0.1,0.1,0.1,0.3,0.1
			c0.2,0,0.4,0.1,0.5,0.1l0.5,0.1c0.7,0.2,1.4,0.3,2.1,0.3c0.2,0,0.3,0,0.5,0c0.2,0,0.3,0,0.5,0l0.5,0c0.1,0,0.2,0,0.2,0l0.2,0
			c0.6,0,1.3-0.2,1.9-0.3s1.3-0.3,1.8-0.5c0.6-0.2,1.1-0.5,1.6-0.8c0.5-0.3,1-0.7,1.4-1c0.1-0.1,0.2-0.2,0.3-0.3l0.1,0
			c0,0,0.1,0,0.1-0.1l0.2-0.2c0.2-0.2,0.2-0.2,0.4-0.4l0.4-0.4c0.1,0,0.2-0.2,0.2-0.2l0.2-0.2l0.3-0.3l0.3-0.4l0.2-0.2l0.2-0.2
			c0.1-0.1,0.2-0.3,0.3-0.4l0.3-0.4l0.2-0.2l0.1-0.3c0.1-0.1,0.2-0.3,0.3-0.4l0.3-0.4l0.1-0.3l0.1-0.3c0.1-0.1,0.1-0.3,0.3-0.4
			l0.1-0.5l0.1-0.3l0.1-0.3l0.1-0.5c0.1-0.1,0.1-0.4,0.1-0.5l0.1-0.3l0-0.2l0.1-0.5c0.1-0.1,0.1-0.4,0.1-0.5
			c0.1-0.1,0.1-0.4,0.1-0.5c0.1-0.1,0.1-0.4,0.1-0.4c0-0.3,0.1-0.7,0.1-0.9c0.1-0.1,0-0.3,0.1-0.4c0.1-0.1,0-0.3,0.1-0.4
			c0.2-2.5-0.3-5-1.3-7.2c-0.1-0.3-0.3-0.5-0.4-0.8l0-0.1l0-0.1l-0.1-0.2c-0.1-0.2-0.1-0.3-0.3-0.4c-0.1-0.2-0.2-0.2-0.3-0.4
			c0-0.1,0-0.1-0.2-0.2l-0.2-0.2c-0.2-0.2-0.4-0.6-0.6-0.8c-0.9-1.2-1.9-2.2-2.9-3.1c-2.2-1.9-4.7-3.2-7.4-4c-0.1-0.1-0.2,0-0.4-0.1
			c-0.4,0.1-0.8,0.3-1.1,0.4c-38.2,13.8-59.2,52.9-46.7,87.4c0.5,1.4,1.1,2.8,1.7,4.1C968.1,388.6,980.9,387.5,995.2,384.7z"/>
	</g>
	<g>
		<g>
			
				<ellipse transform="matrix(0.9408 -0.339 0.339 0.9408 -72.8334 359.6287)" style="fill:#FFFFFF;" cx="993.1" cy="388.3" rx="19.5" ry="29"/>
			<path style="fill:#7F4285;" d="M1001.7,392.3c-3.5,1.3-7.3-0.6-8.6-4l0,0c-1.3-3.5,0.6-7.3,4-8.6l7.1-2.5
				c-4.8-7.7-12.3-11.9-18.6-9.7c-7.7,2.8-10.7,14.4-6.5,25.8c4.1,11.5,13.8,18.5,21.5,15.7c6.2-2.2,9.3-10.3,8.1-19.3L1001.7,392.3
				z"/>
		</g>
		<g>
			
				<ellipse transform="matrix(0.9408 -0.339 0.339 0.9408 -59.0651 383.7453)" style="fill:#FFFFFF;" cx="1069" cy="361" rx="19.5" ry="29"/>
			<path style="fill:#7F4285;" d="M1077.6,365c-3.5,1.3-7.3-0.6-8.6-4l0,0c-1.3-3.5,0.6-7.3,4-8.6l7.1-2.5
				c-4.8-7.7-12.3-11.9-18.6-9.7c-7.7,2.8-10.7,14.4-6.5,25.8s13.8,18.5,21.5,15.7c6.2-2.2,9.3-10.3,8.1-19.3L1077.6,365z"/>
		</g>
	</g>
</g>
<g>
	<path style="fill:#7F4285;" d="M963.6,503.1c-23.6,41.5-21.1,108,52.6,192.4h52.8h52.6c75-85.8,76.2-153.1,51.3-194.5"/>
	<path style="fill:#7F4285;" d="M1021.9,601.7c2.1,21.3,6.4,42.6,13.5,63.8c3.3,10,7.4,19.9,12.2,29.9h42c4.8-10,8.8-19.9,12.2-29.9
		c7.1-21.3,11.4-42.6,13.5-63.8c0.5-5.3,0.9-10.6,1.2-16c0.2-5.3-0.1-10.6-1.1-16c-0.9-5.3-2.5-10.6-4.5-16
		c-2.1-5.3-4.6-10.6-7.4-16c-5.5-10.6-11.8-21.3-15.9-31.9c-0.7-1.7-1.3-2.2-1.8-3.9l-34.4,0.1c-0.5,1.6-1.1,2.1-1.8,3.8
		c-4.1,10.6-10.3,21.3-15.9,31.9c-2.8,5.3-5.3,10.6-7.4,16c-2.1,5.3-3.6,10.6-4.5,16c-0.9,5.3-1.3,10.6-1.1,16
		C1021,591.1,1021.3,596.4,1021.9,601.7z"/>
</g>
</svg>
