<?xml version="1.0" encoding="utf-8"?>
<!-- Generator: Adobe Illustrator 23.0.1, SVG Export Plug-In . SVG Version: 6.00 Build 0)  -->
<svg version="1.1" id="Layer_1_copy_4" xmlns="http://www.w3.org/2000/svg" xmlns:xlink="http://www.w3.org/1999/xlink" x="0px"
	 y="0px" viewBox="0 0 2199 930" style="enable-background:new 0 0 2199 930;" xml:space="preserve">
<style type="text/css">
	.st0{fill:#ED1C24;}
	.st1{fill:#FF616D;}
	.st2{fill:#FF858E;}
	.st3{fill:#FFFFFF;}
	.st4{fill:#560B11;}
	.st5{fill:#C1272D;}
	.st6{opacity:0.76;fill:#ED1C24;enable-background:new    ;}
	.st7{opacity:0.35;fill:#F9505D;enable-background:new    ;}
</style>
<g>
	<g>
		<path class="st0" d="M1168.7,430.6c-6.8-7.5-14.6-13.5-22.8-18.3c-47.4-27.5,17.7-52.8-17-112.6c-34.6-59.7-102.3-44.4-102.3-44.4
			s-68.3,12.4-76.6,81c-8.4,68.5,61.3,66.4,28.6,110.2c-6.2,8.2-11.2,17.7-14.6,28.2"/>
		<path class="st1" d="M1011.7,353.7c2.1,5,4.7,9.9,7.5,14.8c5.7,9.7,12.3,19.2,17.7,28.9c2.7,4.9,5,9.8,6.9,14.9
			c1.8,5,3.3,10.1,4.3,15.5c1,5.2,1.5,10.5,1.6,16c0.1,3.8,0.5,8.5,0,12.4l33.7-7c-1.9-3.3-4.3-7.6-5.7-11.1
			c-2.1-5-3.7-10.1-4.8-15.4c-1.2-5.2-1.8-10.4-2.1-15.9c-0.3-5.4-0.1-10.8,0.5-16.4c1-11,3.5-22.5,4.9-33.6
			c0.7-5.6,1.1-11,1.1-16.6c0-5.4-0.5-10.7-1.3-16.1c-0.9-5.2-2.3-10.3-3.7-15.6c-1.4-5.1-2.9-10.2-4.5-15.4
			c-3.1-10.2-6.6-20.4-10.4-30.4c-1.1-3-2.4-6-3.6-9.2c-15.7-1.1-27,1.5-27,1.5s-12.4,2.2-27.2,10.2c0,3.1,0.1,6.2,0.3,9.2
			c0.5,10.7,1.2,21.5,2.4,32.1c0.6,5.3,1.2,10.6,1.9,15.9c0.8,5.3,1.4,10.5,2.7,15.8C1007.9,343.6,1009.6,348.7,1011.7,353.7z"/>
		<g>
			<path class="st2" d="M1069.8,361c-7,2.1-14.1,3.8-21.3,5.3c-12.5,2.6-25.1,4.2-37.7,4.9c-14.4,0.7-26.5,0.1-35.7-0.9
				c11.4,30.6,46.4,48.8,82.8,41.4c36.2-7.4,61.1-37.5,59.9-69.8C1102.3,349.8,1086.1,356.2,1069.8,361z"/>
			<path class="st2" d="M1010.8,366.7c19.3-1,38.8-4.4,57.8-10c16.6-4.9,33-11.5,48.9-19.8c-0.2-1.7-0.5-3.5-0.8-5.1
				c-5.3-25.9-26.6-44.9-53.1-50.4l0,0l0.2,0.3l0.5,1.1c0.2,0.4,0.3,0.8,0.4,1.1l0.2,0.6l0.1,0.3l0.1,0.3c0.3,0.8,0.5,1.5,0.7,2.3
				c0.4,1.5,0.7,3.1,1,4.7c0.1,0.8,0.2,1.6,0.2,2.4c0,0.4,0.1,0.8,0,1.2l0,1.2c0,0.4,0,0.8-0.1,1.2c0,0.4,0,0.8-0.1,1.2
				c0,0.8-0.2,1.6-0.2,2.4c-0.2,1.6-0.6,3.2-1,4.7c-1.8,6.2-5.2,11.8-9.9,16.1l-0.9,0.8l-0.4,0.4l-0.4,0.4l-1,0.7l-1,0.7l-0.4,0.3
				l-0.4,0.3l-1,0.6c-0.4,0.2-0.6,0.3-1,0.6l-0.5,0.3c-0.2,0.1-0.4,0.2-0.5,0.3l-1,0.5c-0.4,0.2-0.7,0.4-1,0.5l-0.6,0.2
				c-0.1,0-0.2,0-0.3,0.2l-0.3,0.2c-0.4,0.2-0.8,0.3-1.1,0.4c-1.5,0.5-3.2,1-4.8,1.2c-1.6,0.2-3.3,0.4-4.8,0.4
				c-1.6,0-3.2-0.2-4.8-0.4c-1.6-0.3-3.1-0.7-4.6-1.2c-1.4-0.5-2.9-1.1-4.3-2c-2.7-1.6-5.1-3.5-7.1-5.8c-0.3-0.3-0.5-0.6-0.7-0.9
				c-0.3-0.3-0.4-0.6-0.7-0.9l-0.6-0.9c-0.2-0.3-0.4-0.6-0.6-0.9c-0.1-0.2-0.2-0.3-0.3-0.4l-0.3-0.4c-0.1-0.2-0.2-0.4-0.3-0.4
				l-0.2-0.5c-0.3-0.6-0.6-1.3-0.8-2l-0.3-1.1c0-0.1,0-0.2-0.1-0.3l-0.1-0.3l-0.2-0.6c-0.3-0.8-0.4-1.4-0.5-2.3
				c-0.3-1.5-0.3-3-0.3-4.4c0.1-1.5,0.3-2.9,0.7-4.2c0.4-1.4,0.9-2.6,1.6-3.9c0.1-0.3,0.3-0.6,0.5-0.9l0.2-0.5
				c0.1-0.1,0.2-0.2,0.3-0.5l0.3-0.4l0.3-0.4c0.1-0.1,0.2-0.2,0.3-0.4l0.3-0.4c0.9-1,1.9-1.9,2.8-2.6c0.3-0.2,0.5-0.4,0.8-0.6
				c0.3-0.2,0.5-0.3,0.8-0.5c0.3-0.2,0.5-0.3,0.8-0.5c0.3-0.2,0.6-0.2,0.8-0.4l0.9-0.3l0.9-0.3c0.3-0.1,0.6-0.1,0.9-0.2l0.9-0.2
				l0,0.1c-1.7,1.6-3,3.4-3.8,5.2c-0.4,0.9-0.7,1.9-1,2.7c-0.2,1-0.3,1.9-0.4,2.7c0,0.9,0.1,1.8,0.1,2.6c0,0.2,0.1,0.4,0.1,0.6
				l0.1,0.6l0.2,0.6c0,0.2,0.1,0.4,0.2,0.6c0.3,0.8,0.6,1.5,1,2.1c0.2,0.4,0.4,0.6,0.7,0.9l0.1,0.2l0.1,0.1c0,0,0,0.1,0.1,0.1
				l0.4,0.4c0.3,0.3,0.5,0.6,0.8,0.9l0.2,0.2c0.1,0.1,0.1,0.2,0.2,0.2l0.2,0.2c0.1,0.1,0.1,0.2,0.2,0.2l0.5,0.3l0.5,0.3
				c0.1,0.1,0.4,0.2,0.5,0.3c0.1,0.1,0.4,0.2,0.5,0.3l0.2,0.2c0.1,0.1,0.1,0.1,0.2,0.2l0.2,0.2c0.1,0.1,0.1,0.1,0.2,0.2
				c0.2,0.1,0.3,0.1,0.5,0.2l0.5,0.2c0.7,0.3,1.3,0.4,2.1,0.6c0.2,0.1,0.3,0,0.5,0.1s0.3,0,0.5,0.1l0.5,0.1c0.1,0,0.2,0.1,0.2,0.1
				l0.2,0.1c0.6,0.1,1.3,0,1.9,0s1.3-0.2,1.9-0.3c0.6-0.1,1.2-0.3,1.7-0.6c0.6-0.2,1.1-0.5,1.6-0.8c0.1-0.1,0.3-0.2,0.4-0.3l0.1,0
				c0,0,0.1,0,0.1-0.1l0.2-0.1c0.2-0.1,0.3-0.2,0.4-0.3l0.4-0.3c0.1,0,0.2-0.1,0.2-0.1l0.2-0.1l0.4-0.3l0.3-0.4l0.2-0.1l0.2-0.1
				c0.1-0.1,0.3-0.3,0.3-0.4l0.3-0.4l0.2-0.1l0.2-0.2c0.1-0.1,0.3-0.3,0.3-0.4l0.3-0.4l0.2-0.2l0.2-0.2c0.1-0.1,0.2-0.2,0.3-0.4
				l0.2-0.5l0.2-0.2l0.2-0.2l0.2-0.5c0.1-0.1,0.1-0.3,0.2-0.5l0.2-0.2l0.1-0.2l0.2-0.5c0.1-0.1,0.1-0.3,0.2-0.5
				c0.1-0.1,0.1-0.3,0.2-0.5c0.1-0.1,0.1-0.3,0.1-0.4c0-0.3,0.2-0.6,0.2-0.9c0.1-0.1,0-0.3,0.1-0.4c0.1-0.1,0-0.3,0.1-0.4
				c0.5-2.5,0.4-5-0.3-7.3c-0.1-0.3-0.2-0.6-0.3-0.9l0-0.1l0-0.1l0-0.2c0-0.2-0.1-0.3-0.2-0.5c0-0.2-0.2-0.3-0.2-0.5
				c0-0.1,0-0.1-0.1-0.2l-0.2-0.3c-0.2-0.3-0.3-0.6-0.5-0.9c-0.7-1.3-1.5-2.4-2.4-3.5c-1.9-2.2-4.2-3.8-6.7-5.1
				c-0.1-0.1-0.2-0.1-0.3-0.1c-0.4,0.1-0.8,0.2-1.2,0.2c-39.8,8.1-66.2,43.8-58.8,79.8c0.3,1.5,0.7,2.9,1.1,4.3
				C983.5,366.7,996.3,367.5,1010.8,366.7z"/>
		</g>
		<g>
			<g>

					<ellipse transform="matrix(0.9797 -0.2004 0.2004 0.9797 -53.7001 209.5457)" class="st3" cx="1008.2" cy="370" rx="19.5" ry="29"/>
				<path class="st4" d="M1016.1,375.3c-3.6,0.7-7.2-1.6-7.9-5.2l0,0c-0.7-3.6,1.6-7.2,5.2-7.9l7.3-1.5c-3.6-8.3-10.4-13.6-17-12.2
					c-8,1.6-12.6,12.7-10.2,24.6c2.4,12,11,20.3,19,18.7c6.5-1.3,10.6-8.8,10.8-17.9L1016.1,375.3z"/>
			</g>
			<g>

					<ellipse transform="matrix(0.9797 -0.2004 0.2004 0.9797 -48.8558 225.0612)" class="st3" cx="1087.3" cy="353.9" rx="19.5" ry="29"/>
				<path class="st4" d="M1095.2,359.1c-3.6,0.7-7.2-1.6-7.9-5.2l0,0c-0.7-3.6,1.6-7.2,5.2-7.9l7.3-1.5c-3.6-8.3-10.4-13.6-17-12.2
					c-8,1.6-12.6,12.7-10.2,24.6c2.4,12,11,20.3,19,18.7c6.5-1.3,10.7-8.8,10.8-17.9L1095.2,359.1z"/>
			</g>
		</g>
	</g>
	<g>
		<path class="st5" d="M960,503.2c-23.6,41.5-21.1,108,52.6,192.4h52.8h52.6c75-85.8,76.2-153.1,51.3-194.5"/>
		<path class="st0" d="M1018.3,601.8c2.1,21.3,6.4,42.6,13.5,63.8c3.3,10,7.4,19.9,12.2,29.9h42c4.8-10,8.8-19.9,12.2-29.9
			c7.1-21.3,11.4-42.6,13.5-63.8c0.5-5.3,0.9-10.6,1.2-16c0.2-5.3-0.1-10.6-1.1-16c-0.9-5.3-2.5-10.6-4.5-16
			c-2.1-5.3-4.6-10.6-7.4-16c-5.5-10.6-11.8-21.3-15.9-31.9c-0.7-1.7-1.3-2.2-1.8-3.9l-34.4,0.1c-0.5,1.6-1.1,2.1-1.8,3.8
			c-4.1,10.6-10.3,21.3-15.9,31.9c-2.8,5.3-5.3,10.6-7.4,16c-2.1,5.3-3.6,10.6-4.5,16c-0.9,5.3-1.3,10.6-1.1,16
			C1017.4,591.2,1017.7,596.5,1018.3,601.8z"/>
	</g>
</g>
<path class="st6" d="M815.4,511.1c0,14.6-4.6,26-13.7,34.2c-9.2,8.2-19.9,12.3-32.2,12.3s-23.1-4.1-32.2-12.3
	c-9.2-8.2-13.7-19.6-13.7-34.2V482h-33.1c-14.6,0-26-4.6-34.2-13.7c-8.2-9.2-12.3-19.9-12.3-32.2c0-12.7,4.1-23.6,12.3-32.8
	s19.6-13.7,34.2-13.7h33.1v-29.1c0-14.6,4.6-26,13.7-34.2c9.2-8.2,19.9-12.3,32.2-12.3s23.1,4.1,32.2,12.3
	c9.2,8.2,13.7,19.6,13.7,34.2v29.1h26.3c14.6,0,26,4.6,34.2,13.7c8.2,9.2,12.3,20.1,12.3,32.8c0,12.3-4.1,23.1-12.3,32.2
	c-8.2,9.2-19.6,13.7-34.2,13.7h-26.3V511.1z"/>
<path class="st6" d="M1814.4,579.4c0,22.2-7,39.5-20.8,52c-14,12.5-30.2,18.7-48.9,18.7c-18.7,0-35.1-6.2-48.9-18.7
	c-14-12.5-20.8-29.8-20.8-52v-44.2h-50.3c-22.2,0-39.5-7-52-20.8c-12.5-14-18.7-30.2-18.7-48.9c0-19.3,6.2-35.9,18.7-49.8
	c12.5-14,29.8-20.8,52-20.8h50.3v-44.2c0-22.2,7-39.5,20.8-52c14-12.5,30.2-18.7,48.9-18.7c18.7,0,35.1,6.2,48.9,18.7
	c14,12.5,20.8,29.8,20.8,52v44.2h40c22.2,0,39.5,7,52,20.8c12.5,14,18.7,30.5,18.7,49.8c0,18.7-6.2,35.1-18.7,48.9
	c-12.5,14-29.8,20.8-52,20.8h-40V579.4z"/>
<path class="st6" d="M337.4,342.4c0,22.2-7,39.5-20.8,52c-14,12.5-30.2,18.7-48.9,18.7s-35.1-6.2-48.9-18.7
	c-14-12.5-20.8-29.8-20.8-52v-44.2h-50.3c-22.2,0-39.5-7-52-20.8c-12.5-14-18.7-30.2-18.7-48.9c0-19.3,6.2-35.9,18.7-49.8
	s29.8-20.8,52-20.8h50.3v-44.2c0-22.2,7-39.5,20.8-52C232.7,49.2,249,43,267.7,43s35.1,6.2,48.9,18.7c14,12.5,20.8,29.8,20.8,52
	v44.2h40c22.2,0,39.5,7,52,20.8c12.5,14,18.7,30.5,18.7,49.8c0,18.7-6.2,35.1-18.7,48.9c-12.5,14-29.8,20.8-52,20.8h-40V342.4z"/>
<path class="st7" d="M960.5,147.4c0,6.1-1.9,10.9-5.8,14.4s-8.4,5.2-13.6,5.2s-9.7-1.7-13.6-5.2s-5.8-8.3-5.8-14.4v-12.3h-13.9
	c-6.1,0-10.9-1.9-14.4-5.8s-5.2-8.4-5.2-13.6c0-5.4,1.7-10,5.2-13.8c3.5-3.9,8.3-5.8,14.4-5.8h13.9V83.9c0-6.1,1.9-10.9,5.8-14.4
	s8.4-5.2,13.6-5.2s9.7,1.7,13.6,5.2s5.8,8.3,5.8,14.4v12.3h11.1c6.1,0,10.9,1.9,14.4,5.8s5.2,8.5,5.2,13.8c0,5.2-1.7,9.7-5.2,13.6
	s-8.3,5.8-14.4,5.8h-11.1V147.4z"/>
<path class="st7" d="M2046.5,762.4c0,6.1-1.9,10.9-5.8,14.4s-8.4,5.2-13.6,5.2s-9.7-1.7-13.6-5.2s-5.8-8.3-5.8-14.4v-12.3h-13.9
	c-6.1,0-10.9-1.9-14.4-5.8c-3.5-3.9-5.2-8.4-5.2-13.6c0-5.4,1.7-10,5.2-13.8c3.5-3.9,8.3-5.8,14.4-5.8h13.9v-12.2
	c0-6.1,1.9-10.9,5.8-14.4s8.4-5.2,13.6-5.2s9.7,1.7,13.6,5.2s5.8,8.3,5.8,14.4v12.3h11.1c6.1,0,10.9,1.9,14.4,5.8s5.2,8.5,5.2,13.8
	c0,5.2-1.7,9.7-5.2,13.6c-3.5,3.9-8.3,5.8-14.4,5.8h-11.1V762.4z"/>
<path class="st7" d="M1335.5,386.4c0,6.1-1.9,10.9-5.8,14.4s-8.4,5.2-13.6,5.2s-9.7-1.7-13.6-5.2s-5.8-8.3-5.8-14.4v-12.3h-13.9
	c-6.1,0-10.9-1.9-14.4-5.8s-5.2-8.4-5.2-13.6c0-5.4,1.7-10,5.2-13.8c3.5-3.9,8.3-5.8,14.4-5.8h13.9v-12.2c0-6.1,1.9-10.9,5.8-14.4
	s8.4-5.2,13.6-5.2s9.7,1.7,13.6,5.2s5.8,8.3,5.8,14.4v12.3h11.1c6.1,0,10.9,1.9,14.4,5.8s5.2,8.5,5.2,13.8c0,5.2-1.7,9.7-5.2,13.6
	s-8.3,5.8-14.4,5.8h-11.1V386.4z"/>
<path class="st7" d="M263.5,797.4c0,6.1-1.9,10.9-5.8,14.4s-8.4,5.2-13.6,5.2s-9.7-1.7-13.6-5.2s-5.8-8.3-5.8-14.4v-12.3h-13.9
	c-6.1,0-10.9-1.9-14.4-5.8c-3.5-3.9-5.2-8.4-5.2-13.6c0-5.4,1.7-10,5.2-13.8c3.5-3.9,8.3-5.8,14.4-5.8h13.9v-12.2
	c0-6.1,1.9-10.9,5.8-14.4s8.4-5.2,13.6-5.2s9.7,1.7,13.6,5.2s5.8,8.3,5.8,14.4v12.3h11.1c6.1,0,10.9,1.9,14.4,5.8s5.2,8.5,5.2,13.8
	c0,5.2-1.7,9.7-5.2,13.6c-3.5,3.9-8.3,5.8-14.4,5.8h-11.1V797.4z"/>
<path class="st7" d="M1349.5,748.7c0,10.2-3.2,18.3-9.7,24.2c-6.5,5.9-14.1,8.7-22.8,8.7c-8.7,0-16.3-2.9-22.8-8.7
	c-6.5-5.9-9.7-13.9-9.7-24.2v-20.6h-23.3c-10.2,0-18.3-3.2-24.2-9.7s-8.7-14.1-8.7-22.8c0-9.1,2.9-16.8,8.7-23.2
	c5.9-6.5,13.9-9.7,24.2-9.7h23.3v-20.5c0-10.2,3.2-18.3,9.7-24.2c6.5-5.9,14.1-8.7,22.8-8.7c8.7,0,16.3,2.9,22.8,8.7
	c6.5,5.9,9.7,13.9,9.7,24.2v20.6h18.6c10.2,0,18.3,3.2,24.2,9.7c5.9,6.5,8.7,14.3,8.7,23.2c0,8.7-2.9,16.3-8.7,22.8
	c-5.9,6.5-13.9,9.7-24.2,9.7h-18.6V748.7z"/>
<path class="st7" d="M437.5,574.7c0,10.2-3.2,18.3-9.7,24.2c-6.5,5.9-14.1,8.7-22.8,8.7c-8.7,0-16.3-2.9-22.8-8.7
	c-6.5-5.9-9.7-13.9-9.7-24.2v-20.6h-23.3c-10.2,0-18.3-3.2-24.2-9.7s-8.7-14.1-8.7-22.8c0-9.1,2.9-16.8,8.7-23.2
	c5.9-6.5,13.9-9.7,24.2-9.7h23.3v-20.5c0-10.2,3.2-18.3,9.7-24.2c6.5-5.9,14.1-8.7,22.8-8.7c8.7,0,16.3,2.9,22.8,8.7
	c6.5,5.9,9.7,13.9,9.7,24.2v20.6h18.6c10.2,0,18.3,3.2,24.2,9.7c5.9,6.5,8.7,14.3,8.7,23.2c0,8.7-2.9,16.3-8.7,22.8
	c-5.9,6.5-13.9,9.7-24.2,9.7h-18.6V574.7z"/>
<path class="st7" d="M1974.5,220.7c0,10.2-3.2,18.3-9.7,24.2c-6.5,5.9-14.1,8.7-22.8,8.7c-8.7,0-16.3-2.9-22.8-8.7
	c-6.5-5.9-9.7-13.9-9.7-24.2v-20.6h-23.3c-10.2,0-18.3-3.2-24.2-9.7s-8.7-14.1-8.7-22.8c0-9.1,2.9-16.8,8.7-23.2
	c5.9-6.5,13.9-9.7,24.2-9.7h23.3v-20.5c0-10.2,3.2-18.3,9.7-24.2c6.5-5.9,14.1-8.7,22.8-8.7c8.7,0,16.3,2.9,22.8,8.7
	c6.5,5.9,9.7,13.9,9.7,24.2v20.6h18.6c10.2,0,18.3,3.2,24.2,9.7c5.9,6.5,8.7,14.3,8.7,23.2c0,8.7-2.9,16.3-8.7,22.8
	c-5.9,6.5-13.9,9.7-24.2,9.7h-18.6V220.7z"/>
</svg>
