<?xml version="1.0" encoding="utf-8"?>
<!-- Generator: Adobe Illustrator 24.0.1, SVG Export Plug-In . SVG Version: 6.00 Build 0)  -->
<svg version="1.1" id="Layer_1_copy" xmlns="http://www.w3.org/2000/svg" xmlns:xlink="http://www.w3.org/1999/xlink" x="0px"
	 y="0px" viewBox="0 0 1920 1080" style="enable-background:new 0 0 1920 1080;" xml:space="preserve">
<g style="opacity:0.49;">
	<g>
		<g>
			<g>
				<defs>
					<rect id="SVGID_1_" x="-3.8" width="1923.8" height="1074.7"/>
				</defs>
				<clipPath id="SVGID_2_">
					<use xlink:href="#SVGID_1_"  style="overflow:visible;"/>
				</clipPath>
				<g style="clip-path:url(#SVGID_2_);">
					<g>
						<g>
							<g>
								<path style="fill:#17718C;" d="M252.6,886.8c-6.3-17.5-15-33.4-25.6-47.4c-60.6-80.5,67.7-76.9,52-202.7
									C263.1,510.6,137.5,488,137.5,488S13,460.2-50.3,570.2S6.2,726.6-80.9,777.3c-16.3,9.5-31.7,21.9-44.9,37.1"/>
								<path style="fill:#17718C;" d="M41.9,643.9c0.1,10,0.7,20.2,2.1,30.3c2.6,20.5,7.1,41.3,9.2,61.8c1,10.2,1.4,20.3,0.9,30.1
									c-0.4,9.9-1.7,19.7-3.7,29.2c-2.1,9.6-4.9,19-8.7,28.2c-2.7,6.4-5.3,14.8-8.8,20.9L95,856.7c-0.9-7.1-1.8-16-1.7-22.9
									c0.1-10,1.1-19.8,2.8-29.3c1.7-9.7,4.4-19.1,7.8-28.3s7.7-18.5,12.5-27.4c9.7-18,22-35.5,32.3-53.4
									c5.2-8.9,9.9-18,13.7-27.3c3.9-9.2,7-18.6,9.2-28.1c2.4-9.5,3.5-19.3,4.9-29c1.3-9.7,2.4-19.5,3.5-29.2
									c2-19.6,3.5-39.2,4.2-59.1c0.2-6,0.4-12,0.4-18.1c-26-13.1-46.9-16.9-46.9-16.9s-22.5-5-53.4-2.3
									c-2.1,5.2-4.2,10.6-6.3,15.8c-7,18.6-13.4,37.2-19,56.1c-2.8,9.4-5.5,18.9-8.1,28.3c-2.5,9.5-5.2,18.9-6.6,28.5
									C42.7,624.2,42,634,41.9,643.9z"/>
								<g>
									<path style="fill:#85CBE0;" d="M135,698c-13.4-1.5-26.7-3.7-39.8-6.3c-23-4.6-45.5-10.9-67.2-18.8c-25-9-45-18.9-59.9-27
										C-34.5,706,11.7,761.8,78.7,775.4c66.5,13.3,130.4-19.7,151.7-75.3C198.1,702.3,166.2,701.6,135,698z"/>
									<path style="fill:#85CBE0;" d="M31.2,665.3c33.5,12.1,68.7,20.4,105,24.6c31.7,3.7,64.1,4.1,97,1.6
										c0.9-3.1,1.6-6.1,2.3-9.3c9.6-47.7-13-95.1-53.7-123.4l0,0v0.6v2.2c0,0.7,0,1.4-0.1,2.2v1.2v0.6v0.6
										c-0.1,1.5-0.3,3-0.5,4.5c-0.4,3-1.1,5.9-1.8,8.7c-0.4,1.4-0.9,2.8-1.4,4.2c-0.3,0.6-0.4,1.4-0.7,2l-0.9,2.1
										c-0.3,0.6-0.6,1.3-0.9,2.1c-0.3,0.6-0.6,1.3-1,2c-0.7,1.3-1.3,2.6-2.2,3.8c-1.5,2.5-3.2,4.9-5,7.1
										c-7.4,9.1-17.2,16.1-28.1,20.1l-2,0.7l-1.1,0.4l-1.1,0.4l-2.1,0.6l-2.1,0.4l-1.1,0.2l-1.1,0.2l-1.8,0.4
										c-0.7,0.1-1.4,0.2-2.1,0.3l-1.1,0.1c-0.4,0.1-0.7,0-1,0.1l-2.1,0.2c-0.7,0-1.4,0-2.2,0l-1,0.1c-0.1,0-0.3,0.1-0.6,0h-0.6
										c-0.7,0-1.5-0.1-2.2-0.1c-3-0.3-5.9-0.6-9-1.3c-2.9-0.7-5.7-1.7-8.6-2.8c-2.7-1.2-5.3-2.7-7.8-4.2
										c-2.5-1.6-4.8-3.4-6.9-5.4s-4-4.1-5.8-6.3c-3.4-4.5-6.1-9.6-7.8-14.9c-0.3-0.7-0.4-1.4-0.6-2.1c-0.1-0.7-0.4-1.4-0.6-2.1
										l-0.4-2.1c-0.1-0.7-0.3-1.4-0.3-2c-0.1-0.3-0.1-0.7-0.1-1l-0.1-1c-0.1-0.3-0.1-0.7-0.1-1l-0.1-1c-0.1-1.3,0-2.8,0-4.1
										l0.1-2.1c0-0.1,0.1-0.3,0.1-0.4v-0.6l0.1-1c0.2-1.3,0.4-2.7,0.7-4.1c0.6-2.7,1.5-5.3,2.7-7.7c1.1-2.4,2.7-4.6,4.3-6.7
										c1.6-2.1,3.4-3.9,5.4-5.5c0.5-0.4,1-0.8,1.5-1.2l0.7-0.6c0.2-0.2,0.5-0.4,0.8-0.5l0.8-0.5l0.8-0.5c0.2-0.2,0.5-0.3,0.8-0.5
										l0.8-0.5c2.2-1.1,4.4-1.8,6.7-2.4c0.6-0.1,1.1-0.2,1.7-0.3s1.1-0.1,1.7-0.2c0.6-0.1,1.1-0.1,1.7-0.2c0.6,0,1.1-0.1,1.7-0.1
										l1.6,0.1l1.6,0.1c0.6,0,1.1,0.2,1.6,0.2l1.5,0.4l0.1,0.3c-4.1,1.4-7.5,3.5-10.3,6.1c-1.4,1.2-2.6,2.6-3.7,4s-2,2.9-2.7,4.5
										c-0.7,1.5-1.3,3-1.7,4.6c-0.1,0.3-0.1,0.8-0.2,1.2l-0.2,1.2v1.2c-0.1,0.4,0,0.7,0,1.2c-0.1,1.5,0,2.9,0.3,4.3
										c0.1,0.7,0.3,1.4,0.4,2.1l0.1,0.6l0.1,0.3c0,0.1,0,0.1,0.1,0.3l0.4,1.1c0.3,0.7,0.4,1.4,0.9,2l0.3,0.5
										c0,0.1,0.2,0.2,0.3,0.5l0.3,0.5c0,0.1,0.2,0.2,0.3,0.5l0.5,0.9l0.6,0.9c0.2,0.2,0.4,0.6,0.6,0.9c0.2,0.2,0.4,0.5,0.6,0.9
										l0.2,0.4c0,0.1,0.2,0.2,0.4,0.4l0.4,0.4c0.2,0.1,0.2,0.2,0.4,0.4c0.2,0.2,0.4,0.5,0.7,0.7l0.7,0.7c0.9,1,2,1.8,3,2.4
										c0.3,0.2,0.5,0.3,0.8,0.5s0.5,0.3,0.8,0.5l0.8,0.4c0.2,0.1,0.3,0.1,0.5,0.2l0.5,0.2c1.1,0.5,2.2,1,3.3,1.3s2.3,0.5,3.3,0.7
										c1.2,0.2,2.2,0.3,3.4,0.3c1.2,0,2.2,0,3.3-0.3c0.3-0.1,0.6-0.1,0.8-0.2h0.1c0,0,0.1,0,0.3-0.1l0.4-0.1
										c0.3-0.1,0.6-0.1,1-0.2l1-0.2c0.1,0,0.3-0.1,0.4-0.1l0.4-0.1l0.9-0.3l0.8-0.3l0.4-0.1l0.4-0.2c0.3-0.1,0.5-0.3,0.8-0.3
										l0.8-0.3l0.4-0.2l0.4-0.2c0.2-0.2,0.5-0.3,0.8-0.5l0.8-0.5l0.4-0.2l0.4-0.2c0.2-0.2,0.5-0.3,0.8-0.5l0.7-0.6l0.4-0.2
										l0.4-0.2l0.7-0.6c0.2-0.2,0.5-0.4,0.6-0.6l0.4-0.2l0.4-0.4l0.6-0.6c0.2-0.2,0.4-0.4,0.6-0.6s0.4-0.4,0.6-0.7
										c0.2-0.2,0.4-0.4,0.6-0.7c0.3-0.5,0.7-0.9,1.2-1.4c0.2-0.2,0.3-0.5,0.6-0.7c0.1-0.2,0.3-0.5,0.4-0.7
										c2.5-3.9,4.2-8.1,4.8-12.6c0-0.6,0-1.2,0.1-1.6v-0.1v-0.1l0.1-0.4c-0.1-0.3,0-0.6,0-0.9c-0.1-0.3,0-0.6,0-0.9
										c0-0.1-0.1-0.3,0.1-0.4l-0.1-0.4c0-0.7-0.1-1.3-0.1-2c-0.2-2.6-0.8-5.2-1.6-7.6c-1.6-4.9-4.3-9.5-7.9-13.4
										c-0.2-0.1-0.4-0.4-0.5-0.5c-0.8-0.1-1.5-0.3-2.1-0.4c-74-15-144.2,26.7-157.6,92.9c-0.6,2.7-0.9,5.4-1.3,8.1
										C-15.3,645.8,5.9,656.3,31.2,665.3z"/>
								</g>
								<g>
									<g>
										
											<ellipse transform="matrix(0.1974 -0.9803 0.9803 0.1974 -636.405 560.9605)" style="fill:#FFFFFF;" cx="24.4" cy="669.1" rx="53.4" ry="35.9"/>
										<path style="fill:#17718C;" d="M33.9,683.8c-6.7-1.4-10.9-7.9-9.7-14.5l0,0c1.4-6.7,7.9-10.9,14.5-9.7l13.5,2.7
											c-0.2-16.8-8-30.4-19.9-32.8C17.5,626.5,2,642-2.6,663.9c-4.4,22,3.9,42.3,18.8,45.3c12,2.4,24.5-7.2,31.1-22.6
											L33.9,683.8z"/>
									</g>
									<g>
										
											<ellipse transform="matrix(0.1974 -0.9803 0.9803 0.1974 -548.2737 726.9099)" style="fill:#FFFFFF;" cx="169.8" cy="698.3" rx="53.4" ry="35.9"/>
										<path style="fill:#17718C;" d="M179.5,713c-6.7-1.4-10.9-7.9-9.7-14.5l0,0c1.4-6.7,7.9-10.9,14.5-9.7l13.5,2.7
											c-0.2-16.8-8-30.4-19.9-32.8c-14.8-3-30.3,12.5-34.9,34.4c-4.4,22,3.9,42.3,18.8,45.3c12,2.4,24.5-7.2,31.1-22.6
											L179.5,713z"/>
									</g>
								</g>
							</g>
						</g>
						<g>
							<path style="fill:#17718C;" d="M-138.5,871.6c-58.3,65.6-79.1,186.4,21.6,366.1l94.9,20l94.9,20
								c167.5-125.9,195.3-246.6,166.3-330.4"/>
							<path style="fill:#17718C;" d="M-71,1071.2c-4.3,39.1-4.8,79,0.1,120.1c2.2,19.2,5.6,38.6,10.6,58.4l75.7,16
								c12.4-16.1,23.5-32.5,33.3-49.1c21-35.6,36.7-72.2,48.6-109.8c3-9.4,5.7-18.8,8.2-28.3c2.4-9.5,3.8-19.2,4.1-29.2
								c0.4-9.9-0.4-20.1-2.1-30.5s-4.2-20.9-7.3-31.6c-6-21.3-13.2-42.8-16.5-63.4c-0.5-3.3-1.4-4.4-1.7-7.6l-62-12.9
								c-1.6,2.7-2.9,3.3-4.6,6.1C4,927-11.3,943.8-25.3,960.8c-7,8.5-13.6,17.2-19.4,25.9s-10.6,17.8-14.3,27s-6.4,18.7-8,28.4
								C-68.6,1051.8-70,1061.5-71,1071.2z"/>
						</g>
					</g>
					<g>
						<path style="fill:#7F4285;" d="M1957.4,940.9c-13.7-11-28.7-19.3-44-25.3c-88.5-34.5,16.3-95.3-59.1-188.5
							c-75.1-93.1-187.2-48.9-187.2-48.9s-113.8,39.5-109.8,159.3c3.9,119.6,122.8,97.5,78.3,181.4c-8.4,15.7-14.5,33.3-17.6,52.3"
							/>
						<path style="fill:#7F4285;" d="M1667.7,850.8c5,8,10.6,15.7,16.8,23.4c12.3,15.1,26.2,29.7,38,44.9c6,7.6,11.1,15.5,15.8,23.7
							c4.5,8.1,8.4,16.5,11.5,25.4c3,8.7,5.4,17.6,7.1,27c1.1,6.4,3.1,14.4,3.2,21.2l55.9-20.9c-4.1-5.1-9.4-11.9-12.8-17.5
							c-5-8-9-16.3-12.3-25.1c-3.4-8.6-5.9-17.4-7.9-26.7c-1.9-9.1-3-18.5-3.5-28.3c-1.2-19.2,0-39.4-0.6-58.8
							c-0.3-9.7-1-19.2-2.5-28.7c-1.4-9.3-3.6-18.3-6.6-27.2c-2.9-8.7-6.7-17.1-10.5-25.7c-3.7-8.4-7.7-16.8-11.8-25.2
							c-8-16.6-16.8-33.2-25.9-49.4c-2.7-4.9-5.7-9.7-8.6-14.8c-27.3,2.4-45.9,9.8-45.9,9.8s-20.7,7.1-44,24.7
							c0.8,5.2,1.9,10.6,2.9,15.8c3.6,18.3,7.8,36.5,12.6,54.4c2.4,8.9,4.9,17.8,7.6,26.8c2.7,8.8,5.3,17.7,8.9,26.3
							C1658.5,834.5,1662.7,842.9,1667.7,850.8z"/>
						<g>
							<path style="fill:#E6B2ED;" d="M1769.2,847.9c-11.5,5.4-23.2,10.3-35.1,14.7c-20.8,7.7-41.9,13.9-63.3,18.3
								c-24.4,5-45.4,7.3-61.4,8c27.6,49.5,92.6,71.3,152.9,48.9c60-22.3,94.8-80.6,84.2-135.7C1821.9,820,1796,835.4,1769.2,847.9z
								"/>
							<path style="fill:#E6B2ED;" d="M1669.6,873.5c32.8-6.8,65.4-17.8,96.4-32.5c27.2-12.9,53.4-28.6,78.6-47
								c-0.9-2.8-1.8-5.8-2.8-8.6c-16-42.9-57.6-69.9-104.4-72.3l0,0l0.3,0.4l1.2,1.8c0.4,0.6,0.6,1.2,1.1,1.8l0.5,0.9l0.2,0.5
								l0.2,0.5c0.6,1.2,1.3,2.5,1.8,3.8c1.1,2.5,2.1,5.1,2.9,7.8c0.3,1.4,0.8,2.7,1,4.1c0.1,0.7,0.3,1.4,0.4,2.1l0.4,2.1
								c0.1,0.7,0.2,1.4,0.2,2.1c0.1,0.7,0.2,1.4,0.2,2.1c0.2,1.4,0.1,2.7,0.3,4.2c0.1,2.7-0.1,5.6-0.4,8.3
								c-1.4,11.1-5.9,21.6-12.6,30.2l-1.3,1.6l-0.6,0.8l-0.6,0.8l-1.5,1.5l-1.5,1.5l-0.7,0.6l-0.7,0.6l-1.5,1.3
								c-0.6,0.4-1,0.7-1.5,1.3l-0.9,0.7c-0.3,0.3-0.6,0.4-0.9,0.7l-1.6,1.2c-0.6,0.4-1.2,0.8-1.6,1.2l-0.9,0.5
								c-0.2,0.1-0.3,0.1-0.4,0.3l-0.4,0.3c-0.6,0.4-1.2,0.6-1.8,1.1c-2.5,1.3-5.2,2.5-7.8,3.3c-2.7,0.8-5.5,1.5-8.2,1.9
								c-2.8,0.5-5.5,0.6-8.3,0.5s-5.5-0.4-8.3-0.8c-2.6-0.5-5.3-1.2-7.9-2.3c-5-2-9.7-4.7-13.7-8c-0.5-0.4-1.1-0.9-1.4-1.3
								c-0.5-0.4-0.9-1-1.4-1.3l-1.3-1.4c-0.3-0.4-0.9-1-1.3-1.4c-0.3-0.3-0.3-0.4-0.6-0.7l-0.6-0.7c-0.3-0.3-0.4-0.6-0.6-0.7
								l-0.5-0.8c-0.7-1-1.3-2.1-1.9-3.2l-0.8-1.7c-0.1-0.2-0.1-0.3-0.2-0.5l-0.2-0.5l-0.5-0.9c-0.6-1.2-1.1-2.4-1.4-3.7
								c-0.9-2.4-1.3-5.1-1.7-7.5c-0.2-2.5-0.2-5.1,0-7.4c0.4-2.5,0.8-4.7,1.6-7.1c0.1-0.6,0.3-1.1,0.7-1.7l0.2-0.8
								c0.1-0.2,0.2-0.4,0.4-0.9l0.5-0.7l0.5-0.7c0.1-0.2,0.2-0.4,0.5-0.7l0.5-0.7c1.3-2,2.7-3.8,4.2-5.2c0.4-0.3,0.8-0.9,1.2-1.2
								c0.4-0.3,0.9-0.7,1.3-1s0.9-0.7,1.3-1s0.9-0.5,1.3-0.9l1.4-0.7l1.4-0.7c0.5-0.2,1-0.4,1.5-0.5l1.5-0.5l0.1,0.2
								c-2.5,3.2-4.2,6.6-5.2,9.9c-0.5,1.7-0.8,3.4-0.9,5c-0.1,1.7-0.1,3.4,0.1,4.8c0.2,1.6,0.6,3.1,0.9,4.5c0.1,0.3,0.2,0.7,0.4,1
								l0.4,1l0.5,0.9c0.1,0.3,0.2,0.7,0.5,0.9c0.6,1.2,1.5,2.4,2.4,3.4c0.4,0.6,0.9,1,1.4,1.3l0.3,0.3l0.2,0.1c0,0,0.1,0.2,0.2,0.1
								l0.8,0.6c0.5,0.4,1.1,0.9,1.6,1.3l0.4,0.2c0.2,0.1,0.3,0.3,0.4,0.2l0.4,0.2c0.2,0.1,0.3,0.3,0.4,0.2l0.9,0.4l0.9,0.4
								c0.2,0.1,0.7,0.3,0.9,0.4s0.7,0.3,0.9,0.4l0.4,0.2c0.2,0.1,0.2,0.1,0.4,0.2l0.4,0.2c0.2,0.1,0.2,0.1,0.4,0.2
								c0.4,0,0.6,0.1,0.8,0.2l0.8,0.2c1.2,0.3,2.4,0.4,3.7,0.5c0.4,0,0.5,0,0.9,0s0.5,0,0.9,0h0.9c0.2-0.1,0.4,0,0.4,0h0.4
								c1.1,0,2.3-0.3,3.3-0.5s2.2-0.6,3.2-1s1.9-0.9,2.8-1.4s1.8-1.2,2.5-1.8c0.1-0.2,0.4-0.3,0.5-0.6l0.2-0.1c0,0,0.2-0.1,0.1-0.2
								l0.3-0.3c0.3-0.3,0.4-0.3,0.7-0.6l0.7-0.6c0.2-0.1,0.3-0.3,0.3-0.3l0.3-0.3l0.5-0.6l0.5-0.7l0.3-0.3l0.3-0.3
								c0.1-0.2,0.4-0.5,0.5-0.7l0.5-0.7l0.3-0.3l0.2-0.4c0.1-0.2,0.4-0.5,0.5-0.7l0.5-0.7l0.2-0.4l0.2-0.4c0.1-0.2,0.2-0.4,0.5-0.7
								l0.2-0.8l0.2-0.4l0.2-0.4l0.2-0.8c0.1-0.2,0.1-0.6,0.2-0.8l0.2-0.4v-0.4l0.2-0.8c0.1-0.2,0.1-0.6,0.2-0.8s0.1-0.6,0.2-0.8
								s0.1-0.6,0.1-0.8c0-0.5,0.1-1.2,0.2-1.5c0.1-0.2,0-0.5,0.1-0.8c0.1-0.2,0-0.5,0.1-0.8c0.2-4.3-0.6-8.7-2.4-12.4
								c-0.2-0.5-0.5-0.9-0.7-1.4l-0.1-0.2l-0.1-0.2l-0.1-0.3c-0.1-0.3-0.2-0.5-0.5-0.8c-0.1-0.3-0.3-0.4-0.5-0.8
								c-0.1-0.2-0.1-0.2-0.3-0.3l-0.3-0.4c-0.3-0.4-0.7-1-1.1-1.4c-1.5-2-3.3-3.8-5.1-5.3c-3.8-3.2-8.1-5.5-12.9-6.9
								c-0.2-0.1-0.4,0-0.6-0.1c-0.7,0.2-1.3,0.5-2,0.7c-66,24.5-101.8,92.8-79.6,152.5c0.9,2.4,2,4.8,3,7
								C1622.7,880.7,1644.9,878.6,1669.6,873.5z"/>
						</g>
						<g>
							<g>
								
									<ellipse transform="matrix(0.9374 -0.3482 0.3482 0.9374 -202.0807 635.1949)" style="fill:#FFFFFF;" cx="1666.1" cy="879.8" rx="33.8" ry="50.3"/>
								<path style="fill:#7F4285;" d="M1681,886.6c-6,2.2-12.7-0.8-14.9-6.9l0,0c-2.2-6,0.8-12.7,6.9-14.9l12.2-4.5
									c-8.5-13.3-21.5-20.5-32.4-16.5c-13.3,5-18.3,25.1-10.9,45c7.4,19.8,24.3,31.9,37.6,26.9c10.7-4,15.9-17.9,13.8-33.6
									L1681,886.6z"/>
							</g>
							<g>
								
									<ellipse transform="matrix(0.9374 -0.3482 0.3482 0.9374 -176.8767 677.8246)" style="fill:#FFFFFF;" cx="1797.3" cy="831" rx="33.8" ry="50.3"/>
								<path style="fill:#7F4285;" d="M1812.3,837.9c-6,2.2-12.7-0.8-14.9-6.9l0,0c-2.2-6,0.8-12.7,6.9-14.9l12.2-4.5
									c-8.5-13.3-21.5-20.5-32.4-16.5c-13.3,5-18.3,25.1-10.9,45c7.4,19.8,24.3,31.9,37.6,26.9c10.7-4,15.9-17.9,13.8-33.6
									L1812.3,837.9z"/>
							</g>
						</g>
					</g>
					<g>
						<path style="fill:#7F4285;" d="M1616.1,1068.8c-13.3,81.8,30.9,188.4,201.8,281.2l85.9-31.9l85.6-31.8
							c70.2-184.9,31.4-295.1-34.1-347.4"/>
						<path style="fill:#7F4285;" d="M1770.5,1194c16.3,33.4,36.1,65.4,60.5,95.6c11.4,14.3,24.1,27.9,37.9,41.3l68.3-25.4
							c1.8-19.2,2.3-37.7,1.8-56c-1.3-38.9-7.2-76.2-16.6-111.9c-2.4-8.9-4.9-17.8-7.7-26.8c-2.9-8.7-6.6-17.2-11.5-25.4
							c-4.7-8.1-10.5-15.7-17-23.3c-6.6-7.4-13.9-14.5-21.7-21.6c-15.4-13.9-32.1-27.5-45.1-42.3c-2.2-2.3-3.4-2.8-5.3-5.3
							l-55.9,20.9c0.2,2.9-0.5,4.1-0.6,7.3c-0.3,19.7-3.9,40.9-6.6,61.5c-1.4,10.3-2.2,20.4-2.4,30.5c-0.2,9.9,0.5,19.4,2.3,28.7
							c1.7,9.2,4.3,18,7.9,26.7C1762.7,1177.3,1766.4,1185.7,1770.5,1194z"/>
					</g>
				</g>
			</g>
		</g>
	</g>
</g>
</svg>
