<?xml version="1.0" encoding="utf-8"?>
<!-- Generator: Adobe Illustrator 24.0.1, SVG Export Plug-In . SVG Version: 6.00 Build 0)  -->
<svg version="1.1" id="Layer_1" xmlns="http://www.w3.org/2000/svg" xmlns:xlink="http://www.w3.org/1999/xlink" x="0px" y="0px"
	 viewBox="0 0 1920 1080" style="enable-background:new 0 0 1920 1080;" xml:space="preserve">
<path style="opacity:0.35;fill:#7F4285;enable-background:new    ;" d="M945.4,687.1c0,14.6-4.6,26-13.7,34.2
	c-9.2,8.2-19.9,12.3-32.2,12.3s-23.1-4.1-32.2-12.3c-9.2-8.2-13.7-19.6-13.7-34.2V658h-33.1c-14.6,0-26-4.6-34.2-13.7
	c-8.2-9.2-12.3-19.9-12.3-32.2c0-12.7,4.1-23.6,12.3-32.8s19.6-13.7,34.2-13.7h33.1v-29.1c0-14.6,4.6-26,13.7-34.2
	c9.2-8.2,19.9-12.3,32.2-12.3s23.1,4.1,32.2,12.3c9.2,8.2,13.7,19.6,13.7,34.2v29.1h26.3c14.6,0,26,4.6,34.2,13.7
	c8.2,9.2,12.3,20.1,12.3,32.8c0,12.3-4.1,23.1-12.3,32.2c-8.2,9.2-19.6,13.7-34.2,13.7h-26.3V687.1z"/>
<path style="opacity:0.35;fill:#7F4285;enable-background:new    ;" d="M1090.5,323.4c0,6.1-1.9,10.9-5.8,14.4s-8.4,5.2-13.6,5.2
	s-9.7-1.7-13.6-5.2s-5.8-8.3-5.8-14.4v-12.3h-13.9c-6.1,0-10.9-1.9-14.4-5.8s-5.2-8.4-5.2-13.6c0-5.4,1.7-10,5.2-13.8
	c3.5-3.9,8.3-5.8,14.4-5.8h13.9v-12.2c0-6.1,1.9-10.9,5.8-14.4s8.4-5.2,13.6-5.2s9.7,1.7,13.6,5.2s5.8,8.3,5.8,14.4v12.3h11.1
	c6.1,0,10.9,1.9,14.4,5.8s5.2,8.5,5.2,13.8c0,5.2-1.7,9.7-5.2,13.6s-8.3,5.8-14.4,5.8h-11.1V323.4z"/>
<path style="opacity:0.35;fill:#7F4285;enable-background:new    ;" d="M1493.5,497.2c0,6.1-1.9,10.9-5.8,14.4
	c-3.9,3.5-8.4,5.2-13.6,5.2s-9.7-1.7-13.6-5.2s-5.8-8.3-5.8-14.4v-12.3h-13.9c-6.1,0-10.9-1.9-14.4-5.8s-5.2-8.4-5.2-13.6
	c0-5.4,1.7-10,5.2-13.8c3.5-3.9,8.3-5.8,14.4-5.8h13.9v-12.3c0-6.1,1.9-10.9,5.8-14.4s8.4-5.2,13.6-5.2s9.7,1.7,13.6,5.2
	s5.8,8.3,5.8,14.4v12.3h11.1c6.1,0,10.9,1.9,14.4,5.8s5.2,8.5,5.2,13.8c0,5.2-1.7,9.7-5.2,13.6s-8.3,5.8-14.4,5.8h-11.1V497.2z"/>
<g style="opacity:0.35;">
	<path style="fill:#7F4285;" d="M552.5,658l-0.3-0.1c-2.1-10.7-5.6-20.7-10.3-29.9c-28.7-55.9,49.7-40.1,53.3-119.2
		c2.1-46.7-23.2-75.3-44.2-90.9l0,0c-0.4-0.3-0.8-0.6-1.1-0.8c-0.1-0.1-0.2-0.2-0.3-0.2c-0.4-0.3-0.7-0.5-1.1-0.8
		c-0.1-0.1-0.2-0.2-0.3-0.2c-0.4-0.3-0.7-0.5-1.1-0.8c-0.1,0-0.1-0.1-0.2-0.1c-1.3-0.9-2.5-1.7-3.7-2.5l0,0
		c-0.4-0.2-0.8-0.5-1.1-0.7c-0.1,0-0.1-0.1-0.2-0.1c-0.4-0.2-0.7-0.5-1.1-0.7c0,0-0.1,0-0.1-0.1c-1.6-0.9-3.1-1.8-4.5-2.6l0,0
		c-0.3-0.2-0.7-0.4-1-0.5h-0.1c-1.7-0.9-3.3-1.7-4.6-2.4h-0.1c-0.3-0.1-0.5-0.2-0.8-0.4h-0.1c-1-0.5-1.9-0.9-2.6-1.2
		c0,0-0.1,0-0.1-0.1c-0.2-0.1-0.3-0.1-0.5-0.2c0,0-0.1,0-0.1-0.1c-0.1-0.1-0.3-0.1-0.4-0.2h-0.1c-0.4-0.2-0.7-0.3-0.9-0.4
		c0,0-0.1,0-0.1-0.1c-0.1,0-0.1,0-0.2-0.1h-0.1h-0.1h-0.1l0,0l0,0l0,0l0,0c0,0,0,0-0.1,0c0,0,0,0-0.1,0c0,0-0.1,0-0.1-0.1h-0.1
		c-0.1,0-0.1,0-0.2-0.1h-0.1c-0.1,0-0.2-0.1-0.3-0.1h-0.1c-0.6-0.2-1.5-0.5-2.7-0.9l0,0c-4.7-1.6-13.8-4.1-25.2-5.4
		c-0.1,0-0.1,0-0.2,0c-0.5-0.1-1.1-0.1-1.6-0.2c-0.1,0-0.1,0-0.2,0c-26-2.5-63.6,1.9-93.2,37.7c-50.5,61,18.2,102-40.6,124.1
		c-10.4,3.9-20.6,9.5-30,16.9l-1.6-0.6c-42.4,34.7-67.2,106.8-23.2,227.6l33.6,13l22.8,8.8l22.2,8.6l34.2,13.2
		C533,784.1,562.1,712.6,552.5,658z"/>
	<g>
		<path style="fill:#17718C;" d="M385,424.9l15-15.5c0,0-0.1,0-0.1-0.1l105.3-110c-17.2-4.1-34.4-5.3-50.9-4.1
			c-95.3,6.7-26.2-93.5-134.6-145.9c-64-31-119.1-12.8-153.4,7.3l0,0l0,0c-0.6,0.4-1.2,0.7-1.8,1.1c-0.2,0.1-0.4,0.2-0.6,0.3
			c-0.6,0.3-1.1,0.7-1.7,1c-0.2,0.1-0.4,0.2-0.5,0.3c-0.6,0.4-1.2,0.7-1.7,1.1c-0.1,0.1-0.2,0.1-0.3,0.2c-2,1.3-3.8,2.5-5.6,3.7l0,0
			c-0.6,0.4-1.1,0.8-1.7,1.2c-0.1,0.1-0.2,0.1-0.3,0.2c-0.5,0.4-1.1,0.8-1.6,1.1c-0.1,0-0.1,0.1-0.2,0.1c-2.3,1.6-4.4,3.2-6.3,4.7
			c0,0,0,0-0.1,0.1c-0.5,0.4-0.9,0.7-1.4,1.1l-0.1,0.1c-2.3,1.8-4.3,3.5-6.1,5.1l-0.1,0.1c-0.3,0.3-0.6,0.6-0.9,0.8l-0.1,0.1
			c-1.3,1.1-2.3,2.1-3.2,3c-0.1,0-0.1,0.1-0.2,0.1c-0.2,0.2-0.4,0.3-0.5,0.5c-0.1,0.1-0.1,0.1-0.2,0.2c-0.2,0.2-0.3,0.3-0.5,0.4
			l-0.1,0.1c-0.4,0.4-0.8,0.8-1.1,1.1c-0.1,0.1-0.1,0.1-0.2,0.2c-0.1,0.1-0.1,0.1-0.2,0.2c-0.1,0.1-0.1,0.1-0.1,0.1l-0.1,0.1
			l-0.1,0.1c0,0,0,0-0.1,0.1l0,0l0,0l0,0l-0.1,0.1l0,0c-4.3,4.3-84.7,87.4-31.3,191.6c54.9,107.1,153.4,35.7,149,131.1
			c-0.8,17.9,1.1,36.5,6.4,54.9L385,424.9z"/>
		<path style="fill:#17718C;" d="M592.7,693.9l-193.2-72.3l-5.4-2l0,0l-143.4-53.7c-64.5,52.7-102.2,162.4-35.2,345.9l51.2,19.7
			l34.7,13.4l33.8,13l52,20.1C562.9,885.6,607.3,776.8,592.7,693.9z"/>
	</g>
</g>
</svg>
