<?xml version="1.0" encoding="utf-8"?>
<!-- Generator: Adobe Illustrator 24.0.1, SVG Export Plug-In . SVG Version: 6.00 Build 0)  -->
<svg version="1.1" id="Layer_1_copy_4" xmlns="http://www.w3.org/2000/svg" xmlns:xlink="http://www.w3.org/1999/xlink" x="0px"
	 y="0px" viewBox="0 0 504.1 230.8" style="enable-background:new 0 0 504.1 230.8;" xml:space="preserve">
<style type="text/css">
	.st0{opacity:0.5;}
	.st1{fill:#454584;}
	.st2{fill:#5757A3;}
	.st3{fill:#7687DD;}
	.st4{fill:#FFFFFF;}
</style>
<g class="st0">
	<g>
		<path class="st1" d="M0,184.3c5.9-3.4,11.1-7.5,15.4-12.3c25-27,32,19.4,76.2,5.6c44.3-13.8,44.3-60.5,44.3-60.5s2-46.5-41.7-62.2
			s-52.5,30.4-76.4,2.4c-4.5-5.3-9.9-10-16.3-13.7"/>
		<path class="st2" d="M73.8,92.9c-3.6,0.7-7.2,1.6-10.7,2.7c-7.2,2.3-14.4,5.2-21.6,7.3c-3.6,1-7.2,1.8-10.8,2.3
			c-3.6,0.5-7.1,0.7-10.7,0.5c-3.6-0.1-7.1-0.5-10.7-1.3c-2.5-0.6-5.6-1-8.1-1.8l-0.4,23.1c2.5-0.8,5.7-1.6,8.1-2.1
			c3.6-0.6,7.2-0.9,10.7-0.9c3.6,0,7.1,0.3,10.7,1c3.6,0.6,7.1,1.6,10.6,2.7c7.1,2.4,14.2,5.6,21.3,8.2c3.5,1.3,7.1,2.4,10.7,3.2
			c3.5,0.8,7.2,1.3,10.7,1.5c3.6,0.2,7.1,0,10.7-0.1c3.6-0.2,7.2-0.4,10.7-0.6c7.2-0.5,14.3-1.2,21.5-2.3c2.1-0.3,4.4-0.6,6.5-1
			c3-10.2,3-18,3-18s0.3-8.4-2.6-19.4c-2-0.4-4.1-0.8-6.1-1.2c-7.2-1.3-14.2-2.4-21.4-3.2c-3.6-0.4-7.1-0.7-10.7-1.1
			c-3.6-0.3-7.2-0.6-10.7-0.5C80.9,91.9,77.3,92.3,73.8,92.9z"/>
		<g>
			<path class="st3" d="M60.3,129.8c-0.3-4.9-0.4-9.8-0.3-14.7c0.2-8.6,1-17.1,2.4-25.4c1.6-9.5,3.9-17.4,5.8-23.3
				c-21.8,2.9-38.9,23.1-39.4,48.1c-0.5,24.7,15.5,45.6,36.9,49.6C62.9,152.8,61,141.3,60.3,129.8z"/>
			<path class="st3" d="M65.4,90.4c-2.2,12.8-2.9,26-2.1,39.3c0.7,11.6,2.7,23.3,5.7,35c1.2,0.1,2.3,0.2,3.5,0.2
				c17.8,0.4,33.3-10.8,40.9-27.3l0,0l-0.2,0l-0.8,0.1c-0.2,0.1-0.5,0.1-0.8,0.1l-0.5,0.1l-0.2,0l-0.2,0c-0.5,0-1.1,0.1-1.6,0.1
				c-1.1,0.1-2.2,0-3.2-0.1c-0.5-0.1-1.1-0.2-1.6-0.2c-0.3-0.1-0.5-0.1-0.8-0.1l-0.8-0.2c-0.3-0.1-0.5-0.1-0.8-0.2
				c-0.3-0.1-0.5-0.1-0.8-0.3c-0.5-0.2-1-0.3-1.5-0.6c-1-0.4-2-0.8-2.9-1.3c-3.7-2.1-6.9-5.2-9.1-8.8l-0.4-0.7l-0.2-0.4l-0.2-0.4
				l-0.3-0.7l-0.3-0.7l-0.2-0.4l-0.2-0.4l-0.2-0.6c-0.1-0.2-0.2-0.5-0.3-0.7l-0.1-0.4c-0.1-0.1-0.1-0.2-0.1-0.4l-0.2-0.8
				c-0.1-0.2-0.1-0.5-0.1-0.8l-0.1-0.4c0-0.1,0-0.1,0-0.2l0-0.2c-0.1-0.2,0-0.5-0.1-0.8c-0.1-1.1-0.2-2.2-0.1-3.3
				c0.1-1.1,0.3-2.2,0.5-3.3c0.3-1.1,0.6-2.1,1-3.1c0.4-1,0.9-2,1.5-2.8c0.6-0.9,1.2-1.7,1.9-2.5c1.4-1.5,3.1-2.8,4.9-3.7
				c0.2-0.2,0.4-0.2,0.7-0.3c0.2-0.1,0.4-0.2,0.7-0.3l0.7-0.3c0.2-0.1,0.5-0.2,0.7-0.2c0.1,0,0.2-0.1,0.4-0.1l0.4-0.1
				c0.1,0,0.2-0.1,0.4-0.1l0.4-0.1c0.5-0.1,1-0.2,1.5-0.2l0.7-0.1c0.1,0,0.1,0,0.2,0l0.2,0l0.4,0c0.5,0,1,0,1.5,0c1,0,2,0.2,3,0.5
				c0.9,0.2,1.9,0.6,2.7,1.1c0.8,0.4,1.6,1,2.3,1.6c0.2,0.2,0.4,0.3,0.5,0.5l0.3,0.2c0.1,0.1,0.2,0.2,0.2,0.3l0.2,0.3l0.2,0.3
				c0.1,0.1,0.1,0.2,0.2,0.3l0.2,0.3c0.5,0.8,0.9,1.5,1.3,2.3c0.1,0.2,0.2,0.4,0.2,0.6c0.1,0.2,0.1,0.4,0.2,0.6s0.1,0.4,0.2,0.6
				c0,0.2,0.1,0.4,0.1,0.6l0.1,0.6l0.1,0.6c0,0.2,0,0.4,0,0.6l0,0.6l-0.1,0c-0.8-1.4-1.7-2.5-2.8-3.3c-0.5-0.4-1.1-0.8-1.7-1.1
				c-0.6-0.3-1.2-0.5-1.8-0.7c-0.6-0.1-1.2-0.2-1.8-0.3c-0.1,0-0.3,0-0.4,0l-0.4,0l-0.4,0.1c-0.2,0-0.2,0.1-0.4,0.1
				c-0.5,0-1.1,0.2-1.5,0.4c-0.2,0.1-0.5,0.2-0.7,0.3l-0.2,0.1l-0.1,0c-0.1,0-0.1,0-0.1,0l-0.4,0.2c-0.2,0.2-0.4,0.2-0.7,0.4
				l-0.2,0.1c-0.1,0-0.1,0.1-0.2,0.1l-0.2,0.1c-0.1,0-0.1,0.1-0.2,0.1l-0.3,0.3l-0.3,0.3c-0.1,0.1-0.2,0.2-0.3,0.3s-0.2,0.2-0.3,0.3
				l-0.1,0.1c-0.1,0-0.1,0.1-0.1,0.1l-0.1,0.1c0,0.1-0.1,0.1-0.1,0.1c-0.1,0.1-0.2,0.2-0.2,0.3l-0.2,0.3c-0.3,0.4-0.5,0.8-0.7,1.2
				c0,0.2-0.1,0.2-0.1,0.4c0,0.2-0.1,0.2-0.1,0.4l-0.1,0.3c0,0.1,0,0.1,0,0.2l0,0.2c-0.1,0.4-0.2,0.8-0.3,1.3
				c-0.1,0.4-0.1,0.9,0,1.3c0,0.4,0.1,0.8,0.1,1.3c0.1,0.4,0.1,0.8,0.3,1.1c0,0.1,0.1,0.2,0.1,0.3l0,0.1c0,0,0,0.1,0,0.1l0.1,0.1
				c0,0.1,0.1,0.2,0.1,0.3l0.1,0.3c0,0.1,0,0.1,0.1,0.1l0.1,0.1l0.2,0.3l0.2,0.3l0.1,0.1l0.1,0.1c0,0.1,0.1,0.2,0.2,0.3l0.2,0.3
				l0.1,0.1l0.1,0.1c0.1,0.1,0.1,0.2,0.2,0.3l0.2,0.3l0.1,0.1l0.1,0.1c0.1,0.1,0.1,0.2,0.2,0.3l0.3,0.2l0.1,0.1l0.1,0.1l0.3,0.2
				c0.1,0.1,0.2,0.2,0.2,0.2l0.1,0.1l0.1,0.1l0.2,0.2c0.1,0.1,0.1,0.1,0.2,0.2c0.1,0.1,0.1,0.1,0.3,0.2c0.1,0.1,0.1,0.1,0.3,0.2
				c0.2,0.1,0.3,0.2,0.6,0.3c0.1,0.1,0.2,0.1,0.3,0.2c0.1,0,0.2,0.1,0.2,0.1c1.6,0.7,3.2,1,4.9,0.9c0.2,0,0.4-0.1,0.6-0.1l0.1,0
				l0.1,0l0.2,0c0.1,0,0.2,0,0.3-0.1c0.1,0,0.2,0,0.3-0.1c0.1,0,0.1,0,0.2,0l0.1-0.1c0.2-0.1,0.5-0.1,0.7-0.2
				c0.9-0.3,1.8-0.6,2.6-1.1c1.7-0.9,3.2-2.2,4.3-3.7c0-0.1,0.1-0.1,0.1-0.2c0-0.3,0-0.6,0-0.8c0.6-27.3-18.9-49.8-43.6-50.3
				c-1,0-2,0-3,0C69.4,72.4,67,80.7,65.4,90.4z"/>
		</g>
		<g>
			<g>
				
					<ellipse transform="matrix(2.120697e-02 -0.9998 0.9998 2.120697e-02 -25.9736 149.8542)" class="st4" cx="63.5" cy="88.2" rx="13.1" ry="19.5"/>
				<path class="st1" d="M58.9,92.6c0.1-2.5,2.1-4.4,4.6-4.4l0,0c2.5,0.1,4.4,2.1,4.4,4.6l-0.1,5c6-1.2,10.4-4.8,10.5-9.3
					c0.1-5.5-6.4-10.1-14.6-10.3s-15,4.2-15.1,9.7c-0.1,4.4,4.2,8.3,10.1,9.7L58.9,92.6z"/>
			</g>
			<g>
				
					<ellipse transform="matrix(2.120717e-02 -0.9998 0.9998 2.120717e-02 -81.2503 201.7803)" class="st4" cx="62.4" cy="142.4" rx="13.1" ry="19.5"/>
				<path class="st1" d="M57.8,146.8c0.1-2.5,2.1-4.4,4.6-4.4l0,0c2.5,0.1,4.4,2.1,4.4,4.6l-0.1,5c6-1.2,10.4-4.8,10.5-9.3
					c0.1-5.5-6.4-10.1-14.6-10.3s-15,4.2-15.1,9.7c-0.1,4.4,4.2,8.3,10.1,9.7L57.8,146.8z"/>
			</g>
		</g>
	</g>
</g>
</svg>
