<?xml version="1.0" encoding="utf-8"?>
<!-- Generator: Adobe Illustrator 24.0.1, SVG Export Plug-In . SVG Version: 6.00 Build 0)  -->
<svg version="1.1" id="Layer_1_copy" xmlns="http://www.w3.org/2000/svg" xmlns:xlink="http://www.w3.org/1999/xlink" x="0px"
	 y="0px" viewBox="0 0 588.2 594.5" style="enable-background:new 0 0 588.2 594.5;" xml:space="preserve">
<path style="fill:#FFFFFF;" d="M503.7,368.5l-181.4-19.1l162.6-82.9c3.3-1.7,4.6-5.7,3-9c-1.7-3.3-5.7-4.6-9-3l-162.6,82.9
	l91.3-158.1c1.9-3.2,0.8-7.4-2.4-9.3c-3.2-1.9-7.4-0.8-9.3,2.4l-90.3,156.1v-180c0-3.7-3.1-6.7-6.7-6.7c-3.7,0-6.7,3.1-6.7,6.7V331
	l-99.4-153c-2-3.1-6.3-4-9.4-2c-3.1,2-4,6.3-2,9.4l99.4,153L114,264.3c-3.4-1.5-7.4,0-8.9,3.4s0,7.4,3.4,8.9l166.7,74.2L95,379.2
	c-3.6,0.6-6.2,4.1-5.6,7.7s4.1,6.2,7.7,5.6L277.3,364L141.7,486.1c-2.8,2.5-3,6.8-0.6,9.6l0,0c2.5,2.8,6.8,3,9.6,0.6l135.6-122.1
	l-47.2,176.2c-1,3.6,1.2,7.3,4.7,8.3l0,0c3.6,1,7.3-1.2,8.3-4.7l47.3-176.4l56.4,173.6c1.1,3.5,5,5.5,8.5,4.3c3.5-1.1,5.5-5,4.3-8.5
	l-56.4-173.6l141.9,114.9c2.9,2.3,7.2,1.9,9.5-1s1.9-7.2-1-9.5L320.8,362.9L502.2,382c3.7,0.4,7.1-2.3,7.4-6.1l0,0
	C510.1,372.3,507.3,369,503.7,368.5z"/>
<g>
	<path style="fill:#7F4285;" d="M382.7,386.6c-2.1-7.1-5.4-13.4-9.3-19.2c-22.5-32.8,28.1-29.1,24-79.1
		c-4.1-49.9-53.2-61.1-53.2-61.1s-48.7-13.2-75.6,29.2c-26.9,42.3,19.5,62.7-15.7,81.2c-6.6,3.4-12.9,8.2-18.4,13.9"/>
	<path style="fill:#7F4285;" d="M303.7,287.1c-0.1,4,0,7.9,0.3,12c0.7,8.2,2.1,16.4,2.5,24.5c0.2,4.1,0.2,7.9-0.1,11.9
		c-0.3,3.9-1,7.7-2,11.5c-1,3.7-2.3,7.4-4,11c-1.1,2.5-2.3,5.7-3.9,8l24.2,6c-0.2-2.8-0.4-6.3-0.3-9c0.1-4,0.8-7.7,1.7-11.6
		c0.9-3.7,2.1-7.4,3.5-11.1c1.5-3.6,3.3-7.2,5.5-10.6c4.1-6.9,9.3-13.7,13.7-20.5c2.2-3.4,4.2-6.9,6-10.5c1.7-3.5,3.1-7.2,4.2-10.9
		c1.1-3.7,1.8-7.5,2.4-11.4c0.7-3.7,1.3-7.6,1.9-11.5c1.1-7.6,2-15.4,2.6-23.3c0.2-2.3,0.3-4.7,0.4-7.2c-10-5.6-18.2-7.4-18.2-7.4
		s-8.8-2.4-21.1-1.9c-1,2-1.9,4.1-2.8,6.2c-3.1,7.2-6,14.4-8.5,21.8c-1.3,3.6-2.5,7.3-3.7,11c-1.1,3.6-2.3,7.4-3.2,11.2
		C304.5,279.2,303.9,283.1,303.7,287.1z"/>
	<g>
		<path style="fill:#E6B2ED;" d="M339.5,310c-5.3-0.9-10.5-1.9-15.7-3.2c-9-2.2-17.7-5.1-26.2-8.6c-9.6-4.1-17.4-8.3-23.1-11.7
			c-2.1,23.7,15.2,46.5,41.4,53c26,6.4,51.8-5.5,61.2-27.1C364.5,312.7,351.8,312,339.5,310z"/>
		<path style="fill:#E6B2ED;" d="M299.1,295.3c13,5.4,26.8,9.3,41,11.5c12.5,2,25.2,2.8,38.2,2.3c0.3-1.2,0.8-2.4,1.1-3.6
			c4.6-18.6-3.4-37.8-19.1-49.7l0,0v0.2v0.9c0,0.3-0.1,0.6-0.1,0.9v0.4v0.2v0.2c-0.1,0.6-0.1,1.2-0.3,1.8c-0.2,1.1-0.4,2.3-0.9,3.4
			c-0.2,0.6-0.3,1.1-0.7,1.7c-0.1,0.2-0.2,0.6-0.3,0.8l-0.3,0.8c-0.1,0.2-0.3,0.6-0.4,0.8s-0.3,0.6-0.4,0.8c-0.3,0.6-0.7,1-0.9,1.5
			c-0.7,1-1.3,1.9-2.1,2.8c-3.1,3.5-7.2,6.1-11.5,7.5l-0.8,0.2l-0.4,0.1l-0.4,0.1l-0.9,0.1l-0.9,0h-0.4h-0.4l-0.9,0.1
			c-0.3,0-0.6,0-0.9,0.1H336c-0.1,0-0.3,0-0.4,0h-0.9c-0.3,0-0.6,0-0.9,0h-0.4c-0.1,0-0.1,0-0.2,0H333c-0.3,0-0.6-0.1-0.9-0.1
			c-1.2-0.1-2.4-0.3-3.5-0.7c-1.1-0.3-2.3-0.8-3.3-1.2c-1.1-0.4-2.1-1.1-3-1.8c-1-0.7-1.9-1.4-2.6-2.2c-0.8-0.8-1.5-1.7-2.2-2.6
			c-1.2-1.9-2.2-4-2.9-6.1c-0.1-0.2-0.1-0.6-0.2-0.8s-0.1-0.6-0.2-0.8l-0.1-0.8c0-0.2-0.1-0.6-0.1-0.8c0-0.1,0-0.2,0-0.4v-0.4
			c0-0.1,0-0.3,0-0.4v-0.3c0-0.6,0-1,0.1-1.5l0.1-0.8c0-0.1,0-0.1,0-0.2v-0.2v-0.4c0.1-0.6,0.2-1.1,0.4-1.7c0.2-1.1,0.8-2.1,1.2-3
			c0.6-0.9,1.1-1.8,1.8-2.5c0.8-0.8,1.4-1.4,2.2-2.1c0.2-0.2,0.3-0.3,0.7-0.4l0.3-0.2c0.1,0,0.2-0.1,0.3-0.2l0.3-0.1l0.3-0.1
			c0.1,0,0.2-0.1,0.3-0.1l0.3-0.1c0.9-0.3,1.8-0.7,2.6-0.9c0.2,0,0.4-0.1,0.7-0.1s0.4,0,0.7,0s0.4,0,0.7,0s0.4,0,0.7,0l0.7,0.1
			l0.7,0.1c0.2,0,0.4,0.1,0.7,0.1l0.7,0.1v0.1c-1.7,0.6-3,1.3-4.2,2.2c-0.6,0.4-1.1,1-1.5,1.5c-0.4,0.6-0.8,1.1-1.1,1.7
			s-0.6,1.2-0.8,1.8c0,0.1-0.1,0.3-0.1,0.4l-0.1,0.4v0.4c0,0.1-0.1,0.3,0,0.4c-0.1,0.6-0.1,1.2,0,1.8c0,0.3,0.1,0.6,0.2,0.8v0.1v0.1
			v0.1l0.1,0.4c0.1,0.2,0.1,0.6,0.2,0.8l0.1,0.2c0,0.1,0,0.1,0.1,0.2l0.1,0.2c0,0.1,0,0.1,0.1,0.2l0.2,0.3l0.2,0.3
			c0,0.1,0.1,0.2,0.2,0.3c0,0.1,0.1,0.2,0.2,0.3l0.1,0.2c0,0.1,0,0.1,0.1,0.2l0.1,0.2c0,0.1,0,0.1,0.1,0.2s0.2,0.2,0.2,0.3l0.2,0.3
			c0.3,0.4,0.8,0.7,1.2,1c0.1,0.1,0.2,0.1,0.3,0.2c0.1,0.1,0.2,0.1,0.3,0.2l0.3,0.2c0.1,0,0.1,0.1,0.1,0.1l0.1,0.1
			c0.4,0.2,0.9,0.4,1.3,0.7c0.4,0.2,0.9,0.3,1.3,0.4s0.9,0.1,1.3,0.2s0.9,0,1.3-0.1c0.1,0,0.2,0,0.3-0.1h0.1h0.1h0.1
			c0.1,0,0.2,0,0.4,0h0.4c0.1,0,0.1,0,0.1,0h0.1l0.3-0.1l0.3-0.1h0.1h0.1c0.1,0,0.2-0.1,0.3-0.1l0.3-0.1h0.1l0.2-0.1
			c0.1,0,0.2-0.1,0.3-0.1l0.3-0.1l0.2-0.1l0.2-0.1c0.1,0,0.2-0.1,0.3-0.1l0.3-0.2l0.2-0.1l0.2-0.1l0.3-0.2c0.1,0,0.2-0.2,0.3-0.2
			l0.2-0.1l0.1-0.1l0.3-0.2c0.1,0,0.2-0.2,0.3-0.2c0.1,0,0.2-0.2,0.3-0.2c0.1,0,0.2-0.2,0.2-0.2c0.1-0.2,0.3-0.3,0.4-0.4
			c0.1,0,0.1-0.2,0.2-0.2s0.1-0.2,0.2-0.2c1.1-1.4,1.9-3.2,2.1-4.8c0-0.2,0-0.4,0.1-0.7v-0.1v-0.1v-0.1c0-0.1,0-0.2,0-0.3
			c0-0.1,0-0.2,0-0.3s0-0.1,0-0.1v-0.2c0-0.2,0-0.6,0-0.8c0-1.1-0.2-2.1-0.6-3.1c-0.6-2-1.5-3.9-2.9-5.4c0-0.1-0.1-0.1-0.2-0.2
			c-0.3-0.1-0.6-0.1-0.9-0.2c-28.7-7.1-57.1,8-63.5,33.9c-0.2,1.1-0.4,2.1-0.7,3.1C281.1,286.7,289.3,291.3,299.1,295.3z"/>
	</g>
	<g>
		<g>
			
				<ellipse transform="matrix(0.2404 -0.9707 0.9707 0.2404 -62.8317 513.0136)" style="fill:#FFFFFF;" cx="296.4" cy="296.7" rx="21.1" ry="14.2"/>
			<path style="fill:#7F4285;" d="M300,302.6c-2.6-0.7-4.2-3.3-3.5-6l0,0c0.7-2.6,3.3-4.2,6-3.5l5.3,1.3c0.2-6.6-2.6-12.1-7.3-13.3
				c-5.7-1.4-12.2,4.4-14.3,13s0.9,16.8,6.6,18.2c4.6,1.1,9.7-2.4,12.7-8.4L300,302.6z"/>
		</g>
		<g>
			
				<ellipse transform="matrix(0.2404 -0.9707 0.9707 0.2404 -33.2548 579.0577)" style="fill:#FFFFFF;" cx="353.4" cy="310.8" rx="21.1" ry="14.2"/>
			<path style="fill:#7F4285;" d="M356.8,316.7c-2.6-0.7-4.2-3.3-3.5-6l0,0c0.7-2.6,3.3-4.2,6-3.5l5.3,1.3
				c0.2-6.6-2.6-12.1-7.3-13.3c-5.7-1.4-12.2,4.4-14.3,13c-2.1,8.6,0.9,16.8,6.6,18.2c4.6,1.1,9.7-2.4,12.7-8.4L356.8,316.7z"/>
		</g>
	</g>
</g>
<g>
	<path style="fill:#7F4285;" d="M234.5,350.3c-23.9,25.1-33.7,72.5,3.5,144.9l37.3,9.3l37.1,9.1c67.9-47.4,80.5-94.7,70.2-128.3"/>
	<path style="fill:#7F4285;" d="M258.4,430.1c-2.2,15.4-3,31.2-1.7,47.4c0.6,7.6,1.8,15.3,3.4,23.3l29.6,7.4
		c5.2-6.2,9.7-12.5,13.8-19c8.7-13.8,15.5-28.1,20.7-42.7c1.3-3.6,2.5-7.3,3.6-11.1c1.1-3.7,1.8-7.5,2-11.5
		c0.3-3.9,0.1-7.9-0.3-12.1c-0.6-4.1-1.4-8.3-2.4-12.6c-2-8.5-4.6-17.1-5.6-25.2c-0.2-1.3-0.6-1.8-0.6-3.1l-24.2-6
		c-0.7,1-1.1,1.3-2,2.3c-4.7,6.7-11,13.2-16.8,19.7c-2.9,3.2-5.6,6.5-8,10c-2.4,3.4-4.4,6.8-6,10.5c-1.5,3.6-2.8,7.3-3.5,11.1
		C259.6,422.4,258.9,426.3,258.4,430.1z"/>
</g>
<g>
	<g>
		<g>
			<path style="fill:#17718C;" d="M393.7,185.3c-6.9-7.2-14.8-13.1-23.1-17.6c-47.6-26,16.2-52.8-19.5-111.1S248.5,15,248.5,15
				s-67.3,14-74,82.1s62.5,64.3,31,108.5c-5.8,8.3-10.7,17.7-13.8,28.2"/>
			<path style="fill:#17718C;" d="M236.2,112.8c2.2,4.8,4.8,9.7,7.8,14.4c5.8,9.5,12.7,18.7,18.2,28.3c2.8,4.8,5.2,9.7,7.2,14.5
				c2,5,3.5,10,4.6,15.2s1.9,10.5,2,15.8c0.1,3.7,0.7,8.4,0.3,12.2l33.2-7.8c-2-3.3-4.4-7.5-6-10.8c-2.2-5-3.9-9.9-5.1-15
				c-1.3-5.2-2.1-10.4-2.4-15.7s-0.3-10.8,0-16.3c0.8-11,2.9-22.4,4-33.4c0.6-5.5,0.9-11,0.7-16.4c-0.1-5.4-0.7-10.7-1.8-15.9
				c-1-5.2-2.5-10.3-4.1-15.3c-1.5-5.1-3.2-10.1-4.7-15.1c-3.4-10-6.9-20.1-11.1-30c-1.2-3-2.4-6-3.9-8.9
				c-15.7-0.7-26.8,2.1-26.8,2.1s-12.1,2.5-26.8,10.8c0.1,3.1,0.3,6.2,0.4,9.1c0.7,10.7,1.7,21.3,3.1,31.7
				c0.8,5.3,1.5,10.5,2.3,15.7c0.9,5.2,1.7,10.5,3.1,15.4C232.2,103,234.1,108,236.2,112.8z"/>
			<g>
				<path style="fill:#85CBE0;" d="M293.9,118.8c-6.9,2.2-14,4.2-20.9,5.7c-12.3,2.9-24.8,4.7-37.1,5.7c-14.2,1.1-26.3,0.8-35.5,0
					c12,30.1,47.2,47.3,83.1,39c35.6-8.3,59.6-38.6,57.8-70.7C325.9,106.9,310,113.6,293.9,118.8z"/>
				<path style="fill:#85CBE0;" d="M235.7,125.7c19.2-1.4,38.2-5.3,57-11.2c16.3-5.3,32.4-12.2,47.9-20.8c-0.2-1.8-0.6-3.4-1-5.1
					C333.6,63,312,44.8,285.8,40l0,0l0.1,0.3l0.4,1.1c0.1,0.3,0.3,0.7,0.4,1.1l0.2,0.6l0.1,0.3l0.1,0.3c0.2,0.8,0.6,1.5,0.8,2.3
					c0.4,1.5,0.8,3.1,1,4.6c0.1,0.8,0.2,1.5,0.2,2.4c0,0.3,0.1,0.8,0.1,1.2v1.2c0,0.3,0,0.8,0,1.2c0,0.3,0,0.8-0.1,1.2
					c-0.1,0.8-0.1,1.5-0.2,2.4c-0.2,1.5-0.4,3.1-0.9,4.6c-1.7,6.1-4.8,11.7-9.4,16.1l-0.9,0.8l-0.4,0.4l-0.4,0.4l-0.9,0.8l-0.9,0.7
					l-0.4,0.3l-0.4,0.3l-0.8,0.6c-0.3,0.2-0.7,0.4-1,0.7l-0.6,0.3c-0.2,0.1-0.3,0.1-0.4,0.2l-1,0.6c-0.3,0.1-0.7,0.3-1.1,0.4
					l-0.4,0.1c-0.1,0-0.1,0.1-0.3,0.1l-0.3,0.1c-0.3,0.1-0.8,0.2-1.1,0.4c-1.5,0.6-3.1,1-4.7,1.3c-1.5,0.3-3.2,0.4-4.8,0.6
					c-1.5,0-3.2-0.1-4.7-0.3c-1.7-0.2-3.1-0.6-4.6-1.1c-1.5-0.6-2.9-1.1-4.3-1.8c-2.6-1.4-5.1-3.4-7.2-5.6c-0.3-0.2-0.6-0.6-0.8-0.9
					s-0.6-0.6-0.8-0.9l-0.7-0.9c-0.2-0.3-0.4-0.7-0.6-0.9c-0.1-0.1-0.2-0.3-0.2-0.4l-0.2-0.4c-0.1-0.1-0.2-0.3-0.2-0.4l-0.2-0.4
					c-0.3-0.6-0.7-1.3-0.9-2l-0.3-1c0-0.1,0-0.2-0.1-0.2l-0.1-0.3l-0.2-0.6c-0.2-0.7-0.3-1.4-0.6-2.2c-0.3-1.4-0.4-2.9-0.3-4.4
					c0-1.4,0.3-2.9,0.6-4.2s0.8-2.6,1.4-3.9c0.1-0.3,0.3-0.7,0.4-0.9l0.2-0.4c0.1-0.1,0.1-0.3,0.3-0.4l0.3-0.4l0.3-0.4
					c0.1-0.1,0.2-0.2,0.3-0.4l0.3-0.4c0.9-1,1.8-1.9,2.8-2.6c0.2-0.2,0.4-0.3,0.8-0.6c0.2-0.2,0.6-0.3,0.8-0.4
					c0.2-0.2,0.6-0.3,0.8-0.4c0.3-0.1,0.6-0.3,0.9-0.4l0.8-0.3l0.8-0.3c0.3-0.1,0.6-0.1,0.9-0.2l0.9-0.1l0.1,0.1
					c-1.7,1.7-3,3.4-3.7,5.3c-0.4,0.9-0.8,1.9-0.9,2.8c-0.2,0.9-0.3,1.9-0.3,2.8c0,0.9,0.1,1.8,0.2,2.6c0,0.2,0.1,0.4,0.2,0.7
					l0.2,0.7l0.2,0.6c0.1,0.2,0.1,0.3,0.2,0.6c0.2,0.8,0.7,1.4,1.1,2c0.2,0.3,0.4,0.7,0.7,0.9l0.2,0.2l0.1,0.1c0,0.1,0,0.1,0.1,0.1
					l0.4,0.4c0.3,0.2,0.6,0.6,0.9,0.8l0.2,0.2c0,0.1,0.1,0.1,0.2,0.2l0.2,0.2c0,0.1,0.1,0.1,0.2,0.2l0.4,0.3l0.6,0.3
					c0.1,0.1,0.3,0.2,0.6,0.3c0.1,0.1,0.3,0.1,0.6,0.3l0.2,0.1c0,0.1,0.1,0.1,0.2,0.1l0.2,0.1c0.1,0,0.1,0.1,0.2,0.1
					c0.1,0.1,0.3,0.1,0.6,0.2l0.6,0.2c0.7,0.2,1.3,0.4,2,0.6c0.2,0,0.3,0,0.6,0.1c0.2,0,0.3,0,0.6,0.1h0.4c0.1,0,0.2,0,0.3,0h0.3
					c0.7,0,1.3,0,2-0.1c0.7-0.1,1.2-0.2,1.8-0.3c0.7-0.2,1.1-0.3,1.8-0.7c0.6-0.2,1.1-0.4,1.5-0.9c0.1-0.1,0.2-0.2,0.3-0.2h0.1
					c0,0,0.1,0,0.1-0.1l0.2-0.1c0.1-0.1,0.2-0.2,0.4-0.3l0.4-0.3c0.1,0,0.1-0.1,0.2-0.1l0.2-0.1l0.4-0.3l0.3-0.3l0.2-0.1l0.1-0.2
					c0.1-0.1,0.2-0.2,0.3-0.3l0.3-0.3L264,68l0.1-0.2c0.1-0.1,0.2-0.2,0.3-0.4l0.3-0.4l0.1-0.2l0.1-0.2c0.1-0.1,0.2-0.2,0.3-0.4
					l0.2-0.4l0.1-0.2l0.1-0.2l0.2-0.4c0.1-0.1,0.1-0.3,0.2-0.4l0.1-0.2l0.1-0.2l0.2-0.4c0.1-0.1,0.1-0.2,0.2-0.4
					c0.1-0.1,0.1-0.2,0.1-0.4c0.1-0.1,0.1-0.2,0.1-0.4c0-0.3,0.1-0.6,0.2-1c0.1-0.1,0-0.3,0.1-0.4c0-0.1,0-0.3,0.1-0.4
					c0.3-2.4,0.2-5-0.4-7.3c-0.1-0.3-0.2-0.6-0.3-0.8v-0.1v-0.1l-0.1-0.2c-0.1-0.1-0.1-0.3-0.2-0.4c-0.1-0.1-0.1-0.3-0.2-0.4
					c0-0.1-0.1-0.1-0.1-0.2l-0.1-0.2c-0.1-0.3-0.3-0.6-0.6-1c-0.7-1.2-1.5-2.4-2.5-3.4c-1.9-2.1-4.2-3.7-6.8-4.8
					c-0.1,0-0.2-0.1-0.3-0.1c-0.4,0.1-0.8,0.2-1.1,0.2c-39.2,9-64.5,45.1-56.3,80.6c0.3,1.4,0.8,2.9,1.1,4.3
					C208.5,126.5,221.3,126.9,235.7,125.7z"/>
			</g>
			<g>
				<g>
					
						<ellipse transform="matrix(0.9745 -0.2243 0.2243 0.9745 -23.0136 55.5941)" style="fill:#FFFFFF;" cx="233.2" cy="129.1" rx="19.4" ry="28.8"/>
				</g>
				<g>
					
						<ellipse transform="matrix(0.9745 -0.2243 0.2243 0.9745 -17.0147 72.6145)" style="fill:#FFFFFF;" cx="311.1" cy="111.2" rx="19.4" ry="28.8"/>
				</g>
			</g>
		</g>
	</g>
	<g>
		<path style="fill:#17718C;" d="M194,397.7c-23.5,41.1-20.9,107.1,52.1,190.7h52.2h52.2c74.3-85.1,75.5-151.8,50.9-192.8"/>
		<path style="fill:#17718C;" d="M251.9,495.5c2.1,21.2,6.3,42.2,13.4,63.3c3.3,9.9,7.3,19.7,12.1,29.6h41.7
			c4.7-9.9,8.8-19.7,12.1-29.6c7.2-21.2,11.4-42.2,13.4-63.3c0.6-5.3,0.9-10.6,1.1-15.9s-0.1-10.6-1.1-15.9
			c-0.9-5.3-2.4-10.6-4.5-15.9s-4.5-10.6-7.4-15.9c-5.5-10.6-11.7-21.2-15.8-31.6c-0.7-1.7-1.2-2.1-1.8-3.9l-34.1,0.1
			c-0.6,1.7-1.1,2.1-1.8,3.7c-4.1,10.6-10.3,21.2-15.8,31.6c-2.8,5.3-5.3,10.6-7.4,15.9s-3.6,10.6-4.5,15.9s-1.3,10.6-1.1,15.9
			C250.9,485,251.4,490.3,251.9,495.5z"/>
	</g>
</g>
<g>
	<path style="fill:#17718C;" d="M219.7,139.7c-0.2,0-0.3,0-0.6-0.1c-1.5-0.3-2.4-1.8-2.1-3.3c0.1-0.6,3.2-14.7,12.7-17.4
		c5.7-1.7,12.1,1.3,19.1,8.6c1,1.1,1,2.9-0.1,3.9s-2.9,1-3.9-0.1c-3.7-4-9-8.4-13.6-7.1c-5.2,1.4-8,10-8.7,13.2
		C222.2,138.8,220.9,139.7,219.7,139.7z"/>
</g>
<g>
	<path style="fill:#17718C;" d="M299.3,121.5c-0.2,0-0.3,0-0.6,0c-1.5-0.1-2.6-1.4-2.6-2.9c0-0.7,1-15,9.9-19.1
		c5.4-2.4,12.2-0.6,20.2,5.6c1.2,0.9,1.4,2.6,0.4,3.9c-0.9,1.2-2.6,1.4-3.9,0.4c-4.3-3.3-10.3-6.8-14.4-5c-5,2.2-6.5,11.1-6.7,14.3
		C301.6,120.3,300.6,121.3,299.3,121.5z"/>
</g>
</svg>
