<?xml version="1.0" encoding="utf-8"?>
<!-- Generator: Adobe Illustrator 23.0.1, SVG Export Plug-In . SVG Version: 6.00 Build 0)  -->
<svg version="1.1" id="Layer_1_copy" xmlns="http://www.w3.org/2000/svg" xmlns:xlink="http://www.w3.org/1999/xlink" x="0px"
	 y="0px" viewBox="0 0 2034.5 844" style="enable-background:new 0 0 2034.5 844;" xml:space="preserve">
<style type="text/css">
	.st0{fill:none;stroke:#ED1C24;stroke-miterlimit:10;}
	.st1{fill:none;stroke:#E6222F;stroke-miterlimit:10;}
	.st2{fill:none;stroke:#E0273A;stroke-miterlimit:10;}
	.st3{fill:none;stroke:#D92D44;stroke-miterlimit:10;}
	.st4{fill:none;stroke:#D2324F;stroke-miterlimit:10;}
	.st5{fill:none;stroke:#CB385A;stroke-miterlimit:10;}
	.st6{fill:none;stroke:#C53E65;stroke-miterlimit:10;}
	.st7{fill:none;stroke:#BE436F;stroke-miterlimit:10;}
	.st8{fill:none;stroke:#B7497A;stroke-miterlimit:10;}
	.st9{fill:none;stroke:#B14E85;stroke-miterlimit:10;}
	.st10{fill:none;stroke:#AA5490;stroke-miterlimit:10;}
	.st11{fill:none;stroke:#A3599A;stroke-miterlimit:10;}
	.st12{fill:none;stroke:#9D5FA5;stroke-miterlimit:10;}
	.st13{fill:none;stroke:#9665B0;stroke-miterlimit:10;}
	.st14{fill:none;stroke:#8F6ABB;stroke-miterlimit:10;}
	.st15{fill:none;stroke:#8870C5;stroke-miterlimit:10;}
	.st16{fill:none;stroke:#8275D0;stroke-miterlimit:10;}
	.st17{fill:none;stroke:#7B7BDB;stroke-miterlimit:10;}
	.st18{enable-background:new    ;}
	.st19{fill:#BABABA;}
	.st20{clip-path:url(#SVGID_2_);}
	.st21{fill:#675FCE;}
	.st22{fill:#FFBBC2;}
	.st23{fill:#A093F9;}
	.st24{fill:#818181;}
	.st25{fill:#DADADA;}
	.st26{fill:#FFFFFF;}
	.st27{fill:#ED1C24;}
	.st28{fill:#7B7BDB;}
	.st29{clip-path:url(#SVGID_4_);}
	.st30{fill:#D7E8F9;}
</style>
<g>
	<path class="st0" d="M128.8,411.3c0,0,310.2-187.7,685.2-107.9s825.4,139.7,1017.2-8.6"/>
	<path class="st1" d="M129,423.7c0,0,300.9-198.3,687.8-118.2s826.1,138.9,1014.4-2.7"/>
	<path class="st2" d="M129.2,436.1c0,0,291.7-208.9,690.5-128.6s826.8,138,1011.5,3.2"/>
	<path class="st3" d="M129.4,448.5c0,0,282.4-219.5,693.1-138.9s827.4,137.2,1008.7,9.1"/>
	<path class="st4" d="M129.6,461c0,0,273.1-230.1,695.8-149.2s828.1,136.4,1005.8,14.9"/>
	<path class="st5" d="M129.8,473.4c0,0,263.9-240.6,698.4-159.5s828.8,135.5,1003,20.8"/>
	<path class="st6" d="M130.1,485.9c0,0,254.6-251.2,701.1-169.9s829.4,134.7,1000.1,26.7"/>
	<path class="st7" d="M130.3,498.4c0,0,245.4-261.8,703.7-180.2s830.1,133.9,997.3,32.5"/>
	<path class="st8" d="M130.5,510.9c0,0,236.1-272.4,706.4-190.5s830.8,133,994.4,38.4"/>
	<path class="st9" d="M130.7,523.4c0,0,226.8-283,709-200.9s831.4,132.2,991.6,44.3"/>
	<path class="st10" d="M130.9,536c0,0,217.6-293.5,711.7-211.2s832.1,131.3,988.7,50.2"/>
	<path class="st11" d="M131.1,548.5c0,0,208.3-304.1,714.3-221.5s832.8,130.5,985.9,56"/>
	<path class="st12" d="M131.3,561.1c0,0,199.1-314.7,717-231.8s833.4,129.7,983,61.9"/>
	<path class="st13" d="M131.5,573.6c0,0,189.8-325.3,719.6-242.2s834.1,128.8,980.1,67.8"/>
	<path class="st14" d="M131.7,586.2c0,0,180.6-335.9,722.3-252.5s834.8,128,977.3,73.6"/>
	<path class="st15" d="M131.9,598.8c0,0,171.3-346.4,724.9-262.8s835.4,127.1,974.4,79.5"/>
	<path class="st16" d="M132.1,611.4c0,0,162-357,727.6-273.2s836.1,126.3,971.6,85.4"/>
	<path class="st17" d="M132.3,624c0,0,152.8-367.6,730.2-283.5s836.8,125.5,968.7,91.2"/>
	<path class="st17" d="M149.1,621.6c0,0,149.8-360.5,718.1-278.3s822.9,124.6,964.5,90"/>
	<path class="st17" d="M165.9,619.3c0,0,146.8-353.4,706.1-273.1s808.9,123.7,960.3,88.7"/>
	<path class="st17" d="M182.6,616.9c0,0,143.8-346.3,694-267.9s795,122.8,956,87.4"/>
	<path class="st17" d="M199.4,614.6c0,0,140.7-339.1,681.9-262.7s781.1,121.9,951.8,86.1"/>
	<path class="st17" d="M216.1,612.2c0,0,137.7-332,669.9-257.5s767.2,121.1,947.6,84.8"/>
	<path class="st17" d="M232.9,609.9c0,0,134.7-324.9,657.8-252.3S1644,477.7,1834,441.1"/>
	<path class="st17" d="M249.7,607.5c0,0,131.7-317.8,645.7-247.1s739.4,119.3,939.1,82.2"/>
	<path class="st17" d="M266.4,605.2c0,0,128.7-310.7,633.7-241.9s725.5,118.4,934.9,80.9"/>
	<path class="st17" d="M283.2,602.8c0,0,125.7-303.5,621.6-236.7s711.6,117.5,930.6,79.6"/>
	<path class="st17" d="M300,600.4c0,0,122.7-296.4,609.5-231.5s697.6,116.7,926.4,78.3"/>
	<path class="st17" d="M316.7,598.1c0,0,119.7-289.3,597.5-226.3s683.7,115.8,922.2,77"/>
	<path class="st17" d="M333.5,595.7c0,0,116.7-282.2,585.4-221.1s669.8,114.9,917.9,75.7"/>
	<path class="st17" d="M350.3,593.4c0,0,113.7-275.1,573.3-215.9s655.9,114,913.7,74.4"/>
	<path class="st17" d="M367,591c0,0,110.6-268,561.3-210.7s642,113.1,909.5,73.1"/>
	<path class="st17" d="M383.8,588.7c0,0,107.6-260.8,549.2-205.5S1561,495.4,1838.2,455"/>
	<path class="st17" d="M400.5,586.3c0,0,104.6-253.7,537.1-200.3s614.2,111.4,901,70.5"/>
	<path class="st17" d="M417.3,583.9c0,0,101.6-246.6,525.1-195.1s600.2,110.5,896.8,69.3"/>
</g>
<g>
	<g class="st18">
		<g>
			<polygon class="st19" points="421.7,370.2 421.3,587.3 128.4,628.5 128.8,411.3 			"/>
			<g class="st18">
				<defs>
					<polygon id="SVGID_1_" class="st18" points="421.7,370.2 421.3,587.3 128.4,628.5 128.8,411.3 					"/>
				</defs>
				<clipPath id="SVGID_2_">
					<use xlink:href="#SVGID_1_"  style="overflow:visible;"/>
				</clipPath>
				<g class="st20">
					<path class="st21" d="M132.3,624l0.4-194.4l285-40.1l-0.4,194.4L132.3,624 M137.2,424.2c-2.6,0.4-4.8-1.5-4.7-4.1
						c0-2.7,2.1-5.1,4.8-5.5c2.6-0.4,4.8,1.5,4.7,4.1C142,421.4,139.9,423.8,137.2,424.2 M152.8,422c-2.6,0.4-4.8-1.5-4.7-4.1
						c0-2.7,2.1-5.1,4.8-5.5c2.6-0.4,4.8,1.5,4.7,4.1C157.6,419.2,155.4,421.7,152.8,422 M168.8,419.8c-2.6,0.4-4.8-1.5-4.7-4.1
						c0-2.7,2.1-5.1,4.8-5.5c2.6-0.4,4.8,1.5,4.7,4.1C173.5,417,171.4,419.4,168.8,419.8 M421.9,369.9l-293.3,41.2l-0.4,217.7
						l293.3-41.2L421.9,369.9"/>
					<path class="st22" d="M151.2,560.2c-1.9,0.3-3.4-1.1-3.4-3c0-1.9,1.6-3.6,3.4-3.9l141.9-19.9c1.9-0.3,3.4,1.1,3.4,2.9
						c0.1,1.8-1.5,3.6-3.3,3.9L151.2,560.2 M151.2,534.6c-1.9,0.3-3.4-1.1-3.4-2.9c0-1.9,1.6-3.7,3.4-3.9l141.9-19.9
						c1.9-0.3,3.4,1.1,3.4,3c0.1,1.9-1.5,3.6-3.3,3.9L151.2,534.6 M151.3,509.2c-1.9,0.3-3.4-1.1-3.4-3c0-1.9,1.6-3.6,3.4-3.9
						l141.9-19.9c1.9-0.3,3.4,1.1,3.4,2.9c0.1,1.9-1.5,3.6-3.3,3.9L151.3,509.2 M151.3,483.7c-1.9,0.3-3.4-1.1-3.4-2.9
						c0-1.9,1.6-3.7,3.4-3.9l141.9-19.9c1.9-0.3,3.4,1.1,3.4,3c0.1,1.8-1.5,3.6-3.3,3.9L151.3,483.7 M417.7,389.5l-285,40.1
						L132.3,624l285-40.1L417.7,389.5"/>
					<path class="st23" d="M137.3,414.6c-2.6,0.4-4.8,2.8-4.8,5.5c0,2.7,2.1,4.5,4.7,4.1c2.6-0.4,4.8-2.8,4.8-5.5
						C142,416.1,139.9,414.2,137.3,414.6"/>
					<path class="st23" d="M152.8,412.4c-2.6,0.4-4.8,2.8-4.8,5.5c0,2.7,2.1,4.5,4.7,4.1c2.6-0.4,4.8-2.8,4.8-5.5
						C157.6,413.9,155.4,412,152.8,412.4"/>
					<path class="st23" d="M168.8,410.2c-2.6,0.4-4.8,2.8-4.8,5.5c0,2.7,2.1,4.5,4.7,4.1c2.6-0.4,4.8-2.8,4.8-5.5
						C173.5,411.7,171.4,409.8,168.8,410.2"/>
					<path class="st23" d="M293.2,456.9l-141.9,19.9c-1.8,0.3-3.4,2-3.4,3.9c0,1.8,1.5,3.2,3.4,2.9l142-20c1.8-0.3,3.4-2.1,3.3-3.9
						C296.6,458.1,295.1,456.7,293.2,456.9"/>
					<path class="st23" d="M293.2,482.4l-141.9,19.9c-1.8,0.3-3.4,2-3.4,3.9c0,1.8,1.5,3.2,3.4,3l142-20c1.8-0.3,3.4-2,3.3-3.9
						C296.6,483.5,295.1,482.1,293.2,482.4"/>
					<path class="st23" d="M293.1,507.8l-141.9,19.9c-1.8,0.3-3.4,2-3.4,3.9c0,1.8,1.5,3.2,3.4,2.9l142-20c1.8-0.3,3.4-2,3.3-3.9
						C296.5,509,295,507.6,293.1,507.8"/>
					<path class="st23" d="M293.1,533.4l-141.9,19.9c-1.8,0.3-3.4,2-3.4,3.9c0,1.8,1.5,3.2,3.4,3l142-20c1.8-0.3,3.4-2.1,3.3-3.9
						C296.5,534.5,295,533.1,293.1,533.4"/>
				</g>
			</g>
		</g>
		<g>
			<polygon class="st24" points="128.4,628.5 121.3,624.6 121.7,407.5 128.8,411.3 			"/>
		</g>
		<g>
			<polygon class="st25" points="128.8,411.3 121.7,407.5 414.6,366.3 421.7,370.2 			"/>
		</g>
	</g>
</g>
<g>
	<g>
		<path class="st26" d="M1001.2,514.7l-1.8-2.1c-22.7-26-36.8-51.3-41.9-75.2c-4.4-20.6-1.9-39.9,7.2-55.9l1.7-3h1.2
			c3.3-5,7.2-9.5,11.6-13.4c9.6-8.5,7.4-12.3,1.4-22.3c-6.3-10.5-14.8-24.9-6.9-48.5c9-26.9,29.2-37.9,44.8-42.4l0.7-0.7l1.8,0
			c6.7-1.7,12.1-2.2,14.9-2.3c0.8,0,1.4,0,1.9,0h2.3c0.6,0,1.2,0,1.8,0.1l0.1,0c0.2,0,0.4,0,0.6,0c1,0,1.9,0.2,2.9,0.3l0,0h0.2
			l0.4,0.1c0,0,0.1,0,0.1,0l0.4,0.1c0.7,0.1,1.4,0.2,2.2,0.3l0.4,0.1h0.1l0.7,0.1c0.2,0,0.3,0.1,0.5,0.1l1.9,0.3l0.1,0.1
			c0.6,0.1,1.1,0.2,1.7,0.4l0.2,0h0.1l0.6,0.2c0.1,0,0.3,0,0.4,0.1h0.3l0.8,0.3c0.2,0,0.3,0.1,0.5,0.1l1.7,0.4v0.1
			c15.6,4.7,35.2,15.8,44.1,42.1c7.9,23.6-0.7,38-6.9,48.5c-6,10-8.2,13.8,1.4,22.3c4,3.6,7.6,7.7,10.7,12.1h0.4l1.8,2.9
			c9.6,16,12.5,35.5,8.4,56.3c-4.9,24.2-19,49.9-42.1,76.4l-1.8,2.1H1001.2z"/>
		<g>
			<path class="st26" d="M945.5,387.1c-5.8-7.6-10.2-16.1-13.2-25.2c-4.7-14.1-10.6-15.3-16.7-15.3c-3.3,0-7,0.5-11.1,1
				c-4.9,0.7-10.5,1.4-16.5,1.4c-16.2,0-30-5.6-43.3-17.5c-42.5-37.9-24.5-88.5-21-96.9V230l2.2,0v-1l1.1-1.1l0.8-1.5v-0.8l1.2-1.2
				c0.1-0.1,0.2-0.3,0.3-0.4l0,0c0.3-0.6,0.7-1.1,1-1.7v-0.7l1.2-1.2v0l1.2-1.7c0.6-0.8,1.1-1.6,1.7-2.4c0-0.1,0.1-0.1,0.2-0.2
				c0.3-0.4,0.6-0.8,0.9-1.1c0,0,0-0.1,0.1-0.1c0.3-0.4,0.5-0.7,0.7-0.9l0,0c0.1-0.1,0.1-0.2,0.2-0.3c0,0,0.1-0.1,0.1-0.1
				c0.1-0.2,0.3-0.4,0.4-0.5c11.8-14.7,32.5-32.2,64.9-32.2c2.5,0,5.1,0.1,7.7,0.3c31.3,2.6,43.8,19.7,52.9,32.3
				c6.6,9.1,10.3,13.8,17,13.8c0,0,0,0,0,0c3.3,0,7.5-1.2,12.4-3.5c8-3.8,16.5-6.3,25.2-7.5l10.4-1.4l-28.7,68.7h0.1l-3.5,8.3
				l-4,9.5l-39.4,94.1L945.5,387.1z"/>
			<path class="st26" d="M991.1,551.9l-1.8-2.1c-29.2-33.4-47.3-65.9-53.8-96.5c-5.6-26.2-2.4-50.8,9.2-71.2l1.7-3l76.9-0.8l2.8,0
				l102.2-1l1.8,2.9c12.3,20.3,15.9,45.1,10.6,71.6c-6.2,31-24.5,64-54.1,97.9l-1.8,2.1H991.1z"/>
		</g>
	</g>
	<g>
		<path class="st27" d="M1105.1,383h-0.2c-3.2-5.2-7.2-9.7-11.5-13.6c-26.4-23.5,18-31.1,3.8-73.4c-8.3-25-27.4-34.8-41.6-38.7l0,0
			c-0.2-0.1-0.5-0.1-0.7-0.2c-0.1,0-0.2,0-0.2,0c-0.2-0.1-0.5-0.1-0.7-0.2c-0.1,0-0.2,0-0.2,0c-0.2,0-0.5-0.1-0.7-0.2
			c0,0-0.1,0-0.1,0c-0.9-0.2-1.6-0.4-2.5-0.5l0,0c-0.2,0-0.5-0.1-0.7-0.1c0,0-0.1,0-0.1,0c-0.2,0-0.5-0.1-0.7-0.1c0,0,0,0-0.1,0
			c-1-0.2-2-0.3-2.9-0.5c0,0,0,0,0,0c-0.2,0-0.5,0-0.7-0.1h0c-1.1-0.1-2.1-0.2-2.9-0.3h0c-0.2,0-0.3,0-0.5,0h0
			c-0.6,0-1.2-0.1-1.6-0.1c0,0,0,0-0.1,0c-0.1,0-0.2,0-0.3,0c0,0,0,0-0.1,0c-0.1,0-0.2,0-0.2,0c0,0,0,0-0.1,0c-0.2,0-0.4,0-0.6,0
			c0,0,0,0-0.1,0s-0.1,0-0.1,0c0,0,0,0,0,0c0,0,0,0-0.1,0h0c0,0,0,0,0,0h0l0,0c0,0,0,0,0,0c0,0,0,0,0,0h0c0,0,0,0-0.1,0h0
			c0,0-0.1,0-0.1,0c0,0,0,0-0.1,0s-0.1,0-0.2,0h0c-0.4,0-0.9,0-1.6,0l0,0c-2.8,0.1-8.1,0.6-14.4,2.3c0,0,0,0-0.1,0
			c-0.3,0.1-0.6,0.2-0.9,0.2c0,0-0.1,0-0.1,0c-14.1,3.9-33,13.9-41.3,38.7c-14.1,42.2,30.2,49.8,3.8,73.4
			c-4.7,4.2-8.9,9.2-12.3,14.9h-1c-15.2,26.8-13.7,69.7,33.9,124.2h20.3h13.8h13.4h20.6C1120.4,453.1,1121.2,409.7,1105.1,383z"/>
		<g>
			<path class="st28" d="M985.7,298.9l4-9.5c0,0,0,0-0.1,0l28.1-67.4c-8.4,1.2-16.3,3.6-23.5,7c-41.5,19.4-27.8-37.3-85.3-42
				c-34-2.8-55.5,14.8-67.4,29.7l0,0l0,0c-0.2,0.2-0.4,0.5-0.6,0.8c-0.1,0.1-0.1,0.2-0.2,0.2c-0.2,0.2-0.4,0.5-0.6,0.7
				c-0.1,0.1-0.1,0.2-0.2,0.2c-0.2,0.2-0.4,0.5-0.6,0.8c0,0,0,0.1-0.1,0.1c-0.7,0.9-1.3,1.8-1.9,2.6c0,0,0,0,0,0
				c-0.2,0.3-0.4,0.5-0.5,0.8c0,0,0,0.1-0.1,0.1c-0.2,0.2-0.3,0.5-0.5,0.8c0,0,0,0,0,0.1c-0.7,1.1-1.4,2.2-2,3.2c0,0,0,0,0,0
				c-0.2,0.2-0.3,0.5-0.4,0.7c0,0,0,0,0,0.1c-0.7,1.2-1.3,2.3-1.9,3.3c0,0,0,0,0,0.1c-0.1,0.2-0.2,0.4-0.3,0.5c0,0,0,0,0,0
				c-0.4,0.7-0.7,1.4-0.9,1.9c0,0,0,0,0,0.1c0,0.1-0.1,0.2-0.2,0.3c0,0,0,0.1,0,0.1c0,0.1-0.1,0.2-0.1,0.3c0,0,0,0,0,0.1
				c-0.1,0.2-0.2,0.5-0.3,0.7c0,0,0,0.1,0,0.1c0,0,0,0.1,0,0.1c0,0,0,0.1,0,0.1c0,0,0,0,0,0.1c0,0,0,0,0,0v0v0l0,0l0,0
				c0,0,0,0,0,0.1l0,0c-1.2,2.7-22.8,53.7,19.1,91.1c43,38.4,74.8-10.5,89.2,32.9c2.7,8.1,6.8,16.1,12.3,23.4L985.7,298.9z"/>
			<path class="st28" d="M1125,383.4l-98.9,1h-2.8l0,0l-73.4,0.7c-19.7,34.7-17.7,90.3,43.9,160.8h26.3h17.8h17.4h26.7
				C1144.7,474.2,1145.8,418,1125,383.4z"/>
		</g>
	</g>
</g>
<g>
	<g class="st18">
		<g>
			<polygon class="st19" points="1961.3,254.6 1960.9,471.7 1668,512.8 1668.4,295.7 			"/>
			<g class="st18">
				<defs>
					<polygon id="SVGID_3_" class="st18" points="1961.3,254.6 1960.9,471.7 1668,512.8 1668.4,295.7 					"/>
				</defs>
				<clipPath id="SVGID_4_">
					<use xlink:href="#SVGID_3_"  style="overflow:visible;"/>
				</clipPath>
				<g class="st29">
					<path class="st21" d="M1671.9,508.4l0.4-194.4l285-40.1l-0.4,194.4L1671.9,508.4 M1676.8,308.6c-2.6,0.4-4.8-1.5-4.7-4.1
						c0-2.7,2.1-5.1,4.8-5.5c2.6-0.4,4.8,1.5,4.7,4.1C1681.6,305.8,1679.4,308.2,1676.8,308.6 M1692.4,306.4
						c-2.6,0.4-4.8-1.5-4.7-4.1c0-2.7,2.1-5.1,4.8-5.5c2.6-0.4,4.8,1.5,4.7,4.1C1697.1,303.6,1695,306,1692.4,306.4 M1708.3,304.2
						c-2.6,0.4-4.8-1.5-4.7-4.1c0-2.7,2.1-5.1,4.8-5.5c2.6-0.4,4.8,1.5,4.7,4.1C1713.1,301.3,1711,303.8,1708.3,304.2 M1961.5,254.3
						l-293.3,41.2l-0.4,217.7l293.3-41.2L1961.5,254.3"/>
					<path class="st30" d="M1690.7,444.6c-1.9,0.3-3.4-1.1-3.4-3c0-1.9,1.6-3.6,3.4-3.9l141.9-19.9c1.9-0.3,3.4,1.1,3.4,2.9
						c0.1,1.8-1.5,3.6-3.3,3.9L1690.7,444.6 M1690.8,419c-1.9,0.3-3.4-1.1-3.4-2.9c0-1.9,1.6-3.7,3.4-3.9l141.9-19.9
						c1.9-0.3,3.4,1.1,3.4,3c0.1,1.9-1.5,3.6-3.3,3.9L1690.8,419 M1690.8,393.6c-1.9,0.3-3.4-1.1-3.4-3c0-1.9,1.6-3.6,3.4-3.9
						l141.9-19.9c1.9-0.3,3.4,1.1,3.4,2.9c0.1,1.9-1.5,3.6-3.3,3.9L1690.8,393.6 M1690.9,368.1c-1.9,0.3-3.4-1.1-3.4-2.9
						c0-1.9,1.6-3.7,3.4-3.9l141.9-19.9c1.9-0.3,3.4,1.1,3.4,3c0.1,1.8-1.5,3.6-3.3,3.9L1690.9,368.1 M1957.2,273.9l-285,40.1
						l-0.4,194.4l285-40.1L1957.2,273.9"/>
					<path class="st23" d="M1676.8,299c-2.6,0.4-4.8,2.8-4.8,5.5c0,2.7,2.1,4.5,4.7,4.1c2.6-0.4,4.8-2.8,4.8-5.5
						C1681.6,300.5,1679.5,298.6,1676.8,299"/>
					<path class="st23" d="M1692.4,296.8c-2.6,0.4-4.8,2.8-4.8,5.5c0,2.7,2.1,4.5,4.7,4.1s4.8-2.8,4.8-5.5
						C1697.1,298.3,1695,296.4,1692.4,296.8"/>
					<path class="st23" d="M1708.4,294.5c-2.6,0.4-4.8,2.8-4.8,5.5c0,2.7,2.1,4.5,4.7,4.1s4.8-2.8,4.8-5.5
						C1713.1,296,1711,294.2,1708.4,294.5"/>
					<path class="st23" d="M1832.8,341.3l-141.9,19.9c-1.8,0.3-3.4,2-3.4,3.9c0,1.8,1.5,3.2,3.4,2.9l142-20c1.8-0.3,3.4-2.1,3.3-3.9
						C1836.2,342.4,1834.7,341,1832.8,341.3"/>
					<path class="st23" d="M1832.8,366.8l-141.9,19.9c-1.8,0.3-3.4,2-3.4,3.9c0,1.8,1.5,3.2,3.4,3l142-20c1.8-0.3,3.4-2,3.3-3.9
						C1836.1,367.9,1834.7,366.5,1832.8,366.8"/>
					<path class="st23" d="M1832.7,392.2l-141.9,19.9c-1.8,0.3-3.4,2-3.4,3.9c0,1.8,1.5,3.2,3.4,2.9l142-20c1.8-0.3,3.4-2,3.3-3.9
						C1836.1,393.4,1834.6,392,1832.7,392.2"/>
					<path class="st23" d="M1832.7,417.8l-141.9,19.9c-1.8,0.3-3.4,2-3.4,3.9c0,1.8,1.5,3.2,3.4,3l142-20c1.8-0.3,3.4-2.1,3.3-3.9
						C1836,418.9,1834.6,417.5,1832.7,417.8"/>
				</g>
			</g>
		</g>
		<g>
			<polygon class="st24" points="1668,512.8 1660.9,509 1661.3,291.8 1668.4,295.7 			"/>
		</g>
		<g>
			<polygon class="st25" points="1668.4,295.7 1661.3,291.8 1954.2,250.7 1961.3,254.6 			"/>
		</g>
	</g>
</g>
</svg>
