<?xml version="1.0" encoding="utf-8"?>
<!-- Generator: Adobe Illustrator 23.0.1, SVG Export Plug-In . SVG Version: 6.00 Build 0)  -->
<svg version="1.1" id="Layer_1_copy_4" xmlns="http://www.w3.org/2000/svg" xmlns:xlink="http://www.w3.org/1999/xlink" x="0px"
	 y="0px" viewBox="0 0 841 930" style="enable-background:new 0 0 841 930;" xml:space="preserve">
<style type="text/css">
	.st0{fill:#ED1C24;}
	.st1{fill:#7B7BDB;}
</style>
<g>
	<path class="st0" d="M717.9,501.8l-0.5,0c-7.9-12.6-17.4-23.7-27.9-33.1c-64.2-57.1,43.7-75.7,9.3-178.4
		c-20.3-60.7-66.7-84.7-101.2-94.2c0,0,0,0,0,0c-0.6-0.2-1.2-0.3-1.8-0.5c-0.2,0-0.4-0.1-0.6-0.1c-0.6-0.2-1.2-0.3-1.8-0.4
		c-0.2,0-0.4-0.1-0.5-0.1c-0.6-0.1-1.2-0.3-1.8-0.4c-0.1,0-0.2,0-0.2-0.1c-2.1-0.5-4-0.9-6-1.3c0,0,0,0,0,0
		c-0.6-0.1-1.2-0.2-1.8-0.3c-0.1,0-0.2,0-0.3-0.1c-0.6-0.1-1.2-0.2-1.7-0.3c-0.1,0-0.1,0-0.2,0c-2.5-0.4-4.8-0.8-7-1.1
		c0,0,0,0-0.1,0c-0.5-0.1-1.1-0.1-1.6-0.2c0,0-0.1,0-0.1,0c-2.6-0.3-5-0.6-7.1-0.7c0,0-0.1,0-0.1,0c-0.4,0-0.8-0.1-1.1-0.1
		c0,0-0.1,0-0.1,0c-1.5-0.1-2.8-0.2-3.9-0.2c-0.1,0-0.1,0-0.2,0c-0.2,0-0.5,0-0.7,0c-0.1,0-0.1,0-0.2,0c-0.2,0-0.4,0-0.6,0
		c-0.1,0-0.1,0-0.2,0c-0.6,0-1,0-1.4,0c-0.1,0-0.1,0-0.2,0c-0.1,0-0.2,0-0.2,0c-0.1,0-0.1,0-0.1,0c-0.1,0-0.1,0-0.2,0
		c0,0-0.1,0-0.1,0c0,0,0,0-0.1,0c0,0-0.1,0-0.1,0h0c0,0,0,0-0.1,0c0,0,0,0-0.1,0c0,0-0.1,0-0.1,0c-0.1,0-0.1,0-0.2,0
		c0,0-0.1,0-0.1,0c-0.1,0-0.2,0-0.3,0c0,0-0.1,0-0.2,0c-0.1,0-0.2,0-0.4,0c0,0-0.1,0-0.1,0c-0.9,0-2.2,0-3.8,0.1c0,0,0,0,0,0
		c-6.8,0.3-19.6,1.5-34.9,5.6c-0.1,0-0.1,0-0.2,0.1c-0.7,0.2-1.4,0.4-2.1,0.6c-0.1,0-0.2,0-0.3,0.1c-34.4,9.6-80.2,33.7-100.4,94
		c-34.4,102.7,73.5,121.2,9.3,178.4c-11.4,10.1-21.6,22.3-29.9,36.3l-2.4,0c-37,65.1-33.2,169.5,82.5,301.9h49.3h33.5h32.6h50.2
		C755,672.3,757,566.7,717.9,501.8z"/>
	<g>
		<path class="st1" d="M427.4,297.4l9.8-23.1c-0.1,0-0.1,0-0.2,0l68.4-163.8c-20.4,2.8-39.6,8.7-57.1,16.9
			c-100.8,47.2-67.7-90.7-207.5-102.2C158.2,18.3,105.9,61.2,77,97.4h0c0,0,0,0,0,0c-0.5,0.6-1,1.3-1.5,1.9
			c-0.2,0.2-0.3,0.4-0.5,0.6c-0.5,0.6-1,1.2-1.4,1.8c-0.2,0.2-0.3,0.4-0.5,0.6c-0.5,0.6-1,1.3-1.4,1.9c-0.1,0.1-0.1,0.2-0.2,0.3
			c-1.6,2.2-3.1,4.3-4.6,6.4c0,0,0,0,0,0.1c-0.5,0.7-0.9,1.3-1.3,2c-0.1,0.1-0.1,0.2-0.2,0.3c-0.4,0.6-0.8,1.3-1.3,1.9
			c0,0.1-0.1,0.1-0.1,0.2c-1.8,2.7-3.4,5.3-4.8,7.8c0,0,0,0.1-0.1,0.1c-0.4,0.6-0.7,1.2-1,1.7c0,0.1-0.1,0.1-0.1,0.2
			c-1.7,3-3.2,5.7-4.5,8c0,0.1-0.1,0.1-0.1,0.2c-0.2,0.4-0.5,0.9-0.7,1.3c0,0,0,0.1-0.1,0.1c-0.9,1.7-1.6,3.3-2.3,4.6
			c0,0.1-0.1,0.1-0.1,0.2c-0.1,0.3-0.3,0.5-0.4,0.8c0,0.1-0.1,0.2-0.1,0.3c-0.1,0.2-0.2,0.5-0.3,0.7c0,0.1-0.1,0.1-0.1,0.2
			c-0.3,0.6-0.5,1.2-0.7,1.6c0,0.1-0.1,0.2-0.1,0.2c0,0.1-0.1,0.2-0.1,0.2c0,0.1-0.1,0.2-0.1,0.2c0,0.1,0,0.1-0.1,0.2
			c0,0.1,0,0.1-0.1,0.1c0,0,0,0.1,0,0.1c0,0,0,0.1,0,0.1s0,0,0,0c0,0,0,0,0,0c0,0,0,0.1-0.1,0.2c0,0,0,0,0,0
			c-2.9,6.5-55.5,130.6,46.4,221.5c104.6,93.4,181.8-25.5,217,80c6.6,19.8,16.5,39.2,30,57L427.4,297.4z"/>
		<path class="st1" d="M766.1,502.8l-240.4,2.4l-6.7,0c0,0,0,0,0,0l-178.5,1.8c-48,84.3-43,219.5,106.8,390.9h63.9h43.3h42.2h65
			C814.1,723.6,816.7,586.8,766.1,502.8z"/>
	</g>
</g>
</svg>
