<?xml version="1.0" encoding="utf-8"?>
<!-- Generator: Adobe Illustrator 24.0.1, SVG Export Plug-In . SVG Version: 6.00 Build 0)  -->
<svg version="1.1" id="Layer_1_copy_4" xmlns="http://www.w3.org/2000/svg" xmlns:xlink="http://www.w3.org/1999/xlink" x="0px"
	 y="0px" viewBox="0 0 368 419" style="enable-background:new 0 0 368 419;" xml:space="preserve">
<g>
	<g>
		<path style="fill:#7F4285;" d="M219.3,198.7c-4.9-5.4-10.5-9.7-16.5-13.2c-34.2-19.8,12.8-38.1-12.3-81.3
			c-25-43.1-73.8-32-73.8-32s-49.3,9-55.3,58.5c-6.1,49.4,44.2,47.9,20.6,79.5c-4.5,5.9-8.1,12.8-10.5,20.4"/>
		<path style="fill:#7F4285;" d="M106,143.2c1.5,3.6,3.4,7.1,5.4,10.7c4.1,7,8.9,13.9,12.8,20.9c1.9,3.5,3.6,7.1,5,10.8
			c1.3,3.6,2.4,7.3,3.1,11.2c0.7,3.8,1.1,7.6,1.2,11.5c0.1,2.7,0.4,6.1,0,8.9l24.3-5.1c-1.4-2.4-3.1-5.5-4.1-8
			c-1.5-3.6-2.7-7.3-3.5-11.1c-0.9-3.8-1.3-7.5-1.5-11.5c-0.2-3.9-0.1-7.8,0.4-11.8c0.7-7.9,2.5-16.2,3.5-24.3c0.5-4,0.8-7.9,0.8-12
			c0-3.9-0.4-7.7-0.9-11.6c-0.6-3.8-1.7-7.4-2.7-11.3c-1-3.7-2.1-7.4-3.2-11.1c-2.2-7.4-4.8-14.7-7.5-21.9c-0.8-2.2-1.7-4.3-2.6-6.6
			C125.2,70.1,117,72,117,72s-9,1.6-19.6,7.4c0,2.2,0.1,4.5,0.2,6.6c0.4,7.7,0.9,15.5,1.7,23.2c0.4,3.8,0.9,7.7,1.4,11.5
			c0.6,3.8,1,7.6,1.9,11.4C103.2,135.9,104.4,139.6,106,143.2z"/>
		<g>
			<path style="fill:#E6B2ED;" d="M147.9,148.4c-5.1,1.5-10.2,2.7-15.4,3.8c-9,1.9-18.1,3-27.2,3.5c-10.4,0.5-19.1,0.1-25.8-0.6
				c8.2,22.1,33.5,35.2,59.8,29.9c26.1-5.3,44.1-27.1,43.2-50.4C171.3,140.4,159.7,145,147.9,148.4z"/>
			<path style="fill:#E6B2ED;" d="M105.3,152.5c13.9-0.7,28-3.2,41.7-7.2c12-3.5,23.8-8.3,35.3-14.3c-0.1-1.2-0.4-2.5-0.6-3.7
				c-3.8-18.7-19.2-32.4-38.3-36.4l0,0l0.1,0.2l0.4,0.8c0.1,0.3,0.2,0.6,0.3,0.8l0.1,0.4l0.1,0.2l0.1,0.2c0.2,0.6,0.4,1.1,0.5,1.7
				c0.3,1.1,0.5,2.2,0.7,3.4c0.1,0.6,0.1,1.2,0.1,1.7c0,0.3,0.1,0.6,0,0.9v0.9c0,0.3,0,0.6-0.1,0.9c0,0.3,0,0.6-0.1,0.9
				c0,0.6-0.1,1.2-0.1,1.7c-0.1,1.2-0.4,2.3-0.7,3.4c-1.3,4.5-3.8,8.5-7.1,11.6l-0.6,0.6l-0.3,0.3l-0.3,0.3l-0.7,0.5l-0.7,0.5
				l-0.3,0.2l-0.3,0.2l-0.7,0.4c-0.3,0.1-0.4,0.2-0.7,0.4l-0.4,0.2c-0.1,0.1-0.3,0.1-0.4,0.2l-0.7,0.4c-0.3,0.1-0.5,0.3-0.7,0.4
				l-0.4,0.1c-0.1,0-0.1,0-0.2,0.1l-0.2,0.1c-0.3,0.1-0.6,0.2-0.8,0.3c-1.1,0.4-2.3,0.7-3.5,0.9c-1.2,0.1-2.4,0.3-3.5,0.3
				c-1.2,0-2.3-0.1-3.5-0.3c-1.2-0.2-2.2-0.5-3.3-0.9c-1-0.4-2.1-0.8-3.1-1.4c-1.9-1.2-3.7-2.5-5.1-4.2c-0.2-0.2-0.4-0.4-0.5-0.6
				c-0.2-0.2-0.3-0.4-0.5-0.6l-0.4-0.6c-0.1-0.2-0.3-0.4-0.4-0.6c-0.1-0.1-0.1-0.2-0.2-0.3l-0.2-0.3c-0.1-0.1-0.1-0.3-0.2-0.3
				l-0.1-0.4c-0.2-0.4-0.4-0.9-0.6-1.4l-0.2-0.8c0-0.1,0-0.1-0.1-0.2l-0.1-0.2l-0.1-0.4c-0.2-0.6-0.3-1-0.4-1.7
				c-0.2-1.1-0.2-2.2-0.2-3.2c0.1-1.1,0.2-2.1,0.5-3c0.3-1,0.6-1.9,1.2-2.8c0.1-0.2,0.2-0.4,0.4-0.6l0.1-0.4
				c0.1-0.1,0.1-0.1,0.2-0.4l0.2-0.3l0.2-0.3c0.1-0.1,0.1-0.1,0.2-0.3l0.2-0.3c0.6-0.7,1.4-1.4,2-1.9c0.2-0.1,0.4-0.3,0.6-0.4
				s0.4-0.2,0.6-0.4s0.4-0.2,0.6-0.4s0.4-0.1,0.6-0.3l0.6-0.2l0.6-0.2c0.2-0.1,0.4-0.1,0.6-0.1l0.6-0.1v0.1
				c-1.2,1.2-2.2,2.5-2.7,3.8c-0.3,0.6-0.5,1.4-0.7,1.9c-0.1,0.7-0.2,1.4-0.3,1.9c0,0.6,0.1,1.3,0.1,1.9c0,0.1,0.1,0.3,0.1,0.4
				l0.1,0.4l0.1,0.4c0,0.1,0.1,0.3,0.1,0.4c0.2,0.6,0.4,1.1,0.7,1.5c0.1,0.3,0.3,0.4,0.5,0.6l0.1,0.1l0.1,0.1c0,0,0,0.1,0.1,0.1
				l0.3,0.3c0.2,0.2,0.4,0.4,0.6,0.6l0.1,0.1c0.1,0.1,0.1,0.1,0.1,0.1l0.1,0.1c0.1,0.1,0.1,0.1,0.1,0.1l0.4,0.2l0.4,0.2
				c0.1,0.1,0.3,0.1,0.4,0.2s0.3,0.1,0.4,0.2l0.1,0.1c0.1,0.1,0.1,0.1,0.1,0.1l0.1,0.1c0.1,0.1,0.1,0.1,0.1,0.1
				c0.1,0.1,0.2,0.1,0.4,0.1l0.4,0.1c0.5,0.2,0.9,0.3,1.5,0.4c0.1,0.1,0.2,0,0.4,0.1c0.1,0.1,0.2,0,0.4,0.1l0.4,0.1
				c0.1,0,0.1,0.1,0.1,0.1l0.1,0.1c0.4,0.1,0.9,0,1.4,0s0.9-0.1,1.4-0.2c0.4-0.1,0.9-0.2,1.2-0.4c0.4-0.1,0.8-0.4,1.2-0.6
				c0.1-0.1,0.2-0.1,0.3-0.2h0.1c0,0,0.1,0,0.1-0.1l0.1-0.1c0.1-0.1,0.2-0.1,0.3-0.2l0.3-0.2c0.1,0,0.1-0.1,0.1-0.1l0.1-0.1l0.3-0.2
				l0.2-0.3l0.1-0.1l0.1-0.1c0.1-0.1,0.2-0.2,0.2-0.3l0.2-0.3l0.1-0.1l0.1-0.1c0.1-0.1,0.2-0.2,0.2-0.3l0.2-0.3l0.1-0.1l0.1-0.1
				c0.1-0.1,0.1-0.1,0.2-0.3l0.1-0.4l0.1-0.1l0.1-0.1l0.1-0.4c0.1-0.1,0.1-0.2,0.1-0.4l0.1-0.1l0.1-0.1l0.1-0.4
				c0.1-0.1,0.1-0.2,0.1-0.4c0.1-0.1,0.1-0.2,0.1-0.4c0.1-0.1,0.1-0.2,0.1-0.3c0-0.2,0.1-0.4,0.1-0.6c0.1-0.1,0-0.2,0.1-0.3
				c0.1-0.1,0-0.2,0.1-0.3c0.4-1.8,0.3-3.6-0.2-5.3c-0.1-0.2-0.1-0.4-0.2-0.6V99v-0.1v-0.1c0-0.1-0.1-0.2-0.1-0.4
				c0-0.1-0.1-0.2-0.1-0.4c0-0.1,0-0.1-0.1-0.1l-0.1-0.2c-0.1-0.2-0.2-0.4-0.4-0.6c-0.5-0.9-1.1-1.7-1.7-2.5c-1.4-1.6-3-2.7-4.8-3.7
				c-0.1-0.1-0.1-0.1-0.2-0.1c-0.3,0.1-0.6,0.1-0.9,0.1c-28.7,5.8-47.8,31.6-42.4,57.6c0.2,1.1,0.5,2.1,0.8,3.1
				C85.6,152.5,94.8,153.1,105.3,152.5z"/>
		</g>
		<g>
			<g>
				
					<ellipse transform="matrix(0.9797 -0.2004 0.2004 0.9797 -28.9454 23.8627)" style="fill:#FFFFFF;" cx="103.4" cy="154.9" rx="14.1" ry="20.9"/>
				<path style="fill:#7F4285;" d="M109.1,158.8c-2.6,0.5-5.2-1.2-5.7-3.8l0,0c-0.5-2.6,1.2-5.2,3.8-5.7l5.3-1.1
					c-2.6-6-7.5-9.8-12.3-8.8c-5.8,1.2-9.1,9.2-7.4,17.8c1.7,8.7,7.9,14.7,13.7,13.5c4.7-0.9,7.7-6.4,7.8-12.9L109.1,158.8z"/>
			</g>
			<g>
				
					<ellipse transform="matrix(0.9797 -0.2004 0.2004 0.9797 -25.4621 35.0709)" style="fill:#FFFFFF;" cx="160.5" cy="143.3" rx="14.1" ry="20.9"/>
				<path style="fill:#7F4285;" d="M166.2,147.1c-2.6,0.5-5.2-1.2-5.7-3.8l0,0c-0.5-2.6,1.2-5.2,3.8-5.7l5.3-1.1
					c-2.6-6-7.5-9.8-12.3-8.8c-5.8,1.2-9.1,9.2-7.4,17.8c1.7,8.7,7.9,14.7,13.7,13.5c4.7-0.9,7.7-6.4,7.8-12.9L166.2,147.1z"/>
			</g>
		</g>
	</g>
	<g>
		<path style="fill:#7F4285;" d="M68.6,251.1c-17,30-15.2,78,38,138.9h38.1h38c54.1-61.9,55-110.5,37-140.4"/>
		<path style="fill:#7F4285;" d="M110.7,322.2c1.5,15.4,4.6,30.7,9.7,46c2.4,7.2,5.3,14.4,8.8,21.6h30.3c3.5-7.2,6.4-14.4,8.8-21.6
			c5.1-15.4,8.2-30.7,9.7-46c0.4-3.8,0.6-7.7,0.9-11.5c0.1-3.8-0.1-7.7-0.8-11.5c-0.6-3.8-1.8-7.7-3.2-11.5
			c-1.5-3.8-3.3-7.7-5.3-11.5c-4-7.7-8.5-15.4-11.5-23c-0.5-1.2-0.9-1.6-1.3-2.8l-24.8,0.1c-0.4,1.2-0.8,1.5-1.3,2.7
			c-3,7.7-7.4,15.4-11.5,23c-2,3.8-3.8,7.7-5.3,11.5s-2.6,7.7-3.2,11.5s-0.9,7.7-0.8,11.5C110.1,314.6,110.3,318.4,110.7,322.2z"/>
	</g>
</g>
<g>
	<path style="fill:#FFFFFF;" d="M288.6,51.9h-69.7c-2.7,0-4.9,2.2-4.9,4.9v59.7c0,2.7,2.2,4.9,4.9,4.9h6l-5,16
		c-0.4,1.3,1.1,2.3,2.2,1.4l20.2-17.5h46.3c2.7,0,4.9-2.2,4.9-4.9V56.9C293.5,54.1,291.3,51.9,288.6,51.9z"/>
	<g id="ilJhCX.tif">
		<g>
			<path style="fill:#7F4285;" d="M242.5,96c0-4.3,0-8.6,0-12.9c0-0.5,0.1-0.9,0.3-1.3c1.9-3.5,4-6.9,6.1-10.3
				c1-1.7,1.3-3.4,1.1-5.3c-0.2-2.1-0.1-4.1-0.2-6.2c0-0.4,0.2-0.6,0.5-0.7c1.9-0.6,3.7-0.5,5.4,0.6c1.9,1.3,2.9,3.1,3.6,5.2
				c0.9,2.8,0.7,5.6,0.4,8.4c0,0.4-0.1,0.8-0.2,1.3c-0.1,0.8,0,0.8,0.8,0.8c4.3,0,8.7,0,13,0c0.6,0,1.2,0.1,1.8,0.2
				c2.6,0.7,3.8,2.9,3.5,5.6c-0.1,1.2-0.8,2.1-1.6,2.8c-0.4,0.4-0.4,0.7,0,1.1c0.9,0.7,1.6,1.5,2,2.7c0.7,2-0.3,3.9-1.9,5.1
				c-0.4,0.3-0.8,0.5-1.3,0.7c-0.4,0.2-0.4,0.3-0.1,0.6c0.3,0.4,0.5,0.8,0.8,1.2c0.6,1.2,0.5,2.3-0.2,3.4c-0.8,1.4-2,2.2-3.4,2.7
				c-0.4,0.2-0.5,0.3-0.3,0.7c0.9,2,0.6,3.9-0.9,5.6c-1.1,1.3-2.4,1.8-4.1,1.8c-8.1,0-16.2,0-24.3,0c-1,0-1,0-1-1
				C242.5,104.7,242.5,100.3,242.5,96L242.5,96z"/>
			<path style="fill:#7F4285;" d="M228,96c0-4.5,0-9,0-13.4c0-0.7,0-0.7,0.8-0.7c3.2,0,6.5,0,9.7,0c0.7,0,0.8,0,0.8,0.7
				c0,7.9,0,15.8,0,23.7c0,1.2-0.1,2.4,0,3.5c0,0.3-0.1,0.4-0.5,0.4c-3.4,0-6.9,0-10.3,0c-0.4,0-0.5-0.1-0.5-0.4c0-0.2,0-0.3,0-0.5
				C228,104.8,228,100.4,228,96z"/>
		</g>
	</g>
</g>
</svg>
