<?xml version="1.0" encoding="utf-8"?>
<!-- Generator: Adobe Illustrator 23.0.1, SVG Export Plug-In . SVG Version: 6.00 Build 0)  -->
<svg version="1.1" id="Layer_1_copy" xmlns="http://www.w3.org/2000/svg" xmlns:xlink="http://www.w3.org/1999/xlink" x="0px"
	 y="0px" viewBox="0 0 588.2 594.5" style="enable-background:new 0 0 588.2 594.5;" xml:space="preserve">
<style type="text/css">
	.st0{fill:#454584;}
	.st1{fill:#5757A3;}
	.st2{fill:#7687DD;}
	.st3{fill:#FFFFFF;}
	.st4{fill:#7B7BDB;}
</style>
<g>
	<g>
		<g>
			<path class="st0" d="M444.2,249.9c-8.7-9-18.5-16.4-28.9-22c-59.6-32.6,20.2-66.1-24.4-138.9C346.1,16,262.6,37,262.6,37
				s-84.2,17.5-92.5,102.7c-8.3,85.2,78.1,80.3,38.8,135.7c-7.4,10.4-13.4,22.2-17.2,35.3"/>
			<path class="st1" d="M247.3,159.3c2.8,6.1,6.1,12.2,9.7,18c7.3,11.9,15.8,23.4,22.8,35.4c3.5,6,6.5,12.1,9,18.2
				c2.5,6.2,4.4,12.5,5.8,19c1.4,6.5,2.3,13,2.5,19.8c0.1,4.7,0.8,10.5,0.4,15.3l41.5-9.7c-2.5-4.1-5.5-9.4-7.4-13.5
				c-2.7-6.2-4.9-12.5-6.4-18.8c-1.6-6.4-2.6-12.9-3.1-19.6c-0.5-6.7-0.4-13.5,0.1-20.3c1-13.8,3.6-27.9,5-41.8
				c0.7-6.9,1-13.8,0.9-20.6c-0.2-6.7-0.9-13.4-2.1-19.8c-1.2-6.5-3.2-12.8-5-19.2c-1.9-6.3-3.9-12.7-6-18.9
				c-4.2-12.6-8.7-25.1-13.9-37.4c-1.5-3.7-3.1-7.5-4.8-11.2c-19.6-0.8-33.5,2.7-33.5,2.7s-15.2,3.2-33.5,13.5
				c0.2,3.8,0.4,7.7,0.6,11.5c0.9,13.4,2.1,26.6,3.9,39.7c0.9,6.6,1.9,13.1,2.9,19.6c1.1,6.5,2.1,13.1,3.9,19.4
				C242.3,147,244.6,153.2,247.3,159.3z"/>
			<g>
				<path class="st2" d="M319.4,166.7c-8.6,2.8-17.4,5.2-26.2,7.2c-15.4,3.6-31,6-46.5,7.1c-17.8,1.4-32.9,0.9-44.3,0.1
					c15.1,37.6,59,59.1,103.9,48.8c44.5-10.3,74.6-48.3,72.2-88.4C359.4,151.7,339.6,160.2,319.4,166.7z"/>
				<path class="st2" d="M246.6,175.4c23.9-1.8,47.9-6.6,71.3-14.1c20.5-6.6,40.5-15.3,60-26c-0.3-2.2-0.7-4.2-1.2-6.4
					c-7.4-32-34.4-54.8-67.3-60.8l0,0l0.1,0.4l0.6,1.3c0.2,0.4,0.4,0.9,0.5,1.4L311,72l0.1,0.4l0.1,0.4c0.3,0.9,0.7,1.9,0.9,2.9
					c0.6,1.9,1,3.9,1.3,5.8c0.1,1,0.2,2,0.3,3c0,0.5,0.1,1,0.1,1.5l0,1.5c0,0.5,0,1,0,1.5c0,0.5,0,1-0.1,1.5c-0.1,1-0.1,2-0.3,3
					c-0.2,2-0.6,3.9-1.1,5.8c-2,7.6-6.1,14.7-11.7,20.2l-1,1l-0.6,0.5l-0.6,0.5l-1.1,0.9l-1.2,0.8l-0.6,0.5l-0.6,0.5l-1,0.7
					c-0.4,0.3-0.8,0.5-1.2,0.8l-0.7,0.4c-0.2,0.2-0.4,0.2-0.6,0.3l-1.3,0.7c-0.4,0.2-0.9,0.4-1.3,0.6l-0.6,0.3
					c-0.1,0.1-0.2,0.1-0.4,0.1l-0.4,0.1c-0.4,0.2-0.9,0.3-1.4,0.5c-1.9,0.7-3.8,1.3-5.9,1.7c-2,0.4-4,0.5-6.1,0.6c-2,0-4-0.1-6-0.4
					c-2-0.3-3.9-0.7-5.7-1.4c-1.9-0.6-3.6-1.4-5.3-2.3c-3.3-1.8-6.4-4.2-8.9-7c-0.4-0.3-0.6-0.7-0.9-1.1c-0.3-0.4-0.6-0.7-0.9-1.1
					l-0.8-1.2c-0.3-0.4-0.6-0.8-0.7-1.1c-0.1-0.2-0.3-0.4-0.3-0.6l-0.3-0.6c-0.1-0.2-0.3-0.4-0.3-0.6l-0.3-0.6
					c-0.4-0.8-0.8-1.7-1.1-2.5l-0.5-1.3c-0.1-0.1,0-0.2-0.1-0.3l-0.1-0.4l-0.2-0.7c-0.3-0.9-0.5-1.8-0.7-2.7
					c-0.4-1.8-0.5-3.6-0.5-5.5c0-1.8,0.3-3.6,0.8-5.3c0.4-1.7,1-3.3,1.8-4.9c0.2-0.4,0.4-0.8,0.6-1.1l0.3-0.6
					c0.1-0.2,0.2-0.4,0.4-0.5l0.4-0.5l0.4-0.5c0.1-0.2,0.3-0.3,0.4-0.5l0.4-0.5c1.1-1.3,2.2-2.3,3.5-3.4c0.3-0.2,0.6-0.5,0.9-0.7
					c0.3-0.2,0.7-0.4,1-0.6c0.3-0.2,0.7-0.4,1-0.6c0.4-0.1,0.7-0.4,1-0.5l1-0.4l1-0.4c0.4-0.1,0.7-0.2,1.1-0.3l1.1-0.2l0.1,0.2
					c-2.1,2-3.7,4.2-4.7,6.6c-0.5,1.1-0.9,2.3-1.2,3.5s-0.4,2.3-0.4,3.5c0,1.1,0.1,2.2,0.2,3.3c0,0.2,0.1,0.5,0.2,0.8l0.2,0.8
					l0.3,0.7c0.1,0.3,0.2,0.4,0.3,0.7c0.3,0.9,0.8,1.8,1.4,2.5c0.3,0.4,0.6,0.8,0.8,1.2l0.2,0.3l0.1,0.2c0.1,0.1,0.1,0.1,0.1,0.2
					l0.5,0.6c0.4,0.3,0.6,0.7,1.1,1l0.3,0.3c0.1,0.1,0.2,0.1,0.3,0.3l0.3,0.3c0.1,0.1,0.2,0.1,0.3,0.3l0.6,0.4l0.6,0.4
					c0.2,0.1,0.4,0.3,0.6,0.4c0.2,0.1,0.4,0.2,0.6,0.4l0.2,0.2c0.1,0.1,0.2,0.1,0.3,0.1l0.3,0.1c0.1,0,0.2,0.1,0.3,0.1
					c0.2,0.1,0.4,0.2,0.6,0.2l0.6,0.2c0.8,0.3,1.7,0.5,2.5,0.7c0.3,0,0.4,0.1,0.7,0.1s0.4,0.1,0.7,0.1l0.6,0c0.1,0,0.2,0,0.3,0
					l0.3,0c0.8,0,1.6,0,2.4-0.1c0.8-0.1,1.6-0.3,2.3-0.5c0.8-0.2,1.4-0.5,2.2-0.8c0.7-0.3,1.3-0.6,1.9-1.1c0.2-0.1,0.3-0.2,0.5-0.3
					l0.1-0.1c0,0,0.1-0.1,0.2-0.1l0.2-0.2c0.2-0.1,0.3-0.2,0.5-0.4l0.5-0.4c0.1-0.1,0.2-0.1,0.2-0.2l0.2-0.2l0.5-0.5l0.4-0.4
					l0.2-0.2l0.2-0.2c0.2-0.1,0.3-0.3,0.4-0.4l0.4-0.4l0.2-0.2l0.2-0.2c0.1-0.2,0.3-0.3,0.4-0.5l0.4-0.5l0.2-0.2l0.2-0.2
					c0.1-0.2,0.3-0.3,0.4-0.5l0.3-0.6l0.2-0.2l0.2-0.2l0.3-0.6c0.1-0.2,0.2-0.4,0.2-0.5l0.2-0.2l0.1-0.3l0.2-0.5
					c0.1-0.2,0.1-0.3,0.2-0.5c0.1-0.2,0.1-0.3,0.2-0.6c0.1-0.2,0.1-0.3,0.2-0.6c0.1-0.4,0.2-0.7,0.3-1.2c0.1-0.2,0.1-0.4,0.2-0.6
					c0-0.1,0.1-0.4,0.1-0.5c0.5-3.1,0.3-6.2-0.6-9.1c-0.1-0.4-0.3-0.7-0.4-1l-0.1-0.1l-0.1-0.1l-0.1-0.3c-0.1-0.2-0.1-0.4-0.3-0.5
					c-0.1-0.2-0.1-0.4-0.3-0.5c-0.1-0.1-0.1-0.2-0.1-0.3l-0.2-0.2c-0.2-0.4-0.4-0.8-0.6-1.2c-0.9-1.5-1.9-3-3.1-4.2
					c-2.3-2.6-5.3-4.7-8.6-6.1c-0.1,0-0.3-0.1-0.5-0.1c-0.5,0.1-1,0.3-1.4,0.3c-49.1,11.2-80.6,56.4-70.4,100.8
					c0.4,1.8,1,3.6,1.4,5.4C212.6,176.3,228.6,176.9,246.6,175.4z"/>
			</g>
			<g>
				<g>
					
						<ellipse transform="matrix(0.9745 -0.2243 0.2243 0.9745 -34.1117 59.2135)" class="st3" cx="243.5" cy="179.7" rx="24.2" ry="36"/>
					<path class="st0" d="M253.4,186c-4.5,1-8.9-1.8-10-6.2l0,0c-1-4.5,1.8-8.9,6.2-10l9-2.1c-4.8-10.3-13.3-16.5-21.4-14.6
						c-9.9,2.3-15.2,16.1-11.8,30.8c3.4,14.7,14.2,24.9,24.1,22.6c8-1.8,13-11.2,12.8-22.5L253.4,186z"/>
				</g>
				<g>
					
						<ellipse transform="matrix(0.9745 -0.2243 0.2243 0.9745 -26.5799 80.5061)" class="st3" cx="341" cy="157.2" rx="24.2" ry="36"/>
					<path class="st0" d="M350.9,163.5c-4.5,1-8.9-1.8-10-6.2l0,0c-1-4.5,1.8-8.9,6.2-10l9-2.1c-4.8-10.3-13.3-16.5-21.4-14.6
						c-9.9,2.3-15.2,16.1-11.8,30.8c3.4,14.7,14.2,24.9,24.1,22.6c8-1.8,13-11.2,12.8-22.5L350.9,163.5z"/>
				</g>
			</g>
		</g>
	</g>
	<g>
		<path class="st1" d="M169.1,313.4c-29.3,51.4-26.2,133.9,65.2,238.5h65.4h65.4c93-106.4,94.5-189.9,63.7-241.1"/>
		<path class="st4" d="M241.4,435.7c2.6,26.4,7.9,52.8,16.8,79.2c4.1,12.4,9.1,24.7,15.1,37.1h52.2c5.9-12.4,11-24.7,15.1-37.1
			c8.9-26.4,14.2-52.8,16.8-79.2c0.7-6.6,1.1-13.2,1.4-19.8c0.3-6.6-0.2-13.2-1.3-19.8c-1.1-6.6-3.1-13.2-5.6-19.8
			c-2.6-6.6-5.6-13.2-9.2-19.8c-6.9-13.2-14.6-26.4-19.7-39.5c-0.8-2.1-1.5-2.7-2.2-4.8l-42.6,0.2c-0.7,2-1.4,2.6-2.2,4.7
			c-5.1,13.2-12.8,26.4-19.7,39.5c-3.4,6.6-6.6,13.2-9.2,19.8c-2.6,6.6-4.5,13.2-5.6,19.8c-1.1,6.6-1.6,13.2-1.3,19.8
			C240.2,422.6,240.7,429.2,241.4,435.7z"/>
	</g>
</g>
<polygon class="st0" points="152.6,206.8 87.1,159.5 78.9,186.8 152.6,226.4 "/>
<polygon class="st0" points="146.7,253 71.5,223.3 70.4,251.9 151.6,271.9 "/>
<polygon class="st0" points="461.8,229.9 527.3,182.5 535.4,209.9 461.8,249.4 "/>
<polygon class="st0" points="467.7,276.1 542.8,246.4 544,274.9 462.9,295 "/>
<g>
	<path class="st1" d="M444.3,173.2c-3,2.7-9.2,2.1-12.7-2.7c-3.5-5-2.5-10.9,1.2-14.2c3.7-3.3,10.4-1,12.9,4.5
		C448,165.8,447.3,170.5,444.3,173.2z M511.7,52.5c12.7,7,16.3,21.7,7.1,37.9c-8.7,15.3-24.9,24.3-42.6,32.4
		c-17,8-23.3,18.1-26.5,28.2c-0.7,2.1-2.3,2.1-4.1,0.6c-3-2.5-6.2-8.9-1.6-18.1c4.1-8.2,11.7-14.4,29-22.7
		c14-6.8,26.2-16.9,33.2-29.3c4.4-8,7.8-20,0.2-23.5c-12-5.4-32.5,12-45.4,34.4c-1.6,2.5-2.8,2.5-4.4,0.6
		c-3.5-4.5-4.1-13.8,3.7-24.5C472.8,51.5,494.9,43.1,511.7,52.5z"/>
</g>
</svg>
